<svg width="242" height="303" viewBox="0 0 242 303" fill="none" xmlns="http://www.w3.org/2000/svg">
<path opacity="0.1" d="M142.127 153.604C151.858 146.31 160.309 137.472 167.479 127.092C174.906 116.431 178.619 104.226 178.619 90.4792C178.619 72.5236 173.369 58.2153 162.87 47.5542C152.37 36.893 136.493 31.5625 115.238 31.5625C96.0318 31.5625 78.49 34.5083 62.6127 40.4C46.9915 46.0111 31.8825 55.6903 17.2857 69.4375L0 44.1875C14.5968 30.4403 31.7545 19.6389 51.473 11.7833C71.4476 3.92778 93.9831 0 119.079 0C139.31 0 156.852 2.10416 171.705 6.31249C186.558 10.5208 198.85 16.5528 208.581 24.4083C218.568 31.9833 225.995 41.1014 230.86 51.7625C235.726 62.1431 238.159 73.6458 238.159 86.2708C238.159 98.8958 236.494 110.258 233.165 120.358C229.836 130.178 225.354 139.156 219.721 147.292C214.343 155.428 208.069 162.862 200.898 169.596C193.728 176.329 186.302 182.922 178.619 189.375L80.6667 271.438H242V303H3.84127V269.333L142.127 153.604Z" fill="#349AC0"/>
</svg>
