<svg width="283" height="316" viewBox="0 0 283 316" fill="none" xmlns="http://www.w3.org/2000/svg">
<path opacity="0.1" d="M134.053 32.027C112.774 32.027 93.3403 35.0162 75.7504 40.9946C58.4441 46.6883 41.7053 56.5099 25.5338 70.4595L6.38346 44.8378C22.5549 30.8883 41.5634 19.9279 63.409 11.9568C85.5383 3.98559 110.505 0 138.308 0C160.154 0 179.304 1.99279 195.759 5.97838C212.215 9.96396 225.974 15.5153 237.039 22.6324C248.104 29.7495 256.331 38.1477 261.722 47.827C267.396 57.5063 270.233 67.8973 270.233 79C270.233 97.2198 265.836 112.308 257.041 124.265C248.246 135.937 234.202 145.047 214.91 151.595C236.188 157.004 252.785 166.114 264.701 178.924C276.9 191.45 283 207.962 283 228.459C283 240.701 280.163 252.231 274.489 263.049C268.815 273.582 259.878 282.834 247.678 290.805C235.762 298.492 220.584 304.613 202.143 309.168C183.702 313.723 161.714 316 136.18 316C108.377 316 82.7012 311.587 59.1534 302.762C35.8892 293.937 16.1714 281.98 0 266.892L21.2782 241.27C37.4496 256.359 54.614 267.319 72.7714 274.151C90.9288 280.699 110.647 283.973 131.925 283.973C161.714 283.973 183.276 278.279 196.611 266.892C210.229 255.504 217.038 241.27 217.038 224.189C217.038 207.108 211.647 194.013 200.866 184.903C190.085 175.508 173.488 170.811 151.075 170.811H63.8346V138.784H142.564C183.702 138.784 204.271 120.279 204.271 83.2703C204.271 68.182 198.171 55.9405 185.971 46.546C173.772 36.8667 156.466 32.027 134.053 32.027Z" fill="#349AC0"/>
</svg>
