<svg width="69" height="70" viewBox="0 0 69 70" fill="none" xmlns="http://www.w3.org/2000/svg">
<rect width="67.9878" height="69.4043" transform="translate(0.898438)" fill="white"/>
<path fill-rule="evenodd" clip-rule="evenodd" d="M57.8106 19.4456C58.3107 19.4533 58.8486 19.6584 59.3086 20.0833C60.2219 20.9347 60.3081 22.1886 59.6554 22.9474L58.9627 23.7502C57.9824 22.6959 56.903 21.7425 55.74 20.9039L56.5189 20.0001C56.8384 19.6299 57.3068 19.4371 57.8106 19.4456ZM43.268 18.4608C54.3788 18.4608 63.3736 27.6538 63.3736 39.0168C63.3736 50.3798 54.3788 59.5728 43.268 59.5728C38.0934 59.5728 34.3095 57.8454 27.4986 55.424L28.7768 54.1153C29.5216 53.3511 29.5481 52.2237 29.088 51.4317C28.6318 50.6451 27.5575 50.1508 26.5226 50.5564C23.4141 51.781 21.1357 51.697 19.3892 50.7045C18.0204 49.9249 16.8555 48.4111 16.014 46.4107C16.9454 46.7045 18.3694 46.7369 19.3371 46.5765C20.9393 46.3151 22.2923 45.6958 23.0991 44.873C23.6377 44.3232 24.0237 43.7286 24.2035 43.0986C24.381 42.4708 24.3251 41.7483 23.9081 41.2108C23.4866 40.6679 22.8143 40.4034 22.0392 40.3555C21.2641 40.3116 20.3395 40.4635 19.2222 40.8406C16.7271 41.6812 14.2214 41.375 11.9634 39.9407C10.0273 38.7084 8.36307 36.8005 7.06903 33.8362C8.46958 34.3544 9.7198 34.4223 10.7472 34.2827C12.2739 34.0729 13.5052 33.3827 14.6625 32.6918C16.9673 31.3145 18.9148 29.8801 23.0462 30.9806C23.1787 31.0156 23.3179 31.0148 23.45 30.9782C23.5821 30.9416 23.7025 30.8705 23.7995 30.7718C23.8964 30.6732 23.9665 30.5504 24.0028 30.4157C24.039 30.281 24.0403 30.1389 24.0063 30.0035C23.6014 28.3286 22.7433 27.0477 21.3699 26.3243C20.4687 25.8462 19.155 25.5169 17.6321 25.4892C19.4934 23.8181 21.6766 23.3122 24.1876 22.9706C27.2441 22.5526 30.7885 22.4122 33.9605 20.8051C37.1302 19.2004 40.1172 18.4608 43.268 18.4608ZM41.9581 14.7893H44.5787V16.9023C44.1427 16.8721 43.7058 16.8559 43.2688 16.8537C42.8322 16.8537 42.3955 16.8699 41.9581 16.8977V14.7893ZM39.605 9.82076H46.9273C47.0279 9.81864 47.128 9.83739 47.2213 9.87588C47.3147 9.91437 47.3994 9.97179 47.4704 10.0447C47.5414 10.1176 47.5971 10.2044 47.6342 10.2999C47.6714 10.3954 47.6892 10.4977 47.6865 10.6004V12.4034C47.6896 12.5062 47.6721 12.6086 47.6351 12.7043C47.5981 12.7999 47.5424 12.8869 47.4713 12.9598C47.4002 13.0327 47.3153 13.0901 47.2218 13.1283C47.1282 13.1666 47.028 13.1849 46.9273 13.1822H39.605C39.1774 13.1822 38.8496 12.8537 38.8496 12.4034V10.6004C38.8469 10.498 38.8646 10.3961 38.9015 10.3008C38.9384 10.2056 38.9938 10.1189 39.0644 10.0461C39.135 9.97326 39.2192 9.91575 39.3121 9.87703C39.405 9.83831 39.5047 9.81917 39.605 9.82076ZM39.605 8.21521C38.3306 8.21521 37.2798 9.2956 37.2798 10.6012V12.4041C37.2798 13.7097 38.3306 14.7893 39.605 14.7893H40.3884V17.0627C38.0315 17.3889 35.7539 18.1115 33.5382 19.232C30.4259 20.8098 27.1406 20.9509 23.9738 21.3812C20.8101 21.8154 17.6978 22.6097 15.2555 25.7552C14.8348 26.2888 15.2193 27.0762 15.8916 27.0562C18.139 26.9991 19.677 27.2327 20.653 27.7471C21.2664 28.0718 21.6804 28.5183 22.0029 29.1337C18.0173 28.5715 15.7987 30.1616 13.8708 31.3106C12.749 31.9808 11.727 32.5306 10.5417 32.6925C9.3572 32.8576 7.95363 32.6555 5.98576 31.6484C5.35272 31.3237 4.65546 31.9499 4.89493 32.6324C6.30833 36.701 8.5066 39.6337 11.1355 41.3048C13.7598 42.9713 16.8056 43.3484 19.7155 42.369C20.3614 42.1524 20.9046 42.0282 21.3412 41.9788C23.1905 41.7783 22.9419 42.6814 21.9901 43.7386C21.6041 44.1682 20.4082 44.7789 19.0817 44.9941C17.7597 45.2154 16.301 45.0797 15.1082 44.3085C14.4948 43.9106 13.7235 44.5098 13.9358 45.22C14.8959 48.4095 16.3947 50.8348 18.63 52.1049C20.8607 53.3781 23.7132 53.3781 27.0937 52.0486C27.4865 51.8952 27.6089 52.0278 27.7388 52.2568C27.8688 52.482 27.8846 52.7589 27.6603 52.9879L25.5073 55.2011C25.4142 55.2977 25.3465 55.4167 25.3107 55.5472C25.2748 55.6776 25.2719 55.8152 25.3022 55.9471C25.3325 56.079 25.3951 56.201 25.4841 56.3015C25.5731 56.4021 25.6855 56.478 25.811 56.5221C33.511 59.1934 37.3977 61.1822 43.268 61.1822C55.2286 61.1822 64.9388 51.2497 64.9388 39.0191C64.9453 33.8904 63.2037 28.9192 60.0127 24.9578L60.8353 24.0093C62.0946 22.5472 61.8385 20.2707 60.3677 18.9012C59.6607 18.2406 58.7403 17.8687 57.7819 17.8562C56.8656 17.8485 55.9803 18.2025 55.3427 18.9413L54.415 20.0178C51.8884 18.4609 49.0742 17.4533 46.1485 17.0581V14.7924H46.9273C48.2055 14.7924 49.26 13.7128 49.26 12.4072V10.6043C49.26 9.29946 48.2055 8.21829 46.9273 8.21829H39.605V8.21521Z" fill="#F33C2A"/>
<path fill-rule="evenodd" clip-rule="evenodd" d="M43.2679 24.5021C51.1175 24.5021 57.4638 30.9922 57.4638 39.0169C57.4638 47.0462 51.1175 53.5324 43.2679 53.5324C35.4229 53.5324 29.0721 47.0462 29.0721 39.0169C29.0721 30.9922 35.4229 24.5021 43.2679 24.5021ZM43.2679 22.895C34.5723 22.895 27.5068 30.1246 27.5068 39.0169C27.5068 47.9083 34.5723 55.1348 43.2679 55.1348C51.9674 55.1348 59.0328 47.9083 59.0328 39.0169C59.0328 30.1246 51.9674 22.895 43.2679 22.895Z" fill="#F33C2A"/>
<path d="M43.041 25.8547C42.9381 25.8567 42.8365 25.8794 42.7422 25.9215C42.6479 25.9636 42.5626 26.0243 42.4912 26.1C42.4199 26.1758 42.3638 26.2652 42.3264 26.3631C42.2889 26.461 42.2707 26.5655 42.2728 26.6706V27.8273C42.2661 27.9365 42.2815 28.0459 42.3178 28.1488C42.3542 28.2518 42.4108 28.346 42.4842 28.4257C42.5576 28.5054 42.6462 28.569 42.7446 28.6124C42.8429 28.6558 42.949 28.6782 43.0561 28.6782C43.1633 28.6782 43.2694 28.6558 43.3677 28.6124C43.4661 28.569 43.5547 28.5054 43.6281 28.4257C43.7015 28.346 43.7581 28.2518 43.7945 28.1488C43.8308 28.0459 43.8462 27.9365 43.8395 27.8273V26.6706C43.841 26.5631 43.8214 26.4563 43.7819 26.3567C43.7423 26.2571 43.6835 26.1665 43.6091 26.0905C43.5346 26.0144 43.446 25.9543 43.3485 25.9138C43.2509 25.8733 43.1464 25.8532 43.041 25.8547ZM43.041 49.3958C42.9381 49.3977 42.8366 49.4204 42.7423 49.4624C42.6479 49.5044 42.5626 49.565 42.4913 49.6407C42.4199 49.7164 42.3639 49.8058 42.3264 49.9036C42.2889 50.0015 42.2707 50.1059 42.2728 50.211V51.3638C42.2646 51.474 42.2787 51.5846 42.3144 51.6889C42.35 51.7932 42.4064 51.8889 42.4799 51.9699C42.5535 52.0509 42.6426 52.1155 42.7418 52.1597C42.8409 52.2039 42.9479 52.2267 43.0561 52.2267C43.1643 52.2267 43.2714 52.2039 43.3705 52.1597C43.4697 52.1155 43.5588 52.0509 43.6324 51.9699C43.7059 51.8889 43.7623 51.7932 43.7979 51.6889C43.8336 51.5846 43.8477 51.474 43.8395 51.3638V50.211C43.8415 50.1034 43.8221 49.9965 43.7827 49.8967C43.7433 49.7969 43.6845 49.7062 43.61 49.6302C43.5354 49.5541 43.4466 49.4941 43.3489 49.4538C43.2511 49.4136 43.1464 49.3939 43.041 49.3958Z" fill="#F33C2A"/>
<path fill-rule="evenodd" clip-rule="evenodd" d="M43.2684 37.8161C43.9294 37.8161 44.4408 38.3428 44.4408 39.0168C44.4408 39.6915 43.9287 40.2175 43.2684 40.2175C42.6112 40.2175 42.096 39.6915 42.096 39.0168C42.096 38.3428 42.612 37.8161 43.2684 37.8161ZM48.5768 32.5344C48.3722 32.5376 48.177 32.6229 48.0336 32.7719L44.4136 36.4789C44.0562 36.3035 43.665 36.2116 43.2684 36.2098C41.7614 36.2098 40.5225 37.4791 40.5225 39.0168C40.5225 40.5545 41.7614 41.8238 43.2684 41.8238C44.7793 41.8238 46.0151 40.5545 46.0151 39.0168C46.0151 38.4746 45.8535 37.9718 45.5898 37.5423L49.1463 33.9032C49.6547 33.3943 49.2891 32.5105 48.5768 32.5344Z" fill="#F33C2A"/>
<path d="M55.9693 39.0253C55.9676 38.9201 55.9455 38.8163 55.9044 38.7197C55.8633 38.6232 55.804 38.5359 55.7299 38.4628C55.6557 38.3897 55.5682 38.3322 55.4723 38.2936C55.3764 38.255 55.2739 38.2361 55.1709 38.238H54.0377C53.9306 38.2307 53.8231 38.246 53.722 38.2829C53.6209 38.3198 53.5283 38.3775 53.45 38.4526C53.3717 38.5276 53.3094 38.6182 53.2669 38.7189C53.2244 38.8195 53.2026 38.9281 53.203 39.0377C53.203 39.5034 53.5845 39.8682 54.0377 39.8366H55.1709C55.2759 39.8386 55.3803 39.8189 55.4778 39.7789C55.5753 39.7389 55.6639 39.6793 55.7384 39.6036C55.8129 39.5279 55.8717 39.4377 55.9114 39.3384C55.9511 39.2391 55.9708 39.1326 55.9693 39.0253ZM32.9094 39.0253C32.906 38.8134 32.8204 38.6115 32.6715 38.4639C32.5225 38.3163 32.3223 38.2351 32.1147 38.238H30.9815C30.8752 38.2321 30.7688 38.2485 30.6688 38.286C30.5688 38.3235 30.4774 38.3815 30.4 38.4563C30.3227 38.531 30.2611 38.6211 30.2191 38.721C30.177 38.8209 30.1553 38.9285 30.1553 39.0373C30.1553 39.146 30.177 39.2536 30.2191 39.3535C30.2611 39.4534 30.3227 39.5435 30.4 39.6183C30.4774 39.6931 30.5688 39.751 30.6688 39.7886C30.7688 39.8261 30.8752 39.8424 30.9815 39.8366H32.1147C32.2195 39.8381 32.3235 39.8182 32.4206 39.778C32.5177 39.7378 32.6059 39.6781 32.68 39.6024C32.7541 39.5268 32.8126 39.4367 32.852 39.3376C32.8914 39.2385 32.9109 39.1323 32.9094 39.0253ZM52.1953 48.3471C52.3391 48.1948 52.4178 47.9905 52.4143 47.779C52.4107 47.5675 52.3252 47.3661 52.1764 47.2189L51.3779 46.3991C51.3067 46.3178 51.22 46.2522 51.1231 46.2062C51.0261 46.1603 50.9211 46.135 50.8143 46.1319C50.7074 46.1288 50.6011 46.148 50.5018 46.1883C50.4026 46.2286 50.3124 46.2892 50.2368 46.3663C50.1612 46.4434 50.1018 46.5354 50.0623 46.6368C50.0227 46.7381 50.0038 46.8466 50.0068 46.9556C50.0097 47.0647 50.0344 47.172 50.0794 47.2709C50.1243 47.3699 50.1886 47.4585 50.2682 47.5312L51.0667 48.3463C51.3779 48.6733 51.8901 48.6733 52.1953 48.3471ZM35.8918 31.7032C36.0356 31.5506 36.1143 31.3461 36.1104 31.1344C36.1066 30.9227 36.0206 30.7212 35.8714 30.5742L35.0729 29.7545C35.0016 29.6732 34.9149 29.6076 34.8179 29.5617C34.721 29.5158 34.6159 29.4906 34.5091 29.4876C34.4023 29.4846 34.296 29.5039 34.1967 29.5442C34.0974 29.5846 34.0073 29.6452 33.9318 29.7224C33.8562 29.7996 33.7969 29.8916 33.7574 29.993C33.7179 30.0944 33.6991 30.2029 33.7021 30.3119C33.7052 30.421 33.7299 30.5282 33.7749 30.6271C33.82 30.7261 33.8843 30.8146 33.9639 30.8873L34.7632 31.7024C35.0729 32.0286 35.5851 32.0286 35.8918 31.7032ZM52.1764 29.7066C52.0263 29.5597 51.8254 29.4793 51.6175 29.483C51.4095 29.4868 51.2115 29.5744 51.0667 29.7267L50.2682 30.5426C50.1875 30.6152 50.1222 30.7039 50.0763 30.8032C50.0303 30.9025 50.0047 31.0103 50.0011 31.12C49.9974 31.2298 50.0157 31.3391 50.0549 31.4414C50.0941 31.5436 50.1533 31.6367 50.2289 31.7147C50.3053 31.7922 50.3965 31.8528 50.4968 31.8929C50.597 31.9331 50.7043 31.9518 50.8119 31.9481C50.9195 31.9443 51.0252 31.9181 51.1226 31.8711C51.2199 31.8241 51.3068 31.7572 51.3779 31.6746L52.1764 30.8549C52.2518 30.7804 52.3117 30.6912 52.3527 30.5926C52.3937 30.4939 52.4148 30.3879 52.4148 30.2808C52.4148 30.1736 52.3937 30.0676 52.3527 29.969C52.3117 29.8704 52.2518 29.7811 52.1764 29.7066ZM35.8714 46.3513C35.7214 46.2047 35.5207 46.1244 35.313 46.128C35.1053 46.1316 34.9075 46.2188 34.7624 46.3706L33.9632 47.1865C33.8823 47.2591 33.8168 47.3478 33.7707 47.4471C33.7247 47.5465 33.699 47.6544 33.6953 47.7643C33.6917 47.8742 33.71 47.9836 33.7493 48.086C33.7886 48.1883 33.8481 48.2814 33.9239 48.3594C34.0003 48.4367 34.0914 48.4972 34.1916 48.5372C34.2917 48.5773 34.3988 48.5961 34.5063 48.5924C34.6138 48.5887 34.7195 48.5626 34.8167 48.5158C34.914 48.469 35.0009 48.4024 35.0721 48.3201L35.8706 47.5004C35.9465 47.4261 36.0069 47.3369 36.0481 47.2382C36.0894 47.1395 36.1107 47.0333 36.1108 46.926C36.1108 46.8187 36.0897 46.7125 36.0485 46.6137C36.0074 46.515 35.9471 46.4257 35.8714 46.3513Z" fill="#F33C2A"/>
</svg>
