<svg width="65" height="67" viewBox="0 0 65 67" fill="none" xmlns="http://www.w3.org/2000/svg">
<rect width="64.4095" height="66.7002" transform="translate(0.0810547)" fill="white"/>
<path d="M10.7109 38.3656C14.3526 38.3656 17.3154 35.2974 17.3154 31.5262C17.3154 28.0554 12.0257 20.4459 11.4224 19.5897C11.3407 19.4737 11.2336 19.3793 11.11 19.3143C10.9863 19.2492 10.8496 19.2153 10.7109 19.2153C10.5722 19.2153 10.4355 19.2492 10.3119 19.3143C10.1882 19.3793 10.0812 19.4737 9.99938 19.5897C9.3962 20.4459 4.10645 28.0554 4.10645 31.5262C4.10645 35.2974 7.06922 38.3656 10.7109 38.3656ZM10.7109 21.7049C12.5175 24.4105 15.5542 29.4028 15.5542 31.5262C15.5542 34.2916 13.3813 36.5417 10.7109 36.5417C8.04051 36.5417 5.86764 34.2916 5.86764 31.5262C5.86764 29.4028 8.90439 24.4105 10.7109 21.7049Z" fill="#F33C2A"/>
<path d="M55.8099 40.9189C55.9539 40.5464 56.0309 40.1461 56.0309 39.7334C56.0309 38.8813 55.7095 38.0788 55.1257 37.4746L41.505 23.3696C41.7503 23.3395 41.9977 23.3189 42.2482 23.3189H42.3055C43.1993 23.3189 43.9976 22.7668 44.3397 21.9119C44.6813 21.0569 44.4942 20.0816 43.8624 19.4273L37.9025 13.2555C37.0708 12.3942 35.9652 11.92 34.7891 11.92H34.1846C33.1671 11.92 32.2032 12.2761 31.4235 12.9295L28.2454 9.63837C27.5805 8.94987 26.423 8.94987 25.7586 9.63837L25.2408 10.1746L22.5365 7.37361C20.5406 5.30722 17.8869 4.1687 15.0642 4.1687H5.86764C4.89635 4.1687 4.10645 4.9867 4.10645 5.99253V10.5521C4.10645 11.558 4.89635 12.376 5.86764 12.376H11.9821C14.3342 12.376 16.5458 13.3244 18.2088 15.047L19.3866 16.2667C18.8406 16.9807 18.8781 18.0198 19.5152 18.6796L22.6743 21.9511L21.9447 22.7066C20.947 23.7398 20.3975 25.1141 20.3975 26.5754V37.8449C20.3975 39.3062 20.947 40.68 21.9452 41.7137L33.1728 53.3406C34.171 54.3738 35.4976 54.9433 36.9087 54.9433C38.3199 54.9433 39.647 54.3738 40.6447 53.3406L46.8569 46.9075C47.3747 47.2682 47.9752 47.4496 48.5767 47.4496C48.9589 47.4496 49.3402 47.3753 49.7008 47.2299C51.535 49.3483 52.5394 52.0557 52.5394 54.9233V61.6195C52.5394 62.1229 52.9339 62.5314 53.42 62.5314C53.9061 62.5314 54.3006 62.1229 54.3006 61.6195V54.9228C54.3006 51.6586 53.1752 48.575 51.1194 46.1406L54.7409 42.3903L55.4392 43.1135C57.5443 45.2934 58.7036 48.1919 58.7036 51.2747V61.6195C58.7036 62.1229 59.0981 62.5314 59.5842 62.5314C60.0703 62.5314 60.4648 62.1229 60.4648 61.6195V51.2751C60.4648 47.705 59.1223 44.3487 56.6844 41.824L55.8099 40.9189ZM11.9821 10.5521H5.86764V5.99253H15.0642C17.4162 5.99253 19.6279 6.94093 21.2909 8.66354L23.9956 11.464L20.6177 14.9617L19.4544 13.7571C17.4585 11.6906 14.8048 10.5521 11.9821 10.5521ZM20.7603 17.3933L26.9998 10.9278L30.1594 14.1998L23.9195 20.6616L20.7603 17.3933ZM39.3995 52.0512C38.7342 52.7401 37.8497 53.1195 36.9087 53.1195C35.9678 53.1195 35.0833 52.7401 34.418 52.0512L23.1903 40.4242C22.525 39.7353 22.1587 38.8193 22.1587 37.8449V26.5754C22.1587 25.601 22.525 24.685 23.1903 23.996L32.3168 14.5449C32.8157 14.0283 33.4792 13.7438 34.1846 13.7438H34.7891C35.4949 13.7438 36.158 14.0283 36.6569 14.5449L42.6167 20.7168C42.8043 20.911 42.7462 21.129 42.7123 21.2138C42.6784 21.2981 42.571 21.4951 42.3055 21.4951H42.2482C40.1313 21.4951 38.1411 22.3487 36.6441 23.8989L27.6783 33.1841C26.9298 33.9592 26.5177 34.9896 26.5177 36.0858C26.5177 37.1819 26.9302 38.2124 27.6783 38.9875L35.0788 46.6508C35.7441 47.3397 36.6287 47.7191 37.5696 47.7191C38.5105 47.7191 39.3951 47.3397 40.0604 46.6508L43.2935 43.3022L45.5703 45.6605L39.3995 52.0512ZM28.779 34.6559L35.2528 41.3603L36.5147 45.5209C36.4491 45.4708 36.3826 45.4224 36.3236 45.3613L28.923 37.6976C28.5074 37.2672 28.2784 36.6945 28.2784 36.0858C28.2784 35.5564 28.4603 35.0608 28.779 34.6559ZM38.4035 45.6614L36.9228 40.7799L38.8901 38.7427L42.0479 42.0128L38.8143 45.3609C38.6933 45.4872 38.5515 45.5816 38.4035 45.6614ZM35.808 39.3559L33.7509 37.2257L35.5878 35.3234L37.6449 37.4537L35.808 39.3559ZM32.5057 35.9362L30.0084 33.35L31.8453 31.4478L34.3427 34.034L32.5057 35.9362ZM49.5128 45.2259C49.0104 45.7462 48.143 45.7462 47.6406 45.2259L33.0905 30.1583L37.8897 25.1888C38.3886 24.6722 38.961 24.2619 39.5783 23.9536L53.8801 38.7641C54.3961 39.2984 54.3961 40.1684 53.8801 40.7028L49.5128 45.2259Z" fill="#F33C2A"/>
</svg>
