<svg width="62" height="63" viewBox="0 0 62 63" fill="none" xmlns="http://www.w3.org/2000/svg">
<rect width="60.9242" height="62.1934" transform="translate(0.898438)" fill="white"/>
<path d="M17.0818 60.2499C16.8294 60.2499 16.5872 60.1475 16.4087 59.9652C16.2302 59.783 16.1299 59.5358 16.1299 59.2781V51.9023L9.71192 46.7675C8.90848 46.1145 7.83088 44.8337 7.41203 43.8153L2.88079 33.0616C2.82927 32.9402 2.8027 32.8092 2.80273 32.6768V23.3109C2.80273 22.102 4.14497 21.2099 5.44151 21.0486C7.07123 20.8387 9.0684 21.7327 9.82805 24.8327C10.2222 26.4439 10.3097 27.8063 10.3859 29.0074C10.4202 29.5419 10.0261 30.0452 9.50059 30.0802C8.98083 30.1133 8.5258 29.7518 8.49153 29.2154C8.41347 28.0142 8.33351 26.7451 7.97939 25.3011C7.7414 24.3254 7.22545 23.1262 6.12691 22.9766C5.40724 22.8716 4.77706 23.272 4.67615 23.4547L4.70661 32.4766L9.1655 43.0553C9.44347 43.7336 10.3059 44.7657 10.8942 45.2438L17.672 50.6663C17.8986 50.8489 18.0338 51.1308 18.0338 51.4301V59.2781C18.0338 59.5358 17.9335 59.783 17.755 59.9652C17.5764 60.1475 17.3343 60.2499 17.0818 60.2499ZM28.5051 60.2499C28.2526 60.2499 28.0105 60.1475 27.832 59.9652C27.6535 59.783 27.5532 59.5358 27.5532 59.2781V48.6605C27.5532 44.5655 24.783 40.9952 20.8153 39.9768C20.6941 39.9456 20.58 39.8904 20.4797 39.8143C20.3793 39.7381 20.2946 39.6426 20.2304 39.533C20.1663 39.4235 20.1239 39.3021 20.1056 39.1758C20.0874 39.0495 20.0937 38.9208 20.1242 38.797C20.1547 38.6732 20.2088 38.5568 20.2834 38.4544C20.358 38.3519 20.4516 38.2655 20.5589 38.1999C20.6662 38.1344 20.7851 38.0911 20.9088 38.0725C21.0326 38.0539 21.1586 38.0604 21.2799 38.0915C26.0948 39.3276 29.4571 43.6734 29.4571 48.6605V59.2781C29.4571 59.5358 29.3568 59.783 29.1782 59.9652C28.9997 60.1475 28.7576 60.2499 28.5051 60.2499Z" fill="#F33C2A"/>
<path d="M17.5804 43.5685C17.3278 43.5685 17.0855 43.4665 16.9064 43.2847L8.55408 34.772C8.46543 34.6817 8.3951 34.5745 8.34711 34.4564C8.29912 34.3384 8.27441 34.2118 8.27441 34.084C8.27441 33.9562 8.29912 33.8296 8.34711 33.7115C8.3951 33.5935 8.46543 33.4862 8.55408 33.396C11.1738 30.7216 14.4009 30.949 17.4052 34.0179L21.6966 38.3909C21.7876 38.4804 21.8603 38.5875 21.9103 38.706C21.9604 38.8245 21.9868 38.952 21.9881 39.081C21.9893 39.21 21.9654 39.338 21.9177 39.4575C21.87 39.577 21.7995 39.6856 21.7102 39.7769C21.621 39.8683 21.5148 39.9406 21.3979 39.9896C21.281 40.0387 21.1557 40.0634 21.0293 40.0625C20.9029 40.0616 20.7779 40.035 20.6617 39.9842C20.5455 39.9334 20.4404 39.8596 20.3524 39.7669L16.0592 35.3939C14.1039 33.3998 12.2819 32.98 10.6293 34.1423L18.2486 41.9087C18.38 42.0449 18.4692 42.2176 18.5052 42.4052C18.5412 42.5927 18.5225 42.787 18.4513 42.9638C18.3801 43.1406 18.2596 43.2922 18.1048 43.3997C17.95 43.5072 17.7676 43.5659 17.5804 43.5685ZM44.6878 59.2781V51.4301C44.6878 51.1308 44.823 50.849 45.0515 50.6644L51.835 45.238C52.4176 44.7657 53.28 43.7317 53.5542 43.0612L58.015 32.4767V23.3109C57.9426 23.274 57.3106 22.8814 56.5928 22.9786C55.4962 23.1282 54.9802 24.3254 54.7403 25.303C54.4757 26.3895 54.3138 27.8024 54.2206 28.9122C54.1976 29.1723 54.0794 29.414 53.8895 29.5891C53.6996 29.7642 53.4521 29.8598 53.1963 29.8568C53.0729 29.8557 52.9512 29.8285 52.8386 29.7769C52.7261 29.7254 52.6252 29.6506 52.5424 29.5573C52.4596 29.464 52.3966 29.3542 52.3574 29.2348C52.3182 29.1154 52.3037 28.989 52.3148 28.8636C52.4157 27.6333 52.5889 26.0824 52.8936 24.8308C53.6551 21.7308 55.6637 20.8387 57.2801 21.0467C58.5766 21.2119 59.9189 22.102 59.9189 23.3109V32.6768C59.9187 32.8092 59.8921 32.9401 59.8408 33.0617L55.3058 43.8231C54.8888 44.8337 53.8131 46.1145 53.0135 46.7637L46.5917 51.9024V59.2781C46.5917 59.5359 46.4914 59.783 46.3129 59.9653C46.1344 60.1475 45.8922 60.2499 45.6398 60.2499C45.3873 60.2499 45.1452 60.1475 44.9666 59.9653C44.7881 59.783 44.6878 59.5359 44.6878 59.2781ZM34.2165 60.2499C33.964 60.2499 33.7219 60.1475 33.5434 59.9653C33.3648 59.783 33.2645 59.5359 33.2645 59.2781V48.6606C33.2645 43.6734 36.6268 39.3277 41.4417 38.0916C41.563 38.0604 41.6891 38.054 41.8128 38.0726C41.9365 38.0912 42.0554 38.1345 42.1627 38.2C42.27 38.2655 42.3636 38.3519 42.4382 38.4544C42.5128 38.5568 42.5669 38.6733 42.5974 38.7971C42.6279 38.9209 42.6342 39.0496 42.616 39.1758C42.5977 39.3021 42.5553 39.4235 42.4912 39.533C42.427 39.6426 42.3423 39.7382 42.2419 39.8143C42.1416 39.8904 42.0275 39.9457 41.9063 39.9768C37.9386 40.9952 35.1684 44.5655 35.1684 48.6606V59.2781C35.1684 59.5359 35.0681 59.783 34.8896 59.9653C34.7111 60.1475 34.469 60.2499 34.2165 60.2499Z" fill="#F33C2A"/>
<path d="M45.1411 43.5685C44.9534 43.567 44.7703 43.5091 44.6146 43.402C44.4589 43.295 44.3375 43.1435 44.2656 42.9664C44.1938 42.7894 44.1745 42.5947 44.2104 42.4066C44.2462 42.2185 44.3355 42.0453 44.4671 41.9087L52.0865 34.1423C50.432 32.98 48.61 33.3998 46.6585 35.3939L42.3653 39.7669C42.1855 39.9437 41.9449 40.0413 41.6953 40.0387C41.4457 40.0361 41.207 39.9336 41.0308 39.7532C40.8545 39.5727 40.7548 39.3288 40.753 39.074C40.7511 38.8192 40.8474 38.5739 41.0211 38.3909L45.3144 34.0179C48.3206 30.949 51.5477 30.7236 54.1655 33.396C54.2542 33.4862 54.3245 33.5935 54.3725 33.7115C54.4205 33.8296 54.4452 33.9561 54.4452 34.084C54.4452 34.2118 54.4205 34.3384 54.3725 34.4564C54.3245 34.5745 54.2542 34.6817 54.1655 34.772L45.8132 43.2847C45.725 43.3748 45.6202 43.4463 45.5049 43.495C45.3895 43.5437 45.2659 43.5686 45.1411 43.5685Z" fill="#F33C2A"/>
<path d="M45.1412 43.5684C44.9535 43.5669 44.7704 43.5091 44.6147 43.402C44.459 43.2949 44.3376 43.1434 44.2657 42.9664C44.1938 42.7894 44.1746 42.5947 44.2105 42.4065C44.2463 42.2184 44.3356 42.0453 44.4672 41.9086L52.0866 34.1422C50.4321 32.98 48.6101 33.3998 46.6586 35.3939L42.3654 39.7669C42.1856 39.9436 41.945 40.0412 41.6954 40.0387C41.4458 40.0361 41.2071 39.9336 41.0309 39.7531C40.8546 39.5727 40.7549 39.3288 40.753 39.074C40.7512 38.8192 40.8475 38.5739 41.0212 38.3908L45.3145 34.0179C48.3207 30.949 51.5478 30.7235 54.1656 33.3959C54.2543 33.4862 54.3246 33.5934 54.3726 33.7115C54.4206 33.8295 54.4453 33.9561 54.4453 34.0839C54.4453 34.2118 54.4206 34.3383 54.3726 34.4564C54.3246 34.5744 54.2543 34.6817 54.1656 34.7719L45.8133 43.2847C45.7251 43.3748 45.6203 43.4463 45.505 43.4949C45.3896 43.5436 45.266 43.5686 45.1412 43.5684ZM31.3647 39.8427C31.177 39.8427 30.9934 39.7859 30.8374 39.6794L20.7944 32.8459C18.1785 31.0695 16.1299 27.163 16.1299 23.9522V6.02498C16.1299 5.76725 16.2302 5.52008 16.4087 5.33783C16.5872 5.15559 16.8294 5.05321 17.0818 5.05321C17.3343 5.05321 17.5764 5.15559 17.7549 5.33783C17.9335 5.52008 18.0338 5.76725 18.0338 6.02498V23.9522C18.0338 26.4905 19.7815 29.8237 21.8491 31.2289L31.3647 37.7028L40.8746 31.2289C42.9422 29.8217 44.6881 26.4886 44.6881 23.9522V7.36408C42.2371 8.09113 39.6386 8.12418 37.1707 7.45967C34.7028 6.79517 32.4583 5.45814 30.6774 3.59166C30.59 3.50002 30.5212 3.39166 30.4749 3.27279C30.4285 3.15393 30.4057 3.0269 30.4076 2.89899C30.4095 2.77109 30.4361 2.64482 30.4859 2.52744C30.5357 2.41005 30.6077 2.30386 30.6978 2.21496C30.7879 2.12605 30.8943 2.05618 31.0109 2.00935C31.1275 1.96252 31.2521 1.93966 31.3773 1.94207C31.5026 1.94448 31.6262 1.97212 31.741 2.0234C31.8558 2.07468 31.9596 2.14859 32.0463 2.2409C33.6366 3.90667 35.6531 5.083 37.8663 5.63588C40.0795 6.18876 42.4003 6.09597 44.5643 5.36806L45.3392 5.10374C45.4823 5.0542 45.6348 5.04026 45.7842 5.06309C45.9336 5.08591 46.0755 5.14484 46.198 5.23497C46.3206 5.3251 46.4203 5.44381 46.4888 5.58123C46.5573 5.71865 46.5927 5.87079 46.592 6.02498V23.9522C46.592 27.1591 44.5453 31.0656 41.9313 32.8459L31.894 39.6794C31.7371 39.7858 31.553 39.8425 31.3647 39.8427Z" fill="#F33C2A"/>
<path d="M21.9994 7.94522C21.6034 7.94522 21.2055 7.92773 20.8095 7.89469C20.5637 7.8658 20.3385 7.74034 20.1818 7.54488C20.025 7.34942 19.949 7.09934 19.9698 6.84763C19.9906 6.59592 20.1066 6.36236 20.2932 6.19647C20.4798 6.03057 20.7223 5.94537 20.9694 5.95892C22.7568 6.11497 24.5558 5.86221 26.2355 5.21904C27.9152 4.57587 29.4332 3.55848 30.6792 2.24092C30.8549 2.05673 31.095 1.95114 31.3468 1.94725C31.5986 1.94337 31.8417 2.04152 32.0228 2.22021C32.2038 2.39889 32.3082 2.64355 32.3129 2.90061C32.3177 3.15766 32.2224 3.40616 32.0481 3.59168C30.7456 4.96935 29.1845 6.0649 27.458 6.81291C25.7315 7.56091 23.875 7.94601 21.9994 7.94522ZM31.3627 35.1704C31.1749 35.1705 30.9914 35.1137 30.8353 35.0071L22.9056 29.6138C21.2417 28.4807 19.9375 25.9949 19.9375 23.9523V10.8158C19.9375 10.6828 19.9642 10.5512 20.016 10.4291C20.0679 10.3071 20.1437 10.1972 20.2388 10.1063C20.334 10.0153 20.4464 9.94533 20.5691 9.90057C20.6918 9.8558 20.8222 9.83723 20.9523 9.84601C24.4482 10.0762 27.9209 9.12399 30.8334 7.13671C30.9898 7.03016 31.1737 6.97331 31.3617 6.97331C31.5498 6.97331 31.7336 7.03016 31.8901 7.13671C34.8061 9.1175 38.2773 10.0691 41.7731 9.84601C41.9028 9.83778 42.0328 9.85676 42.1551 9.90178C42.2774 9.9468 42.3893 10.0169 42.484 10.1078C42.5787 10.1986 42.6542 10.3083 42.7058 10.4301C42.7574 10.5519 42.7841 10.6832 42.7841 10.8158V23.9523C42.7841 25.9949 41.4799 28.4807 39.8159 29.6119L31.8901 35.0071C31.734 35.1137 31.5504 35.1705 31.3627 35.1704ZM21.8414 11.8226V23.9523C21.8414 25.338 22.8314 27.2271 23.9604 27.9968L31.3627 33.0306L38.7612 27.9948C39.8902 27.2271 40.8802 25.338 40.8802 23.9523V11.8207C37.5207 11.8367 34.2236 10.8943 31.3608 9.09969C28.5069 10.9154 25.2039 11.8602 21.8414 11.8226Z" fill="#F33C2A"/>
<path d="M32.3128 26.2379H30.4089C29.3599 26.2379 28.505 25.3652 28.505 24.2943V22.3508H26.6011C25.5521 22.3508 24.6973 21.4781 24.6973 20.4072V18.4637C24.6973 17.3928 25.5521 16.5201 26.6011 16.5201H28.505V14.5766C28.505 13.5057 29.3599 12.6331 30.4089 12.6331H32.3128C33.3618 12.6331 34.2167 13.5057 34.2167 14.5766V16.5201H36.1205C37.1696 16.5201 38.0244 17.3928 38.0244 18.4637V20.4072C38.0244 21.4781 37.1696 22.3508 36.1205 22.3508H34.2167V24.2943C34.2167 25.3652 33.3618 26.2379 32.3128 26.2379ZM26.6011 18.4637V20.4072H29.457C29.7094 20.4072 29.9516 20.5096 30.1301 20.6919C30.3086 20.8741 30.4089 21.1213 30.4089 21.379V24.2943H32.3128V21.379C32.3128 21.1213 32.4131 20.8741 32.5916 20.6919C32.7701 20.5096 33.0123 20.4072 33.2647 20.4072H36.1205V18.4637H33.2647C33.0123 18.4637 32.7701 18.3613 32.5916 18.1791C32.4131 17.9968 32.3128 17.7496 32.3128 17.4919V14.5766H30.4089V17.4919C30.4089 17.7496 30.3086 17.9968 30.1301 18.1791C29.9516 18.3613 29.7094 18.4637 29.457 18.4637H26.6011Z" fill="#F33C2A"/>
</svg>
