<svg width="55" height="57" viewBox="0 0 55 57" fill="none" xmlns="http://www.w3.org/2000/svg">
<rect width="54.8351" height="56.7853" transform="translate(0.0810547)" fill="white"/>
<path d="M49.5925 23.838V19.4016C49.5925 19.0822 49.4669 18.7864 49.2612 18.5617L46.2339 15.4266L44.6002 11.3334C44.486 11.0376 44.2575 10.8128 43.9833 10.6945L40.0306 9.00281L36.9804 5.85596C36.8741 5.74578 36.7475 5.65869 36.6083 5.59978C36.469 5.54087 36.3198 5.51132 36.1693 5.51288H31.8853L27.9326 3.82115C27.647 3.70285 27.3386 3.70285 27.053 3.82115L23.1003 5.51288H18.8163C18.5079 5.51288 18.2223 5.64301 18.0052 5.85596L14.9779 8.99098L11.0252 10.6945C10.7396 10.8128 10.5225 11.0494 10.4083 11.3334L8.77464 15.4266L5.73586 18.5735C5.62946 18.6836 5.54536 18.8147 5.48847 18.9589C5.43159 19.1031 5.40306 19.2577 5.40456 19.4134V23.8498L3.75951 27.9431C3.64527 28.2388 3.64527 28.5582 3.75951 28.854L5.40456 32.9473V37.3836C5.40456 37.703 5.53022 37.9988 5.73586 38.2236L8.76321 41.3586L10.3968 45.4519C10.5111 45.7476 10.7396 45.9724 11.0137 46.0907L14.9664 47.7824L17.9938 50.9175C18.2108 51.1422 18.4964 51.2605 18.8049 51.2605H23.0889L27.0416 52.9523C27.1787 53.0114 27.3272 53.0469 27.4757 53.0469C27.6242 53.0469 27.7727 53.0114 27.9098 52.9523L31.8625 51.2605H36.1465C36.4549 51.2605 36.7405 51.1304 36.9576 50.9175L39.9849 47.7824L43.9376 46.0907C44.2232 45.9724 44.4403 45.7358 44.5545 45.4519L46.1882 41.3586L49.2155 38.2236C49.3219 38.1134 49.406 37.9824 49.4629 37.8382C49.5198 37.6939 49.5483 37.5394 49.5468 37.3836V32.9473L51.1919 28.854C51.3061 28.5582 51.3061 28.2388 51.1919 27.9431L49.5925 23.838ZM47.3877 32.2493C47.3306 32.3913 47.2963 32.545 47.2963 32.6988V36.8749L44.4403 39.8325C44.3375 39.939 44.2461 40.0691 44.189 40.2111L42.6467 44.0796L38.9225 45.6885C38.7854 45.7476 38.6598 45.8304 38.5569 45.9487L35.701 48.9063H31.6683C31.5198 48.9063 31.3713 48.9418 31.2342 49.001L27.4985 50.598L23.7629 49.001C23.6256 48.9402 23.4781 48.908 23.3288 48.9063H19.2961L16.4401 45.9487C16.3373 45.8423 16.2116 45.7476 16.0746 45.6885L12.3389 44.0914L10.7967 40.2229C10.7413 40.0788 10.6555 39.9494 10.5454 39.8443L7.68936 36.8868V32.7107C7.68936 32.5569 7.65509 32.4031 7.59797 32.2611L6.05573 28.3926L7.59797 24.536C7.65509 24.394 7.68936 24.2402 7.68936 24.0864V19.9103L10.5454 16.9528C10.6482 16.8463 10.7396 16.7161 10.7967 16.5742L12.3389 12.7057L16.0746 11.0968C16.2116 11.0376 16.3373 10.9548 16.4401 10.8365L19.2961 7.87893H23.3288C23.4773 7.87893 23.6258 7.84344 23.7629 7.78429L27.4985 6.1872L31.2342 7.78429C31.3713 7.84344 31.5198 7.87893 31.6683 7.87893H35.701L38.5569 10.8365C38.6598 10.943 38.7854 11.0376 38.9225 11.0968L42.6582 12.6939L44.2004 16.5624C44.2575 16.7043 44.3375 16.8344 44.4517 16.9409L47.3077 19.8985V24.0746C47.3077 24.2284 47.342 24.3822 47.3991 24.5241L48.9413 28.3926L47.3877 32.2493Z" fill="#F33C2A"/>
<path d="M21.0324 27.6118C22.4947 27.6118 23.957 27.0321 25.0765 25.8846C26.1465 24.7748 26.7475 23.2707 26.7475 21.7026C26.7475 20.1344 26.1465 18.6303 25.0765 17.5206C24.0027 16.4085 22.5633 15.7933 21.0324 15.7933C19.5016 15.7933 18.0736 16.4085 16.9884 17.5206C15.9184 18.6303 15.3174 20.1344 15.3174 21.7026C15.3174 23.2707 15.9184 24.7748 16.9884 25.8846C18.1079 27.0321 19.5702 27.6118 21.0324 27.6118ZM18.6106 19.1886C19.2617 18.5143 20.1185 18.1476 21.0324 18.1476C21.9464 18.1476 22.8032 18.5143 23.4543 19.1886C24.7909 20.5728 24.7909 22.8205 23.4543 24.2047C22.1177 25.5888 19.9472 25.5888 18.6106 24.2047C17.9688 23.5392 17.6083 22.6371 17.6083 21.6966C17.6083 20.7561 17.9688 19.8541 18.6106 19.1886ZM29.9203 30.9006C28.8503 32.0103 28.2493 33.5144 28.2493 35.0826C28.2493 36.6508 28.8503 38.1549 29.9203 39.2646C30.9942 40.3766 32.4336 40.9918 33.9644 40.9918C35.4952 40.9918 36.9232 40.3766 38.0085 39.2646C40.2362 36.9577 40.2362 33.2075 38.0085 30.9006C35.7808 28.5937 32.148 28.5937 29.9203 30.9006ZM36.3863 37.5965C35.0954 38.9333 32.8334 38.9333 31.5425 37.5965C31.0638 37.1002 30.7379 36.4681 30.6059 35.78C30.4739 35.092 30.5418 34.3789 30.8009 33.7308C31.0601 33.0826 31.4989 32.5286 32.0619 32.1385C32.625 31.7485 33.287 31.54 33.9644 31.5394C34.844 31.5394 35.7237 31.8825 36.3863 32.5805C37.0281 33.2459 37.3886 34.148 37.3886 35.0885C37.3886 36.029 37.0281 36.9311 36.3863 37.5965ZM37.9971 17.5206C37.8914 17.4109 37.7658 17.3239 37.6276 17.2645C37.4894 17.2051 37.3413 17.1746 37.1917 17.1746C37.042 17.1746 36.8939 17.2051 36.7557 17.2645C36.6175 17.3239 36.492 17.4109 36.3863 17.5206L16.9998 37.5965C16.8404 37.7617 16.732 37.9723 16.6883 38.2014C16.6447 38.4306 16.6678 38.668 16.7547 38.8835C16.8416 39.099 16.9884 39.2829 17.1765 39.4119C17.3645 39.5408 17.5854 39.6089 17.8109 39.6077C18.1079 39.6077 18.3935 39.4894 18.622 39.2646L38.0085 19.1886C38.4426 18.7272 38.4426 17.9819 37.9971 17.5206Z" fill="#F33C2A"/>
</svg>
