<svg width="21" height="21" viewBox="0 0 21 21" fill="none" xmlns="http://www.w3.org/2000/svg">
<g clip-path="url(#clip0_14_7364)">
<path d="M20.3997 2.87089C20.0908 2.56143 19.5895 2.56089 19.2806 2.86958L9.78574 12.3393L6.36003 8.6187C6.06402 8.29738 5.56355 8.27654 5.2417 8.57251C4.9201 8.86852 4.89951 9.36924 5.19552 9.69084L9.1792 14.0172C9.25137 14.0957 9.33866 14.1587 9.43581 14.2025C9.53297 14.2464 9.63799 14.2701 9.74456 14.2723C9.75034 14.2726 9.75592 14.2726 9.76146 14.2726C9.9709 14.2725 10.1718 14.1895 10.3202 14.0417L20.3981 3.99025C20.7078 3.6816 20.7084 3.18035 20.3997 2.87089Z" fill="#88DFFF"/>
<path d="M20.2085 9.70852C19.7714 9.70852 19.4171 10.0628 19.4171 10.5C19.4171 15.4171 15.4171 19.4171 10.5 19.4171C5.58321 19.4171 1.58292 15.4171 1.58292 10.5C1.58292 5.58321 5.58321 1.58292 10.5 1.58292C10.9371 1.58292 11.2915 1.22862 11.2915 0.791479C11.2915 0.354293 10.9371 0 10.5 0C4.71023 0 0 4.71023 0 10.5C0 16.2895 4.71023 21 10.5 21C16.2895 21 21 16.2895 21 10.5C21 10.0629 20.6457 9.70852 20.2085 9.70852Z" fill="#88DFFF"/>
</g>
<defs>
<clipPath id="clip0_14_7364">
<rect width="21" height="21" fill="white"/>
</clipPath>
</defs>
</svg>
