<svg width="60" height="60" viewBox="0 0 60 60" fill="none" xmlns="http://www.w3.org/2000/svg">
<path d="M57.4821 45.745L45.7418 37.9156C44.2519 36.93 42.2548 37.2543 41.1534 38.6609L37.7336 43.0579C37.5209 43.3382 37.2143 43.5324 36.8701 43.6048C36.5258 43.6773 36.1669 43.6231 35.8594 43.4523L35.2088 43.0937C33.0523 41.9182 30.3691 40.4549 24.963 35.0468C19.5568 29.6387 18.0905 26.9535 16.9151 24.8009L16.5584 24.1504C16.3852 23.843 16.329 23.4833 16.4 23.1376C16.4711 22.792 16.6646 22.4837 16.945 22.2694L21.3391 18.8506C22.745 17.749 23.0698 15.7525 22.0853 14.2622L14.2559 2.52194C13.247 1.00431 11.2228 0.548729 9.66089 1.48764L4.75155 4.43669C3.20899 5.34352 2.07733 6.81223 1.59374 8.53501C-0.174106 14.9764 1.15583 26.0932 17.5319 42.4711C30.5587 55.4969 40.2565 58.9998 46.9221 58.9998C48.4562 59.0064 49.9842 58.8068 51.4651 58.4064C53.1882 57.9234 54.6571 56.7916 55.5634 55.2486L58.5154 50.3422C59.4557 48.7799 59.0004 46.7545 57.4821 45.745ZM56.8499 49.3504L53.9047 54.2597C53.2538 55.3735 52.1974 56.1923 50.9565 56.5448C45.0101 58.1774 34.6212 56.8251 18.8995 41.1035C3.17785 25.3818 1.82572 14.9938 3.45832 9.04643C3.81132 7.80401 4.63113 6.74624 5.7462 6.09444L10.6555 3.14924C11.3332 2.74146 12.2118 2.93912 12.6496 3.59769L16.9026 9.98297L20.4723 15.3369C20.8998 15.9834 20.7593 16.8498 20.1495 17.3281L15.7544 20.7469C14.4169 21.7697 14.0349 23.6202 14.8584 25.0889L15.2074 25.723C16.4427 27.9887 17.9786 30.8072 23.5858 36.4135C29.193 42.0197 32.0107 43.5557 34.2754 44.7909L34.9104 45.1408C36.3789 45.9642 38.2296 45.5824 39.2523 44.2448L42.6711 39.8498C43.1496 39.2402 44.0157 39.0999 44.6623 39.5269L56.4016 47.3563C57.0606 47.7938 57.2582 48.6728 56.8499 49.3504ZM33.8672 10.6703C42.9382 10.6804 50.2891 18.0314 50.2993 27.1024C50.2993 27.6363 50.732 28.069 51.2659 28.069C51.7997 28.069 52.2324 27.6363 52.2324 27.1024C52.2212 16.9642 44.0055 8.7483 33.8672 8.7372C33.3334 8.7372 32.9007 9.1699 32.9007 9.70375C32.9007 10.2376 33.3334 10.6703 33.8672 10.6703Z" fill="#F33C2A" stroke="#F33C2A"/>
<path d="M33.8669 16.4697C39.7363 16.4766 44.4926 21.233 44.4995 27.1023C44.4995 27.3586 44.6013 27.6045 44.7826 27.7857C44.9639 27.967 45.2097 28.0688 45.4661 28.0688C45.7224 28.0688 45.9682 27.967 46.1495 27.7857C46.3308 27.6045 46.4326 27.3586 46.4326 27.1023C46.4246 20.1657 40.8034 14.5446 33.8669 14.5366C33.3331 14.5366 32.9004 14.9693 32.9004 15.5032C32.9004 16.037 33.3331 16.4697 33.8669 16.4697Z" fill="#F33C2A" stroke="#F33C2A"/>
<path d="M33.8669 22.2693C36.5347 22.2725 38.6967 24.4344 38.6999 27.1023C38.6999 27.3586 38.8018 27.6045 38.983 27.7857C39.1643 27.967 39.4102 28.0688 39.6665 28.0688C39.9228 28.0688 40.1687 27.967 40.35 27.7857C40.5312 27.6045 40.6331 27.3586 40.6331 27.1023C40.6287 23.3672 37.602 20.3404 33.8669 20.3362C33.3331 20.3362 32.9004 20.7689 32.9004 21.3027C32.9004 21.8366 33.3331 22.2693 33.8669 22.2693Z" fill="#F33C2A" stroke="#F33C2A"/>
</svg>
