<svg width="52" height="52" viewBox="0 0 52 52" fill="none" xmlns="http://www.w3.org/2000/svg">
<g clip-path="url(#clip0_1_8700)">
<path d="M50.7 22.6175C50.6984 22.6163 50.6972 22.6147 50.696 22.6135L29.4841 1.40258C28.5799 0.497859 27.3778 0 26.0993 0C24.8206 0 23.6185 0.497859 22.714 1.40248L1.51311 22.6027C1.506 22.6098 1.49848 22.6174 1.49178 22.6246C-0.364986 24.4919 -0.361736 27.5217 1.50092 29.3844C2.35181 30.2358 3.47529 30.7285 4.67708 30.7804C4.72624 30.7852 4.7755 30.7876 4.82506 30.7876H5.67006V46.3973C5.67006 49.4866 8.18373 51.9999 11.2731 51.9999H19.5718C20.4133 51.9999 21.0953 51.3175 21.0953 50.4765V38.2383C21.0953 36.8287 22.2422 35.6822 23.6518 35.6822H28.5466C29.9563 35.6822 31.1027 36.8288 31.1027 38.2383V50.4766C31.1027 51.3176 31.7847 52 32.6262 52H40.9249C44.0147 52 46.5279 49.4867 46.5279 46.3974V30.7877H47.3119C48.5902 30.7877 49.7923 30.2897 50.6972 29.3848C52.5619 27.5194 52.5626 24.484 50.6999 22.6174L50.7 22.6175ZM48.5425 27.2306C48.3813 27.3928 48.1895 27.5214 47.9783 27.609C47.7671 27.6966 47.5406 27.7414 47.3119 27.7409H45.0044C44.163 27.7409 43.481 28.4228 43.481 29.2643V46.3974C43.481 47.8066 42.3344 48.9531 40.9248 48.9531H34.1496V38.2383C34.1496 35.149 31.6362 32.6353 28.5465 32.6353H23.6519C20.5622 32.6353 18.0485 35.149 18.0485 38.2383V48.9531H11.2733C9.86398 48.9531 8.71704 47.8065 8.71704 46.3974V29.2642C8.71704 28.4227 8.03504 27.7408 7.1936 27.7408H4.92581C4.90204 27.7391 4.87823 27.738 4.85441 27.7375C4.40053 27.7296 3.97488 27.5495 3.65597 27.2301C2.97754 26.5517 2.97754 25.4477 3.65597 24.7689C3.65628 24.7689 3.65628 24.7685 3.65669 24.768L3.6579 24.7668L24.8689 3.55672C25.03 3.39453 25.2218 3.26594 25.433 3.17842C25.6442 3.0909 25.8706 3.04619 26.0993 3.04688C26.5638 3.04688 27.0006 3.22776 27.3295 3.55672L48.5357 24.7626L48.5457 24.7721C49.2206 25.4518 49.2193 26.5535 48.5425 27.2306Z" fill="#F33C2A"/>
</g>
<defs>
<clipPath id="clip0_1_8700">
<rect width="52" height="52" fill="white"/>
</clipPath>
</defs>
</svg>
