<svg width="65" height="65" viewBox="0 0 65 65" fill="none" xmlns="http://www.w3.org/2000/svg">
<g clip-path="url(#clip0_1_8703)">
<path d="M61.6666 10.8333H3.33341C1.49995 10.8333 0 12.3332 0 14.1665V50.8333C0 52.6665 1.49995 54.1667 3.33341 54.1667H61.6667C63.4999 54.1667 65.0001 52.6667 65.0001 50.8333V14.1665C65 12.3332 63.5 10.8333 61.6666 10.8333ZM60.4157 13.3331L34.4175 32.8333C33.9501 33.1891 33.2325 33.4116 32.4999 33.4083C31.7674 33.4116 31.0499 33.1891 30.5824 32.8333L4.58415 13.3331H60.4157ZM46.5283 34.12L60.695 51.6201C60.7092 51.6376 60.7266 51.651 60.7417 51.6668H4.25826C4.27324 51.6502 4.29076 51.6376 4.30498 51.6201L18.4717 34.12C18.575 33.9924 18.6521 33.8456 18.6987 33.6882C18.7452 33.5307 18.7603 33.3656 18.7431 33.2023C18.7258 33.039 18.6765 32.8807 18.5981 32.7364C18.5196 32.5922 18.4135 32.4648 18.2858 32.3616C17.7492 31.9275 16.9625 32.0098 16.5283 32.5466L2.49996 49.8758V14.8956L29.0832 34.8331C30.0824 35.5773 31.2981 35.9048 32.4997 35.9081C33.6997 35.9056 34.9164 35.5781 35.9163 34.8331L62.4995 14.8956V49.8755L48.4716 32.5466C48.0374 32.0099 47.2499 31.9274 46.7141 32.3616C46.1765 32.7956 46.094 33.5834 46.5283 34.12Z" fill="#F33C2A"/>
</g>
<defs>
<clipPath id="clip0_1_8703">
<rect width="65" height="65" fill="white"/>
</clipPath>
</defs>
</svg>
