<svg width="40" height="35" viewBox="0 0 40 35" fill="none" xmlns="http://www.w3.org/2000/svg">
<path fill-rule="evenodd" clip-rule="evenodd" d="M6.05679 29.2115C5.89538 29.2115 5.74059 29.1473 5.62646 29.033C5.51234 28.9188 5.44823 28.7638 5.44823 28.6022V23.0566H3.41698C1.81709 23.0566 0.515625 21.7536 0.515625 20.1522V2.90438C0.515625 1.30303 1.81709 0.000105783 3.41677 0H29.5396C31.1394 0 32.441 1.30293 32.441 2.90438V20.1522C32.441 21.7537 31.1394 23.0566 29.5396 23.0566H12.8039L6.47494 29.045C6.36198 29.1521 6.21233 29.2117 6.05679 29.2115ZM3.41698 1.21862C2.48843 1.21862 1.73298 1.97486 1.73298 2.90438V20.1522C1.73298 21.0818 2.48843 21.8379 3.41698 21.8379H6.0569C6.21833 21.8379 6.37315 21.9021 6.4873 22.0164C6.60145 22.1307 6.66558 22.2857 6.66558 22.4473V27.1879L12.1437 22.0044C12.2567 21.8975 12.4063 21.838 12.5618 21.8379H29.5397C30.4683 21.8379 31.2237 21.0817 31.2237 20.1522V2.90438C31.2237 1.97486 30.4683 1.21862 29.5397 1.21862H3.41698Z" fill="white"/>
<path fill-rule="evenodd" clip-rule="evenodd" d="M34.6622 34.2267C34.5066 34.2268 34.357 34.1672 34.2439 34.0602L28.8809 28.9858H14.6663C13.2542 28.9858 12.1055 27.8358 12.1055 26.4223V22.447C12.1055 22.2854 12.1696 22.1305 12.2837 22.0162C12.3979 21.9019 12.5527 21.8377 12.7141 21.8377C12.8756 21.8377 13.0304 21.9019 13.1445 22.0162C13.2587 22.1305 13.3228 22.2854 13.3228 22.447V26.4223C13.3228 27.1639 13.9256 27.7672 14.6663 27.7672H29.123C29.2785 27.7672 29.4282 27.8267 29.5412 27.9337L34.0534 32.2031V28.3765C34.0534 28.2149 34.1175 28.0599 34.2317 27.9456C34.3458 27.8314 34.5007 27.7672 34.6621 27.7672H36.91C37.6508 27.7672 38.2535 27.1639 38.2535 26.4223V11.7357C38.2535 10.994 37.6508 10.3907 36.91 10.3907H31.8325C31.6711 10.3907 31.5162 10.3265 31.4021 10.2123C31.2879 10.098 31.2238 9.94303 31.2238 9.78143C31.2238 9.61983 31.2879 9.46485 31.4021 9.35058C31.5162 9.23631 31.6711 9.17212 31.8325 9.17212H36.9099C38.322 9.17212 39.4707 10.3221 39.4707 11.7357V26.4223C39.4707 27.8358 38.322 28.9858 36.9099 28.9858H35.2707V33.6174C35.2707 33.779 35.2066 33.9339 35.0925 34.0482C34.9783 34.1624 34.8236 34.2267 34.6622 34.2267Z" fill="white"/>
<path fill-rule="evenodd" clip-rule="evenodd" d="M22.0069 19.1653H17.9407C17.7793 19.1653 17.6245 19.1011 17.5103 18.9869C17.3962 18.8726 17.332 18.7176 17.332 18.556C17.332 18.3944 17.3962 18.2394 17.5103 18.1252C17.6245 18.0109 17.7793 17.9467 17.9407 17.9467H22.0069C22.9055 17.9467 23.6368 17.2148 23.6368 16.3151V15.2328C23.6368 15.0712 23.7009 14.9163 23.8151 14.802C23.9292 14.6877 24.084 14.6235 24.2455 14.6235C24.4069 14.6235 24.5617 14.6877 24.6759 14.802C24.79 14.9163 24.8541 15.0712 24.8541 15.2328V16.3151C24.854 17.8867 23.5769 19.1653 22.0069 19.1653Z" fill="white"/>
<path fill-rule="evenodd" clip-rule="evenodd" d="M17.2706 20.5675H14.2247C13.5196 20.5675 12.946 19.9934 12.946 19.2875V17.8238C12.946 17.1181 13.5196 16.5439 14.2247 16.5439H17.2706C17.9758 16.5439 18.5494 17.1181 18.5494 17.8238V19.2875C18.5494 19.9932 17.9757 20.5675 17.2706 20.5675ZM14.2247 17.7625C14.2086 17.7631 14.1934 17.7697 14.182 17.7811C14.1706 17.7925 14.1639 17.8078 14.1633 17.8238V19.2875C14.1633 19.3196 14.1926 19.3489 14.2247 19.3489H17.2706C17.2867 19.3483 17.302 19.3417 17.3134 19.3303C17.3248 19.3189 17.3314 19.3036 17.332 19.2875V17.8238C17.3314 17.8078 17.3248 17.7925 17.3134 17.7811C17.302 17.7697 17.2867 17.7631 17.2706 17.7625H14.2247ZM23.6667 10.994C23.5053 10.994 23.3504 10.9298 23.2363 10.8155C23.1221 10.7012 23.058 10.5463 23.058 10.3847V9.25659C23.058 6.1965 20.571 3.7069 17.5141 3.7069H15.4429C12.386 3.7069 9.89899 6.1965 9.89899 9.25659V10.3847C9.89899 10.5463 9.83486 10.7012 9.72072 10.8155C9.60657 10.9298 9.45175 10.994 9.29032 10.994C9.12889 10.994 8.97407 10.9298 8.85992 10.8155C8.74577 10.7012 8.68164 10.5463 8.68164 10.3847V9.25659C8.68164 7.45553 9.3868 5.75772 10.6672 4.47594C11.9477 3.19417 13.6437 2.48828 15.4428 2.48828H17.514C19.3132 2.48828 21.0091 3.19417 22.2896 4.47594C23.57 5.75772 24.2752 7.45553 24.2752 9.25659V10.3847C24.2752 10.4647 24.2595 10.5439 24.2289 10.6178C24.1983 10.6917 24.1535 10.7589 24.097 10.8155C24.0405 10.8721 23.9734 10.917 23.8996 10.9476C23.8258 10.9782 23.7466 10.994 23.6667 10.994Z" fill="white"/>
<path fill-rule="evenodd" clip-rule="evenodd" d="M8.71201 15.8419H7.56979C6.28534 15.8419 5.24023 14.7957 5.24023 13.5099V12.1074C5.24023 10.8215 6.28523 9.77545 7.56979 9.77545H9.29068C9.45211 9.77545 9.60693 9.83964 9.72108 9.95391C9.83522 10.0682 9.89935 10.2232 9.89935 10.3848V14.6533C9.89946 15.3087 9.36676 15.8419 8.71201 15.8419ZM7.56979 10.994C6.95657 10.994 6.45759 11.4934 6.45759 12.1073V13.5098C6.45759 14.1238 6.95647 14.6232 7.56979 14.6232H8.682V10.9939H7.56979V10.994ZM25.3879 15.8419H24.2457C23.591 15.8419 23.0583 15.3086 23.0583 14.6533V10.3848C23.0583 10.2232 23.1224 10.0682 23.2365 9.95391C23.3507 9.83964 23.5055 9.77545 23.6669 9.77545H25.3879C26.6724 9.77545 27.7175 10.8215 27.7175 12.1074V13.5099C27.7175 14.7957 26.6725 15.8419 25.3879 15.8419ZM24.2756 14.6233H25.3879C26.0012 14.6233 26.5001 14.1239 26.5001 13.5099V12.1074C26.5001 11.4935 26.0012 10.9941 25.3879 10.9941H24.2756V14.6233ZM21.1692 8.05394C21.0509 8.05397 20.9352 8.01951 20.8361 7.95477C20.7371 7.89004 20.659 7.79783 20.6115 7.68941C20.0817 6.48094 18.7085 5.66906 17.1943 5.66906C17.0328 5.66906 16.878 5.60486 16.7639 5.4906C16.6497 5.37633 16.5856 5.22135 16.5856 5.05975C16.5856 4.89815 16.6497 4.74317 16.7639 4.6289C16.878 4.51463 17.0328 4.45044 17.1943 4.45044C18.1824 4.45044 19.135 4.71331 19.9488 5.21081C20.7579 5.70524 21.3726 6.39293 21.7262 7.19974C21.7668 7.29245 21.7837 7.39384 21.7754 7.49475C21.7671 7.59566 21.7338 7.69289 21.6785 7.77768C21.6232 7.86247 21.5477 7.93212 21.4588 7.98036C21.3698 8.02859 21.2703 8.05388 21.1692 8.05394ZM36.5358 20.0288C36.3744 20.0288 36.2195 19.9646 36.1054 19.8503C35.9912 19.736 35.9271 19.5811 35.9271 19.4195V13.4217C35.9271 13.2601 35.9912 13.1051 36.1054 12.9908C36.2195 12.8766 36.3744 12.8124 36.5358 12.8124C36.6972 12.8124 36.852 12.8766 36.9662 12.9908C37.0803 13.1051 37.1445 13.2601 37.1445 13.4217V19.4195C37.1445 19.4995 37.1287 19.5787 37.0982 19.6527C37.0676 19.7266 37.0227 19.7938 36.9662 19.8503C36.9097 19.9069 36.8426 19.9518 36.7687 19.9824C36.6949 20.013 36.6157 20.0288 36.5358 20.0288Z" fill="white"/>
</svg>
