<svg width="238" height="27" viewBox="0 0 238 27" fill="none" xmlns="http://www.w3.org/2000/svg">
<path d="M233.194 25.1737V10.1384H232.93L223.038 25.1737H218.026V6.70933H221.851V21.7446H222.115L232.007 6.70933H237.018V25.1737H233.194ZM227.259 5.25856C225.412 5.25856 224.093 4.8629 223.302 4.07157C222.511 3.28024 222.115 2.22513 222.115 0.90625H225.148C225.148 1.69758 225.351 2.26909 225.755 2.6208C226.159 2.9725 226.661 3.14835 227.259 3.14835C227.856 3.14835 228.358 2.9725 228.762 2.6208C229.167 2.26909 229.369 1.69758 229.369 0.90625H232.402C232.402 2.22513 232.007 3.28024 231.215 4.07157C230.424 4.8629 229.105 5.25856 227.259 5.25856Z" fill="#349AC0"/>
<path d="M204.299 8.02832C203.402 8.02832 202.558 8.18659 201.767 8.50312C200.993 8.81965 200.316 9.30324 199.736 9.95389C199.155 10.6045 198.689 11.431 198.338 12.4334C198.004 13.4182 197.837 14.5876 197.837 15.9416C197.837 17.2957 198.004 18.4739 198.338 19.4762C198.689 20.461 199.155 21.2787 199.736 21.9293C200.316 22.58 200.993 23.0636 201.767 23.3801C202.558 23.6966 203.402 23.8549 204.299 23.8549C205.196 23.8549 206.031 23.6966 206.805 23.3801C207.596 23.0636 208.282 22.58 208.862 21.9293C209.443 21.2787 209.9 20.461 210.234 19.4762C210.586 18.4739 210.762 17.2957 210.762 15.9416C210.762 14.5876 210.586 13.4182 210.234 12.4334C209.9 11.431 209.443 10.6045 208.862 9.95389C208.282 9.30324 207.596 8.81965 206.805 8.50312C206.031 8.18659 205.196 8.02832 204.299 8.02832ZM204.299 6.18188C205.882 6.18188 207.315 6.39291 208.599 6.81495C209.9 7.23699 211.008 7.86126 211.922 8.68776C212.854 9.51426 213.575 10.5342 214.085 11.7476C214.595 12.9609 214.85 14.359 214.85 15.9416C214.85 17.5243 214.595 18.9223 214.085 20.1357C213.575 21.349 212.854 22.369 211.922 23.1955C211.008 24.022 209.9 24.6462 208.599 25.0683C207.315 25.4903 205.882 25.7013 204.299 25.7013C202.716 25.7013 201.274 25.4903 199.973 25.0683C198.672 24.6462 197.555 24.022 196.623 23.1955C195.709 22.369 194.997 21.349 194.487 20.1357C193.994 18.9223 193.748 17.5243 193.748 15.9416C193.748 14.359 193.994 12.9609 194.487 11.7476C194.997 10.5342 195.709 9.51426 196.623 8.68776C197.555 7.86126 198.672 7.23699 199.973 6.81495C201.274 6.39291 202.716 6.18188 204.299 6.18188Z" fill="#349AC0"/>
<path d="M177.8 22.5358H178.064L184.922 6.70923H190.593V25.1736H186.768V10.4021H186.505L180.174 25.1736H175.69L169.359 10.4021H169.095V25.1736H165.271V6.70923H170.942L177.8 22.5358Z" fill="#349AC0"/>
<path d="M148.512 18.7111H156.689L152.733 8.95133H152.469L148.512 18.7111ZM155.634 6.70923L163.152 25.1736H159.354L157.613 20.6894H147.589L145.848 25.1736H142.05L149.567 6.70923H155.634Z" fill="#292929"/>
<path d="M139.944 6.70923V25.1736H136.119V8.68755H125.304V25.1736H121.479V6.70923H139.944Z" fill="#292929"/>
<path d="M100.64 8.68755H93.518V25.1736H89.6933V8.68755H82.5713V6.70923H100.64V8.68755Z" fill="#292929"/>
<path d="M73.8657 23.723C75.0615 23.723 76.2045 23.5208 77.2948 23.1163C78.4027 22.6943 79.4578 22.0173 80.4601 21.0853L81.779 22.6679C80.7767 23.5999 79.5633 24.3385 78.1389 24.8836C76.7145 25.4288 75.2022 25.7013 73.6019 25.7013C71.9489 25.7013 70.4542 25.4903 69.1177 25.0683C67.7989 24.6462 66.6646 24.022 65.715 23.1955C64.783 22.369 64.062 21.349 63.5521 20.1357C63.0421 18.9223 62.7871 17.5243 62.7871 15.9416C62.7871 14.359 63.0333 12.9609 63.5257 11.7476C64.0357 10.5342 64.7478 9.51426 65.6623 8.68776C66.5943 7.86126 67.7109 7.23699 69.0122 6.81495C70.3135 6.39291 71.7555 6.18188 73.3382 6.18188C74.9384 6.18188 76.4507 6.45445 77.8751 6.99959C79.2995 7.54473 80.5129 8.2833 81.5152 9.21531L80.1964 10.798C79.194 9.86596 78.1389 9.19773 77.031 8.79327C75.9408 8.37123 74.7977 8.16021 73.6019 8.16021C72.6523 8.16021 71.7643 8.31847 70.9378 8.63501C70.1113 8.93395 69.3991 9.39996 68.8012 10.033C68.2033 10.6661 67.7285 11.475 67.3768 12.4598C67.0427 13.4269 66.8756 14.5876 66.8756 15.9416C66.8756 17.2957 67.0427 18.4651 67.3768 19.4498C67.7285 20.417 68.2121 21.2171 68.8276 21.8502C69.4607 22.4833 70.1992 22.9581 71.0433 23.2746C71.905 23.5735 72.8458 23.723 73.8657 23.723Z" fill="#292929"/>
<path d="M54.6256 9.06789C54.3816 7.58625 53.9155 7.68873 52.2708 7.67805L51.6558 7.67378C50.6773 7.66524 49.6451 7.6567 48.6421 7.68873C48.3713 7.37916 47.5343 6.05551 47.5343 6.05551C45.5894 2.93211 42.0242 1 38.2247 1H18.1684C14.3665 1 10.8037 2.93211 8.85883 6.05551C8.85883 6.05551 8.02182 7.37916 7.75096 7.68873C6.74802 7.65884 5.71579 7.66738 4.73726 7.67378L4.12231 7.67805C2.47759 7.68873 2.01394 7.58625 1.76747 9.06789C1.46732 10.889 2.88267 11.2455 3.92221 11.5658C4.31509 11.6874 4.88855 11.8625 5.28875 11.9927C2.48491 18.2075 4.4249 21 4.4249 21C4.4371 20.4278 4.43467 19.8578 4.46639 19.2857C4.72749 14.5547 10.6792 6.30529 10.6792 6.30529L10.6524 6.33091C12.3362 3.95261 15.1693 2.49231 18.1708 2.49231H38.2272C41.2287 2.49231 44.0594 3.95261 45.7456 6.33091L45.7187 6.30529C45.7187 6.30529 51.668 14.5547 51.9316 19.2857C51.9633 19.8557 51.9609 20.4278 51.9731 21C51.9731 21 53.9131 18.2075 51.1092 11.9927C51.5094 11.8625 52.0829 11.6874 52.4758 11.5658C53.5153 11.2455 54.9307 10.889 54.6305 9.06789H54.6256Z" fill="#292929"/>
<path d="M53.5962 18.5081C54.7191 19.992 54.2919 22.1011 52.046 22.5573C46.2149 23.7434 40.8023 16.3641 35.2223 15.1915C31.4349 14.3972 29.3161 16.2353 28.1989 17.95C27.0789 16.2353 24.9629 14.3945 21.1756 15.1915C15.5955 16.3614 10.183 23.7434 4.35181 22.5573C2.10884 22.1011 1.68161 19.9893 2.80165 18.5081C0.0246343 18.7926 0.0477279 23.4589 2.80165 25.2407C6.99315 27.9509 13.2429 27.1754 18.1301 25.297C23.3031 23.3087 26.1176 21.28 28.1989 20.6441C30.2802 21.28 33.0948 23.306 38.2678 25.297C43.155 27.1754 49.4018 27.9509 53.5962 25.2407C56.3501 23.4616 56.3732 18.7952 53.5962 18.5081Z" fill="black"/>
<path d="M106.803 8.69565V14.6957H116.377V16.6522H106.803V23.0435H119V25H103V6.73913H119V8.69565H106.803ZM109.951 2.95652C109.951 3.47826 109.767 3.93913 109.4 4.33913C109.05 4.72174 108.578 4.91304 107.984 4.91304C107.389 4.91304 106.908 4.72174 106.541 4.33913C106.191 3.93913 106.016 3.47826 106.016 2.95652C106.016 2.43478 106.191 1.98261 106.541 1.6C106.908 1.2 107.389 1 107.984 1C108.561 1 109.033 1.2 109.4 1.6C109.767 1.98261 109.951 2.43478 109.951 2.95652ZM115.984 2.95652C115.984 3.47826 115.8 3.93913 115.433 4.33913C115.083 4.72174 114.611 4.91304 114.016 4.91304C113.422 4.91304 112.941 4.72174 112.574 4.33913C112.224 3.93913 112.049 3.47826 112.049 2.95652C112.049 2.43478 112.224 1.98261 112.574 1.6C112.941 1.2 113.422 1 114.016 1C114.593 1 115.066 1.2 115.433 1.6C115.8 1.98261 115.984 2.43478 115.984 2.95652Z" fill="black"/>
</svg>
