<svg width="19" height="19" viewBox="0 0 19 19" fill="none" xmlns="http://www.w3.org/2000/svg">
<g clip-path="url(#clip0_1_7553)">
<path d="M18.525 8.26407C18.5244 8.26366 18.524 8.26307 18.5235 8.26262L10.773 0.51248C10.4427 0.18191 10.0034 0 9.53627 0C9.06906 0 8.62983 0.18191 8.29934 0.512443L0.552866 8.25869C0.550269 8.26129 0.547522 8.26404 0.545073 8.26667C-0.13336 8.94896 -0.132173 10.056 0.548413 10.7366C0.859315 11.0477 1.26982 11.2277 1.70893 11.2467C1.7269 11.2484 1.74489 11.2493 1.763 11.2493H2.07175V16.9529C2.07175 18.0817 2.99021 19 4.119 19H7.15125C7.4587 19 7.70789 18.7506 7.70789 18.4433V13.9717C7.70789 13.4566 8.12696 13.0377 8.64201 13.0377H10.4305C10.9456 13.0377 11.3645 13.4567 11.3645 13.9717V18.4434C11.3645 18.7507 11.6137 19 11.9211 19H14.9533C16.0823 19 17.0006 18.0817 17.0006 16.9529V11.2493H17.287C17.7541 11.2493 18.1933 11.0674 18.524 10.7367C19.2053 10.0552 19.2056 8.94607 18.525 8.26404L18.525 8.26407ZM17.7367 9.94965C17.6778 10.0089 17.6077 10.0559 17.5305 10.0879C17.4534 10.1199 17.3706 10.1363 17.287 10.1361H16.4439C16.1365 10.1361 15.8873 10.3852 15.8873 10.6927V16.9529C15.8873 17.4678 15.4683 17.8867 14.9533 17.8867H12.4777V13.9717C12.4777 12.8429 11.5594 11.9244 10.4305 11.9244H8.64204C7.5131 11.9244 6.59464 12.8429 6.59464 13.9717V17.8867H4.11908C3.60415 17.8867 3.18507 17.4678 3.18507 16.9529V10.6927C3.18507 10.3852 2.93588 10.1361 2.62843 10.1361H1.79982C1.79113 10.1354 1.78243 10.135 1.77373 10.1349C1.60789 10.132 1.45236 10.0662 1.33584 9.94947C1.08795 9.70158 1.08795 9.2982 1.33584 9.05016C1.33595 9.05016 1.33595 9.05001 1.3361 9.04986L1.33654 9.04942L9.08673 1.29957C9.14559 1.24031 9.21565 1.19332 9.29282 1.16135C9.36998 1.12937 9.45273 1.11303 9.53627 1.11328C9.70601 1.11328 9.86561 1.17937 9.98577 1.29957L17.7342 9.04786L17.7378 9.05135C17.9844 9.29968 17.984 9.70225 17.7367 9.94965Z" fill="#B3B3B3"/>
</g>
<defs>
<clipPath id="clip0_1_7553">
<rect width="19" height="19" fill="white"/>
</clipPath>
</defs>
</svg>
