<svg width="25" height="32" viewBox="0 0 25 32" fill="none" xmlns="http://www.w3.org/2000/svg">
<path d="M12.8026 2.80945C6.81 2.80945 1.95508 7.67236 1.95508 13.6683C1.95508 19.6642 12.8026 31.0149 12.8026 31.0149C12.8026 31.0149 23.6501 19.6671 23.6501 13.6683C23.6501 7.66943 18.7923 2.80945 12.8026 2.80945ZM12.8026 18.7215C10.0154 18.7215 7.75759 16.4613 7.75759 13.6712C7.75759 10.8811 10.0154 8.62093 12.8026 8.62093C15.5898 8.62093 17.8476 10.8811 17.8476 13.6712C17.8476 16.4613 15.5898 18.7215 12.8026 18.7215Z" fill="#263238" stroke="#263238" stroke-miterlimit="10"/>
<path d="M11.5214 1C5.52876 1 0.673828 5.86291 0.673828 11.8588C0.673828 17.8548 11.5214 29.2055 11.5214 29.2055C11.5214 29.2055 22.3689 17.8577 22.3689 11.8588C22.3689 5.85998 17.5111 1 11.5214 1ZM11.5214 16.912C8.73418 16.912 6.47635 14.6519 6.47635 11.8618C6.47635 9.07166 8.73418 6.81148 11.5214 6.81148C14.3086 6.81148 16.5664 9.07166 16.5664 11.8618C16.5664 14.6519 14.3086 16.912 11.5214 16.912Z" fill="#F33C2A" stroke="#263238" stroke-miterlimit="10"/>
</svg>
