<svg width="25" height="32" viewBox="0 0 25 32" fill="none" xmlns="http://www.w3.org/2000/svg">
<path d="M13.2997 2.80945C7.30707 2.80945 2.45215 7.67236 2.45215 13.6683C2.45215 19.6642 13.2997 31.0149 13.2997 31.0149C13.2997 31.0149 24.1472 19.6671 24.1472 13.6683C24.1472 7.66943 19.2894 2.80945 13.2997 2.80945ZM13.2997 18.7215C10.5125 18.7215 8.25466 16.4613 8.25466 13.6712C8.25466 10.8811 10.5125 8.62093 13.2997 8.62093C16.0869 8.62093 18.3447 10.8811 18.3447 13.6712C18.3447 16.4613 16.0869 18.7215 13.2997 18.7215Z" fill="#263238" stroke="#263238" stroke-miterlimit="10"/>
<path d="M12.0184 1C6.02583 1 1.1709 5.86291 1.1709 11.8588C1.1709 17.8548 12.0184 29.2055 12.0184 29.2055C12.0184 29.2055 22.866 17.8577 22.866 11.8588C22.866 5.85998 18.0081 1 12.0184 1ZM12.0184 16.912C9.23125 16.912 6.97342 14.6519 6.97342 11.8618C6.97342 9.07166 9.23125 6.81148 12.0184 6.81148C14.8056 6.81148 17.0635 9.07166 17.0635 11.8618C17.0635 14.6519 14.8056 16.912 12.0184 16.912Z" fill="white" stroke="#263238" stroke-miterlimit="10"/>
</svg>
