<svg width="34" height="44" viewBox="0 0 34 44" fill="none" xmlns="http://www.w3.org/2000/svg">
<path d="M17.4545 3.51746C9.11698 3.51746 2.3623 10.2832 2.3623 18.6254C2.3623 26.9676 17.4545 42.7598 17.4545 42.7598C17.4545 42.7598 32.5467 26.9716 32.5467 18.6254C32.5467 10.2792 25.788 3.51746 17.4545 3.51746ZM17.4545 25.6559C13.5767 25.6559 10.4354 22.5113 10.4354 18.6295C10.4354 14.7476 13.5767 11.603 17.4545 11.603C21.3324 11.603 24.4737 14.7476 24.4737 18.6295C24.4737 22.5113 21.3324 25.6559 17.4545 25.6559Z" fill="#263238" stroke="#263238" stroke-miterlimit="10"/>
<path d="M15.6723 1C7.33476 1 0.580078 7.76579 0.580078 16.1079C0.580078 24.4501 15.6723 40.2424 15.6723 40.2424C15.6723 40.2424 30.7645 24.4542 30.7645 16.1079C30.7645 7.76171 24.0058 1 15.6723 1ZM15.6723 23.1385C11.7945 23.1385 8.65315 19.9939 8.65315 16.112C8.65315 12.2301 11.7945 9.08554 15.6723 9.08554C19.5501 9.08554 22.6915 12.2301 22.6915 16.112C22.6915 19.9939 19.5501 23.1385 15.6723 23.1385Z" fill="#F33C2A" stroke="#263238" stroke-miterlimit="10"/>
</svg>
