<svg width="117" height="119" viewBox="0 0 117 119" fill="none" xmlns="http://www.w3.org/2000/svg">
<path d="M35.7279 38.9946V79.468M31.6805 38.9946V79.468M2 51.1366L10.0131 59.1497C10.3924 59.5292 10.6056 60.0438 10.6056 60.5804C10.6056 61.117 10.3924 61.6317 10.0131 62.0111L2.67456 69.3497M17.5148 39.6691C17.5148 39.6691 18.2568 43.0244 19.695 44.4625C19.8566 44.6515 20.0572 44.8032 20.2831 44.9073C20.5089 45.0113 20.7546 45.0652 21.0033 45.0652C21.252 45.0652 21.4977 45.0113 21.7235 44.9073C21.9494 44.8032 22.15 44.6515 22.3116 44.4625C22.4996 44.3006 22.6505 44.0999 22.7539 43.8743C22.8574 43.6487 22.9109 43.4034 22.9109 43.1552C22.9109 42.9071 22.8574 42.6618 22.7539 42.4362C22.6505 42.2106 22.4996 42.0099 22.3116 41.848C20.8728 40.4111 17.5148 39.6691 17.5148 39.6691ZM10.7692 47.0893C10.7692 47.0893 11.5113 50.4445 12.9494 51.8827C13.111 52.0716 13.3117 52.2234 13.5375 52.3274C13.7634 52.4314 14.0091 52.4853 14.2577 52.4853C14.5064 52.4853 14.7521 52.4314 14.9779 52.3274C15.2038 52.2234 15.4044 52.0716 15.566 51.8827C15.7541 51.7207 15.9049 51.52 16.0084 51.2944C16.1118 51.0688 16.1653 50.8236 16.1653 50.5754C16.1653 50.3272 16.1118 50.0819 16.0084 49.8563C15.9049 49.6307 15.7541 49.4301 15.566 49.2681C14.1272 47.8313 10.7692 47.0893 10.7692 47.0893ZM21.5622 50.4621C21.5622 50.4621 22.3042 53.8173 23.7423 55.2555C23.904 55.4444 24.1046 55.5962 24.3304 55.7002C24.5563 55.8042 24.802 55.8581 25.0506 55.8581C25.2993 55.8581 25.545 55.8042 25.7709 55.7002C25.9967 55.5962 26.1973 55.4444 26.359 55.2555C26.547 55.0935 26.6979 54.8928 26.8013 54.6672C26.9047 54.4416 26.9582 54.1963 26.9582 53.9482C26.9582 53.7 26.9047 53.4547 26.8013 53.2291C26.6979 53.0035 26.547 52.8029 26.359 52.6409C24.9201 51.2041 21.5622 50.4621 21.5622 50.4621ZM26.2841 63.9532C26.2841 63.9532 22.9282 64.6952 21.4907 66.1334C21.1505 66.4815 20.9612 66.9497 20.9639 67.4364C20.9666 67.9232 21.161 68.3892 21.5051 68.7335C21.8491 69.0779 22.3151 69.2727 22.8018 69.2758C23.2885 69.2788 23.7569 69.0899 24.1053 68.75C25.5421 67.3111 26.2841 63.9532 26.2841 63.9532ZM26.2841 74.0716C26.2841 74.0716 22.9282 74.8136 21.4907 76.2517C21.1505 76.5998 20.9612 77.068 20.9639 77.5548C20.9666 78.0415 21.161 78.5076 21.5051 78.8519C21.8491 79.1962 22.3151 79.391 22.8018 79.3941C23.2885 79.3972 23.7569 79.2083 24.1053 78.8683C25.5421 77.4295 26.2841 74.0716 26.2841 74.0716ZM16.8403 71.3733C16.8403 71.3733 13.4843 72.1153 12.0469 73.5535C11.8579 73.7151 11.7062 73.9157 11.6021 74.1416C11.4981 74.3674 11.4442 74.6131 11.4442 74.8618C11.4442 75.1105 11.4981 75.3562 11.6021 75.582C11.7062 75.8079 11.8579 76.0085 12.0469 76.1701C12.2088 76.3581 12.4095 76.509 12.6351 76.6124C12.8607 76.7159 13.106 76.7694 13.3542 76.7694C13.6023 76.7694 13.8476 76.7159 14.0732 76.6124C14.2988 76.509 14.4995 76.3581 14.6614 76.1701C16.0983 74.7313 16.8403 71.3733 16.8403 71.3733Z" stroke="#349AC0" stroke-width="3" stroke-linecap="round" stroke-linejoin="round"/>
<path d="M2.67383 65.3017V69.349H6.72117" stroke="#349AC0" stroke-width="3" stroke-linecap="round" stroke-linejoin="round"/>
<path d="M45.208 13.6606H62.8517V5.68601C62.8517 5.13474 62.4047 4.68748 61.8538 4.68748H46.206C45.655 4.68748 45.208 5.13474 45.208 5.68601V13.6606Z" fill="#349AC0"/>
<path d="M46.2032 13.6597C46.044 13.6597 45.9141 13.5297 45.9141 13.3704V5.73849C45.9141 5.57922 46.044 5.44921 46.2032 5.44921C46.3624 5.44921 46.4923 5.57922 46.4923 5.73849V13.3704C46.4923 13.5297 46.3624 13.6597 46.2032 13.6597Z" fill="#485576"/>
<path d="M47.6387 13.6597C47.4796 13.6597 47.3496 13.5296 47.3496 13.3704V5.73842C47.3496 5.57915 47.4796 5.44913 47.6387 5.44913C47.7979 5.44913 47.9279 5.57915 47.9279 5.73842V13.3704C47.9279 13.5296 47.7979 13.6597 47.6387 13.6597Z" fill="#485576"/>
<path d="M49.0733 13.6597C48.9141 13.6597 48.7842 13.5296 48.7842 13.3704V5.73842C48.7842 5.57915 48.9141 5.44913 49.0733 5.44913C49.2325 5.44913 49.3624 5.57915 49.3624 5.73842V13.3704C49.3624 13.5296 49.2325 13.6597 49.0733 13.6597Z" fill="#485576"/>
<path d="M50.5069 13.6597C50.3477 13.6597 50.2178 13.5296 50.2178 13.3704V5.73842C50.2178 5.57915 50.3477 5.44913 50.5069 5.44913C50.6661 5.44913 50.796 5.57915 50.796 5.73842V13.3704C50.796 13.5296 50.6661 13.6597 50.5069 13.6597Z" fill="#485576"/>
<path d="M51.9415 13.6597C51.7823 13.6597 51.6523 13.5296 51.6523 13.3704V5.73842C51.6523 5.57915 51.7823 5.44913 51.9415 5.44913C52.1006 5.44913 52.2306 5.57915 52.2306 5.73842V13.3704C52.2306 13.5296 52.1006 13.6597 51.9415 13.6597Z" fill="#485576"/>
<path d="M53.377 13.6597C53.2178 13.6597 53.0879 13.5296 53.0879 13.3704V5.73842C53.0879 5.57915 53.2178 5.44913 53.377 5.44913C53.5362 5.44913 53.6661 5.57915 53.6661 5.73842V13.3704C53.6661 13.5296 53.5362 13.6597 53.377 13.6597Z" fill="#485576"/>
<path d="M54.8116 13.6597C54.6524 13.6597 54.5225 13.5297 54.5225 13.3704V5.73849C54.5225 5.57922 54.6524 5.44921 54.8116 5.44921C54.9708 5.44921 55.1007 5.57922 55.1007 5.73849V13.3704C55.1007 13.5297 54.9708 13.6597 54.8116 13.6597Z" fill="#485576"/>
<path d="M56.2471 13.6597C56.088 13.6597 55.958 13.5296 55.958 13.3704V5.73842C55.958 5.57915 56.088 5.44913 56.2471 5.44913C56.4063 5.44913 56.5363 5.57915 56.5363 5.73842V13.3704C56.5363 13.5296 56.4063 13.6597 56.2471 13.6597Z" fill="#485576"/>
<path d="M57.6817 13.6597C57.5225 13.6597 57.3926 13.5296 57.3926 13.3704V5.73842C57.3926 5.57915 57.5225 5.44913 57.6817 5.44913C57.8409 5.44913 57.9708 5.57915 57.9708 5.73842V13.3704C57.9708 13.5296 57.8409 13.6597 57.6817 13.6597Z" fill="#485576"/>
<path d="M59.1153 13.6597C58.9561 13.6597 58.8262 13.5296 58.8262 13.3704V5.73842C58.8262 5.57915 58.9561 5.44913 59.1153 5.44913C59.2745 5.44913 59.4044 5.57915 59.4044 5.73842V13.3704C59.4044 13.5296 59.2745 13.6597 59.1153 13.6597Z" fill="#485576"/>
<path d="M60.5499 13.6597C60.3907 13.6597 60.2607 13.5296 60.2607 13.3704V5.73842C60.2607 5.57915 60.3907 5.44913 60.5499 5.44913C60.709 5.44913 60.839 5.57915 60.839 5.73842V13.3704C60.839 13.5296 60.709 13.6597 60.5499 13.6597Z" fill="#485576"/>
<path d="M61.9864 13.6597C61.8272 13.6597 61.6973 13.5296 61.6973 13.3704V5.73842C61.6973 5.57915 61.8272 5.44913 61.9864 5.44913C62.1456 5.44913 62.2755 5.57915 62.2755 5.73842V13.3704C62.2755 13.5296 62.1456 13.6597 61.9864 13.6597Z" fill="#485576"/>
<path d="M105.286 11.825C105.286 13.7791 103.688 15.3777 101.735 15.3777H78.9601C77.007 15.3777 75.4087 13.7791 75.4087 11.825V10.2362C75.4087 8.28204 77.0064 6.68349 78.9601 6.68349H101.735C103.688 6.68349 105.286 8.28204 105.286 10.2362V11.825ZM113.171 2.8272C112.713 1.1578 111.196 0 109.466 0H71.1868C69.3117 0 67.668 1.25401 67.1722 3.06383L64.3492 13.3663H44.3463C42.9533 13.3663 41.7163 14.2582 41.2758 15.5805L37.6328 26.5162V112.532C37.6328 116.104 40.5267 118.999 44.0962 118.999H109.596C113.166 118.999 116.06 116.104 116.06 112.532V13.3663L113.172 2.82785L113.171 2.8272Z" fill="#9AADC4"/>
<path d="M113.172 2.82814C112.714 1.15873 111.197 0.000929832 109.466 0.000929832H89.6362C89.5543 2.22941 89.4348 4.45724 89.2821 6.68377H101.735C103.688 6.68377 105.287 8.28232 105.287 10.2365V11.8253C105.287 13.7794 103.688 15.378 101.735 15.378H88.546C88.1834 18.9872 87.7644 22.5867 87.3187 26.168C84.7523 46.784 82.2106 67.7661 74.5887 87.2451C69.6327 99.91 62.0355 112.173 50.8838 119H109.596C113.166 119 116.06 116.104 116.06 112.532V13.3666L113.172 2.82814Z" fill="#8A9DB0"/>
<path d="M113.169 2.82818C112.711 1.15877 111.195 0.000976562 109.464 0.000976562H105.166C107.45 11.7486 108.069 23.7809 107.41 35.7281C106.082 59.7889 100.135 83.6177 91.0843 105.902C89.2534 110.411 87.1951 114.855 84.6787 119H109.593C113.164 119 116.057 116.105 116.057 112.533V13.3666L113.169 2.82818Z" fill="#7A8C9B"/>
<path d="M107.685 115.443H46.0032C42.6416 115.443 39.916 112.715 39.916 109.352V28.3485H113.772V109.352C113.772 112.715 111.047 115.443 107.685 115.443Z" fill="#349AC0"/>
<path d="M110.916 85.245C101.399 88.2321 93.3832 81.1495 85.4813 77.2159C79.7047 74.3399 72.8625 74.518 66.7344 76.0646C61.2352 77.4525 56.6008 80.9727 51.2698 82.8482C47.5307 84.1633 43.5025 84.3947 39.916 82.9125V109.353C39.916 112.716 42.6416 115.443 46.0032 115.443H107.685C111.047 115.443 113.773 112.716 113.773 109.353V83.9461C112.896 84.4734 111.951 84.92 110.916 85.245Z" fill="#52B4DE"/>
<path d="M87.3302 1.2935C87.3302 1.2935 71.099 0.287178 70.0939 1.2935C69.0881 2.29918 68.8009 3.30551 70.0939 3.88018C71.3868 4.45485 86.1809 4.68693 87.3302 4.31118C88.4796 3.93609 89.7719 2.58652 87.3302 1.29285V1.2935Z" fill="#C9D5E0"/>
<path d="M64.9222 15.3784C64.9222 15.3784 47.0407 15.2347 45.2085 15.3784C43.3763 15.522 42.6583 17.8935 44.6692 19.1865C46.6801 20.4802 65.4965 19.977 65.4965 19.977C65.4965 19.977 67.9791 20.0732 67.9778 17.6497C67.9778 16.4549 66.7174 15.26 64.9215 15.3777L64.9222 15.3784Z" fill="#C9D5E0"/>
<path d="M101.408 16.9589H78.9738C78.9738 16.9589 77.4918 17.1026 77.8511 18.3241C78.2097 19.5456 79.6463 19.402 79.6463 19.402L101.408 19.4072C101.408 19.4072 103.562 19.335 103.419 18.1831C103.275 17.0305 101.982 16.9589 101.408 16.9589Z" fill="#C9D5E0"/>
<path d="M103.864 33.145C103.864 33.145 50.909 33.4323 47.9404 35.4443C44.9718 37.4563 42.8655 57.2897 47.9404 61.17C53.0153 65.0503 87.7759 52.1157 96.3944 48.9543C105.012 45.7923 108.172 44.3556 108.747 39.469C109.322 34.5823 106.159 33.1287 103.864 33.1456V33.145Z" fill="#52A4C7"/>
<path d="M80.6523 106.877H81.1364C81.4591 106.877 81.7442 106.742 81.9916 106.473C82.239 106.205 82.3842 105.747 82.4273 105.102L82.992 96.5501H92.5927V107.845H90.253V97.7603H85.1703L84.6862 105.102C84.6109 106.156 84.3151 106.92 83.7988 107.393C83.2932 107.856 82.594 108.087 81.7012 108.087C81.4215 108.087 81.1741 108.06 80.9589 108.006C80.8406 107.985 80.7384 107.958 80.6523 107.926V106.877Z" fill="white"/>
<path d="M73.4382 92.7844V107.844H70.3187V95.3661H70.1035L67.5218 96.7646L66.5537 95.3661L70.2111 92.7844H73.4382Z" fill="white"/>
<path fill-rule="evenodd" clip-rule="evenodd" d="M77.384 39.6672C66.577 39.6672 57.8027 48.4415 57.8027 59.2484C57.7981 64.4029 59.8328 69.3498 63.4626 73.0094C63.486 73.0392 63.5102 73.0672 63.5372 73.0951C63.5652 73.1222 63.5932 73.1464 63.623 73.1697C67.2826 76.7996 72.2295 78.8343 77.384 78.8296C88.1909 78.8296 96.9652 70.0554 96.9652 59.2484C96.9698 54.094 94.9351 49.1471 91.3053 45.4875C91.282 45.4576 91.2571 45.429 91.2307 45.4017C91.2034 45.3753 91.1748 45.3504 91.1449 45.3271C87.4853 41.6973 82.5384 39.6626 77.384 39.6672ZM77.384 41.5321C81.938 41.5321 86.0911 43.2552 89.2306 46.0833L83.2518 52.0621C83.082 52.238 82.988 52.4735 82.9901 52.718C82.9922 52.9625 83.0903 53.1964 83.2632 53.3692C83.436 53.5421 83.6699 53.6402 83.9144 53.6423C84.1589 53.6444 84.3944 53.5504 84.5703 53.3806L90.5491 47.4018C93.4831 50.6495 95.1052 54.8717 95.1003 59.2484C95.1003 69.026 87.1615 76.9648 77.384 76.9648C73.0073 76.9696 68.785 75.3475 65.5373 72.4135L68.7188 69.2321C68.8887 69.0562 68.9826 68.8207 68.9805 68.5762C68.9784 68.3317 68.8803 68.0978 68.7074 67.9249C68.5346 67.7521 68.3007 67.654 68.0562 67.6519C67.8117 67.6497 67.5762 67.7437 67.4003 67.9136L64.2189 71.0951C61.2849 67.8474 59.6628 63.6251 59.6676 59.2484C59.6676 49.4709 67.6064 41.5321 77.384 41.5321ZM77.384 48.0592C77.0632 48.0592 76.7639 48.2242 76.5933 48.4965C76.5933 48.4965 73.353 53.6696 71.407 58.3253C70.5287 60.427 69.9245 62.4336 69.9245 63.8631C69.9245 67.452 73.2318 70.4377 77.384 70.4377C81.5361 70.4377 84.8435 67.452 84.8435 63.8631C84.8435 62.4336 84.2393 60.427 83.3609 58.3253C81.4149 53.6696 78.1747 48.4965 78.1747 48.4965C78.0907 48.3626 77.9741 48.2523 77.8358 48.1758C77.6975 48.0993 77.542 48.0592 77.384 48.0592ZM77.384 50.7931C78.4423 52.5824 80.3389 55.9308 81.6396 59.0424C82.4061 60.8765 82.9786 62.6164 82.9786 63.8631C82.9786 66.5028 80.4377 68.5728 77.384 68.5728C74.3302 68.5728 71.7893 66.5028 71.7893 63.8631C71.7893 62.6164 72.3618 60.8765 73.1283 59.0424C74.4291 55.9308 76.3247 52.5824 77.384 50.7931Z" fill="white"/>
</svg>
