<svg width="187" height="173" viewBox="0 0 187 173" fill="none" xmlns="http://www.w3.org/2000/svg">
<path d="M3.2171 34.6006C3.2171 16.9069 17.546 2.563 35.2213 2.563C45.6905 2.563 54.9871 7.59418 60.8272 15.378H53.7838C53.4442 15.378 53.1186 15.513 52.8785 15.7534C52.6385 15.9937 52.5036 16.3196 52.5036 16.6595C52.5036 16.9994 52.6385 17.3254 52.8785 17.5657C53.1186 17.806 53.4442 17.941 53.7838 17.941H63.273C63.6125 17.941 63.9381 17.806 64.1782 17.5657C64.4183 17.3254 64.5532 16.9994 64.5532 16.6595V7.36864C64.5532 7.02876 64.4183 6.70281 64.1782 6.46248C63.9381 6.22215 63.6125 6.08713 63.273 6.08713C62.9335 6.08713 62.6079 6.22215 62.3678 6.46248C62.1277 6.70281 61.9928 7.02876 61.9928 7.36864V12.7138C55.656 4.95557 46.017 0 35.2213 0C16.1321 0 0.656764 15.4914 0.656764 34.6006C0.651212 39.1686 1.55195 43.6922 3.30671 47.9089C3.36941 48.0671 3.46296 48.2112 3.58189 48.3328C3.70082 48.4544 3.84276 48.5511 3.99941 48.6172C4.15607 48.6833 4.32431 48.7175 4.49431 48.7178C4.66432 48.7181 4.83268 48.6845 4.98957 48.619C5.14647 48.5535 5.28875 48.4573 5.40812 48.3361C5.52749 48.215 5.62156 48.0712 5.68483 47.9133C5.7481 47.7553 5.77931 47.5863 5.77664 47.4162C5.77397 47.246 5.73746 47.0781 5.66926 46.9222C4.04494 43.018 3.21143 38.8298 3.2171 34.6006ZM67.2729 21.6253C67.2106 21.4682 67.1179 21.325 67.0002 21.2039C66.8824 21.0828 66.7418 20.9862 66.5866 20.9197C66.4314 20.8532 66.2645 20.8181 66.0957 20.8164C65.9269 20.8147 65.7594 20.8465 65.6028 20.9099C65.4463 20.9733 65.3039 21.067 65.1837 21.1857C65.0635 21.3045 64.968 21.4458 64.9026 21.6016C64.8372 21.7575 64.8033 21.9247 64.8027 22.0937C64.8022 22.2628 64.8351 22.4302 64.8995 22.5865C66.4411 26.4037 67.231 30.4832 67.2255 34.6006C67.2255 52.2942 52.8966 66.6381 35.2213 66.6381C24.6087 66.6381 15.202 61.4685 9.37791 53.5027H16.9789C17.3184 53.5027 17.6441 53.3677 17.8841 53.1274C18.1242 52.887 18.2591 52.5611 18.2591 52.2212C18.2591 51.8813 18.1242 51.5554 17.8841 51.315C17.6441 51.0747 17.3184 50.9397 16.9789 50.9397H6.96671C6.62719 50.9397 6.30158 51.0747 6.0615 51.315C5.82142 51.5554 5.68655 51.8813 5.68655 52.2212V61.5121C5.68655 61.852 5.82142 62.1779 6.0615 62.4183C6.30158 62.6586 6.62719 62.7936 6.96671 62.7936C7.30624 62.7936 7.63185 62.6586 7.87193 62.4183C8.11201 62.1779 8.24688 61.852 8.24688 61.5121V56.2374C14.5805 64.1392 24.3098 69.2011 35.2213 69.2011C54.3105 69.2011 69.7859 53.7097 69.7859 34.6006C69.7911 30.1538 68.9378 25.748 67.2729 21.6253Z" fill="#349AC0"/>
<path d="M36.5949 15.3781C36.5949 15.0382 36.46 14.7122 36.2199 14.4719C35.9798 14.2316 35.6542 14.0966 35.3147 14.0966C34.9752 14.0966 34.6495 14.2316 34.4095 14.4719C34.1694 14.7122 34.0345 15.0382 34.0345 15.3781V18.1455L32.7326 17.1414C32.5997 17.0356 32.4471 16.9574 32.2837 16.9112C32.1203 16.8651 31.9493 16.8519 31.7808 16.8725C31.6123 16.8931 31.4495 16.9471 31.302 17.0312C31.1545 17.1154 31.0252 17.2281 30.9216 17.3628C30.8181 17.4974 30.7423 17.6514 30.6987 17.8156C30.6551 17.9799 30.6446 18.1512 30.6678 18.3196C30.691 18.4879 30.7474 18.65 30.8337 18.7963C30.9201 18.9427 31.0347 19.0704 31.1708 19.1719L34.0345 21.3806V23.1837L30.2068 19.6256C29.958 19.3943 29.6277 19.2714 29.2884 19.284C28.9491 19.2965 28.6287 19.4435 28.3976 19.6926C28.1666 19.9416 28.0438 20.2723 28.0564 20.612C28.0689 20.9516 28.2157 21.2724 28.4645 21.5036L34.0345 26.6809V32.9487L28.4235 29.7315L27.0422 22.7249C26.9765 22.3914 26.7812 22.0977 26.4992 21.9084C26.2171 21.7191 25.8715 21.6496 25.5384 21.7154C25.2052 21.7812 24.9118 21.9767 24.7227 22.2591C24.5335 22.5414 24.4642 22.8874 24.5299 23.2209L25.4811 28.0438L23.7592 27.0564L23.1204 23.6623C23.0514 23.3345 22.8568 23.0467 22.5784 22.8607C22.3 22.6747 21.9599 22.6053 21.6309 22.6673C21.302 22.7293 21.0104 22.9178 20.8186 23.1924C20.6268 23.467 20.5501 23.8059 20.6049 24.1365L20.8385 25.3815L18.5752 24.0839C18.2812 23.9234 17.9361 23.8846 17.6138 23.9758C17.2915 24.067 17.0178 24.281 16.8513 24.5719C16.6849 24.8628 16.6389 25.2074 16.7233 25.5318C16.8076 25.8563 17.0157 26.1347 17.3027 26.3073L19.8387 27.7619L18.7026 28.2969C18.5473 28.3664 18.4073 28.4662 18.291 28.5904C18.1746 28.7147 18.0842 28.8609 18.0249 29.0205C17.9657 29.1802 17.9388 29.3501 17.9459 29.5202C17.953 29.6904 17.9939 29.8574 18.0662 30.0116C18.1385 30.1657 18.2408 30.3039 18.3671 30.418C18.4934 30.5322 18.6411 30.6199 18.8017 30.6763C18.9622 30.7326 19.1324 30.7563 19.3022 30.746C19.472 30.7357 19.6381 30.6917 19.7907 30.6164L22.5514 29.3176L23.9967 30.1467L19.6473 31.3718C19.3243 31.4672 19.0519 31.6862 18.889 31.9813C18.7261 32.2764 18.686 32.6238 18.7772 32.9483C18.8685 33.2728 19.0839 33.5483 19.3766 33.7149C19.6694 33.8816 20.0159 33.9261 20.3412 33.8387L27.1107 31.9319L32.6455 35.1061L27.1261 38.2715L20.3694 36.1967C20.2082 36.1457 20.0386 36.1272 19.8702 36.1423C19.7019 36.1573 19.5382 36.2055 19.3886 36.2842C19.2389 36.3628 19.1064 36.4704 18.9985 36.6006C18.8906 36.7308 18.8095 36.8812 18.7599 37.0429C18.7104 37.2046 18.6933 37.3746 18.7097 37.543C18.7261 37.7114 18.7756 37.8748 18.8554 38.024C18.9353 38.1731 19.0438 38.3049 19.1748 38.4118C19.3057 38.5188 19.4566 38.5987 19.6185 38.6469L24.0812 40.0175L22.4535 40.9504L19.6198 40.0854C19.459 40.0364 19.2901 40.0195 19.1227 40.0358C18.9554 40.0521 18.7928 40.1012 18.6445 40.1804C18.4961 40.2595 18.3647 40.3672 18.2579 40.4972C18.1511 40.6272 18.0709 40.7769 18.0219 40.9379C17.9728 41.0989 17.956 41.268 17.9723 41.4356C17.9886 41.6031 18.0376 41.7658 18.1167 41.9143C18.1958 42.0629 18.3033 42.1944 18.4332 42.3013C18.563 42.4082 18.7126 42.4885 18.8735 42.5376L19.4041 42.6997L17.3027 43.9043C17.1567 43.9878 17.0285 44.0994 16.9255 44.2326C16.8226 44.3657 16.7468 44.5179 16.7027 44.6804C16.6585 44.8429 16.6467 45.0125 16.6681 45.1795C16.6894 45.3465 16.7434 45.5077 16.827 45.6538C16.9106 45.8 17.0222 45.9282 17.1553 46.0311C17.2884 46.134 17.4405 46.2097 17.6029 46.2538C17.7652 46.2978 17.9347 46.3094 18.1015 46.2879C18.2683 46.2664 18.4293 46.2122 18.5752 46.1283L20.7425 44.8853L20.6119 45.4837C20.5456 45.8133 20.6112 46.1558 20.7948 46.4374C20.9783 46.719 21.2651 46.9171 21.5932 46.989C21.9213 47.0608 22.2645 47.0007 22.5487 46.8217C22.833 46.6426 23.0356 46.3588 23.1128 46.0316L23.7388 43.1674L25.2775 42.2851L24.1734 46.5474C24.0882 46.8764 24.137 47.2258 24.3091 47.5188C24.4813 47.8117 24.7626 48.0242 25.0913 48.1095C25.4199 48.1949 25.769 48.146 26.0616 47.9737C26.3543 47.8013 26.5666 47.5197 26.6518 47.1907L28.3845 40.5038L34.0345 37.2635V43.6768L28.5151 48.2934C28.386 48.4014 28.2795 48.5337 28.2016 48.6828C28.1236 48.8319 28.0758 48.9949 28.0608 49.1626C28.0457 49.3302 28.0639 49.4992 28.1141 49.6598C28.1643 49.8204 28.2456 49.9696 28.3534 50.0988C28.4613 50.2279 28.5934 50.3346 28.7424 50.4126C28.8914 50.4906 29.0542 50.5385 29.2217 50.5535C29.3892 50.5686 29.5579 50.5504 29.7184 50.5002C29.8789 50.4499 30.0279 50.3685 30.1569 50.2605L34.0345 47.0164V48.7887L32.0419 50.5361C31.7865 50.76 31.6305 51.0764 31.6081 51.4156C31.5857 51.7547 31.6988 52.0889 31.9226 52.3446C32.1463 52.6003 32.4623 52.7565 32.8012 52.7789C33.14 52.8013 33.4738 52.6881 33.7292 52.4641L34.0345 52.1963V54.4639C34.0345 54.8037 34.1694 55.1297 34.4095 55.37C34.6495 55.6104 34.9752 55.7454 35.3147 55.7454C35.6542 55.7454 35.9798 55.6104 36.2199 55.37C36.46 55.1297 36.5949 54.8037 36.5949 54.4639V52.0643L37.1223 52.4936C37.2524 52.602 37.4027 52.6835 37.5645 52.7334C37.7263 52.7833 37.8964 52.8006 38.0649 52.7843C38.2334 52.7679 38.3971 52.7183 38.5463 52.6382C38.6955 52.5581 38.8274 52.4492 38.9342 52.3177C39.0411 52.1863 39.1209 52.0349 39.1689 51.8724C39.217 51.7099 39.2324 51.5394 39.2142 51.3709C39.196 51.2024 39.1445 51.0392 39.0629 50.8907C38.9812 50.7423 38.871 50.6115 38.7385 50.506L36.5942 48.7605V47.2003L39.865 50.2195C40.1147 50.45 40.4455 50.5717 40.7848 50.5579C40.9528 50.5511 41.1178 50.5113 41.2704 50.4406C41.423 50.37 41.5603 50.2699 41.6742 50.1462C41.7882 50.0224 41.8767 49.8774 41.9347 49.7195C41.9928 49.5615 42.0191 49.3936 42.0123 49.2254C42.0055 49.0573 41.9657 48.8921 41.8951 48.7393C41.8245 48.5865 41.7246 48.4492 41.601 48.3351L36.5949 43.714V37.3706L42.042 40.4942L43.5967 47.1606C43.676 47.4894 43.882 47.7734 44.1696 47.9509C44.4573 48.1283 44.8034 48.1847 45.1324 48.1077C45.4614 48.0308 45.7467 47.8267 45.9261 47.5401C46.1054 47.2534 46.1643 46.9074 46.0899 46.5775L45.0773 42.2345L46.6307 43.1258L46.9335 45.897C46.9518 46.0644 47.0028 46.2264 47.0837 46.374C47.1645 46.5216 47.2736 46.6518 47.4047 46.7572C47.5359 46.8625 47.6864 46.941 47.8478 46.9881C48.0093 47.0353 48.1784 47.0501 48.3455 47.0318C48.5127 47.0135 48.6746 46.9624 48.822 46.8815C48.9694 46.8005 49.0995 46.6913 49.2048 46.5601C49.31 46.4288 49.3884 46.2781 49.4355 46.1165C49.4826 45.9549 49.4974 45.7856 49.4791 45.6183L49.3786 44.702L51.8673 46.1283C52.0133 46.2162 52.1754 46.274 52.344 46.2983C52.5126 46.3226 52.6844 46.313 52.8492 46.2701C53.0141 46.2271 53.1687 46.1516 53.3041 46.0481C53.4394 45.9445 53.5528 45.8149 53.6375 45.667C53.7221 45.519 53.7765 45.3556 53.7973 45.1863C53.8181 45.0171 53.8049 44.8453 53.7585 44.6812C53.7122 44.5171 53.6336 44.3639 53.5273 44.2306C53.4211 44.0973 53.2893 43.9866 53.1398 43.9049L51.5811 43.0111L51.9671 42.9464C52.133 42.9186 52.2917 42.8585 52.4343 42.7693C52.577 42.6802 52.7007 42.5638 52.7983 42.4268C52.896 42.2898 52.9658 42.1349 53.0037 41.9709C53.0416 41.8069 53.0468 41.6371 53.0191 41.471C52.9914 41.305 52.9313 41.1461 52.8423 41.0033C52.7532 40.8606 52.6369 40.7367 52.5001 40.639C52.3632 40.5412 52.2085 40.4713 52.0446 40.4334C51.8808 40.3955 51.7111 40.3902 51.5453 40.418L48.0722 40.9985L46.3357 40.0028L50.646 38.6444C50.8064 38.5938 50.9552 38.5122 51.0841 38.4041C51.2129 38.2959 51.3193 38.1635 51.397 38.0142C51.4747 37.865 51.5223 37.7018 51.537 37.5342C51.5518 37.3665 51.5334 37.1976 51.4829 37.037C51.4324 36.8765 51.3508 36.7275 51.2428 36.5985C51.1348 36.4695 51.0025 36.3631 50.8534 36.2853C50.7043 36.2075 50.5414 36.1598 50.3739 36.1451C50.2064 36.1303 50.0376 36.1487 49.8772 36.1993L43.3119 38.2689L37.7969 35.1061L43.3273 31.9344L49.906 33.8368C50.2322 33.9311 50.5825 33.8919 50.8798 33.7277C51.1771 33.5635 51.397 33.2878 51.4912 32.9612C51.5854 32.6347 51.5462 32.2841 51.3822 31.9865C51.2181 31.6889 50.9427 31.4687 50.6165 31.3744L46.4201 30.1608L48.0408 29.2317L50.548 29.7821C50.8598 29.851 51.186 29.8007 51.4627 29.6412C51.7393 29.4817 51.9464 29.2245 52.0434 28.92C52.1404 28.6155 52.1202 28.2857 51.9869 27.9954C51.8535 27.705 51.6166 27.475 51.3226 27.3505L53.1404 26.308C53.2863 26.2243 53.4142 26.1126 53.517 25.9794C53.6198 25.8461 53.6953 25.6939 53.7394 25.5315C53.7834 25.369 53.795 25.1995 53.7735 25.0325C53.7521 24.8655 53.698 24.7045 53.6144 24.5584C53.5307 24.4124 53.4192 24.2843 53.2861 24.1814C53.153 24.0785 53.001 24.0029 52.8387 23.9588C52.6764 23.9148 52.507 23.9031 52.3402 23.9246C52.1734 23.9461 52.0125 24.0002 51.8666 24.0839L49.3786 25.5109L49.4791 24.5946C49.5161 24.2567 49.4175 23.9179 49.205 23.6528C48.9925 23.3876 48.6834 23.2179 48.3458 23.1808C48.0083 23.1438 47.6698 23.2425 47.405 23.4552C47.1401 23.668 46.9705 23.9773 46.9335 24.3153L46.6307 27.0865L45.0228 28.0092L46.0943 23.0594C46.13 22.8949 46.1329 22.725 46.1029 22.5593C46.073 22.3937 46.0107 22.2356 45.9197 22.094C45.8287 21.9525 45.7108 21.8303 45.5726 21.7344C45.4344 21.6384 45.2787 21.5707 45.1144 21.535C44.95 21.4994 44.7803 21.4964 44.6148 21.5264C44.4494 21.5564 44.2914 21.6187 44.15 21.7098C44.0086 21.8009 43.8865 21.919 43.7907 22.0573C43.6949 22.1957 43.6273 22.3515 43.5916 22.516L42.0317 29.7245L36.5955 32.8417V26.6437L41.6496 21.4601C41.8818 21.2159 42.0085 20.89 42.0024 20.553C41.9962 20.216 41.8576 19.8949 41.6167 19.6595C41.3757 19.424 41.0518 19.293 40.7151 19.295C40.3783 19.2969 40.0559 19.4316 39.8177 19.6698L36.5955 22.9742V21.3588L39.3005 19.1495C39.4308 19.0432 39.5389 18.9122 39.6186 18.764C39.6983 18.6158 39.7481 18.4534 39.7651 18.2859C39.7821 18.1185 39.766 17.9494 39.7176 17.7882C39.6693 17.627 39.5898 17.4769 39.4836 17.3464C39.3773 17.216 39.2464 17.1078 39.0984 17.028C38.9504 16.9482 38.7881 16.8984 38.6209 16.8814C38.4536 16.8644 38.2846 16.8805 38.1236 16.9289C37.9626 16.9772 37.8126 17.0568 37.6824 17.1632L36.5955 18.0513L36.5949 15.3781Z" fill="#349AC0"/>
<path d="M150.031 165.55C140.671 165.55 131.311 161.98 124.188 154.85L121.151 151.81L126.096 146.86L129.133 149.9C134.717 155.49 142.14 158.57 150.031 158.57C157.923 158.57 165.355 155.49 170.939 149.9C176.524 144.31 179.6 136.88 179.6 128.97C179.6 121.06 176.524 113.63 170.939 108.04L157.124 94.21C156.505 93.59 155.635 93.23 154.756 93.23H144.057V86.23H154.756C157.523 86.23 160.121 87.31 162.069 89.26L175.884 103.09C190.139 117.36 190.139 140.57 175.884 154.84C168.762 161.97 159.402 165.54 150.041 165.54L150.031 165.55Z" fill="#262626"/>
<path d="M144.757 82.7H153.188C154.607 82.7 155.755 83.85 155.755 85.27V94.59C155.755 96.01 154.607 97.16 153.188 97.16H144.757V82.71V82.7Z" fill="#349AC0"/>
<path d="M149.152 22.54V141.06C149.152 150.72 141.33 158.56 131.68 158.56H59.4357C49.7857 158.56 41.9639 150.73 41.9639 141.06V140.12V22.53C41.9639 12.85 49.8057 5 59.4656 5H131.64C141.31 5 149.152 12.85 149.152 22.53V22.54Z" fill="#349AC0"/>
<path style="mix-blend-mode:screen" opacity="0.25" d="M149.152 22.53C149.152 12.85 141.31 5 131.64 5H59.4756C49.8057 5 41.9639 12.85 41.9639 22.53V62.12C53.5418 73.31 69.1855 82.39 87.4365 87.51C109.583 93.71 131.471 92.91 149.152 86.62V22.53Z" fill="url(#paint0_linear_197_3)"/>
<path style="mix-blend-mode:screen" opacity="0.5" d="M131.64 5H59.4656C49.7957 5 41.9639 12.85 41.9639 22.53V25.27C41.9639 15.59 49.7957 7.75 59.4656 7.75H131.64C141.31 7.75 149.152 15.59 149.152 25.27V22.53C149.152 12.85 141.31 5 131.64 5Z" fill="url(#paint1_linear_197_3)"/>
<path d="M95.5579 29.38C82.6214 29.38 70.8137 33.82 61.8131 41.14C60.7842 41.97 60.7242 43.52 61.6832 44.43L69.9047 52.19C70.6838 52.93 71.8926 52.99 72.7317 52.32C78.8353 47.41 86.817 44.42 95.5579 44.42C104.299 44.42 112.281 47.4 118.384 52.32C119.223 52.99 120.432 52.93 121.211 52.19L129.433 44.43C130.392 43.52 130.332 41.98 129.303 41.14C120.312 33.82 108.504 29.38 95.5579 29.38Z" fill="white"/>
<path d="M122.78 19.6801L117.935 34.1301L113.02 48.7701H113.01C110.023 47.1501 106.747 45.9401 103.27 45.2301H103.26L113.16 32.2601L122.77 19.6801H122.78Z" fill="#B2DAE9"/>
<path style="mix-blend-mode:screen" opacity="0.25" d="M122.78 19.6801L113.17 32.2601L103.27 45.2201H103.28C105.188 45.6201 107.016 46.1801 108.794 46.8501L122.79 19.6801H122.78Z" fill="url(#paint2_linear_197_3)"/>
<path style="mix-blend-mode:screen" opacity="0.35" d="M112.89 54.47C111.611 53.72 110.223 53.03 108.814 52.47C107.416 51.88 105.977 51.38 104.509 50.99C101.592 50.19 98.575 49.75 95.5582 49.76C92.5413 49.75 89.5344 50.19 86.6075 50.99C85.139 51.37 83.7005 51.88 82.302 52.47C80.8935 53.03 79.5049 53.72 78.2262 54.47L78.1863 54.49C77.9265 54.64 77.5869 54.56 77.4371 54.3C77.2972 54.06 77.3571 53.75 77.5769 53.58C80.1642 51.63 83.0512 50.27 86.098 49.28C89.1349 48.29 92.3515 47.83 95.5582 47.77C98.7648 47.83 101.971 48.29 105.018 49.28C108.065 50.27 110.952 51.62 113.539 53.58C113.779 53.76 113.829 54.11 113.649 54.35C113.48 54.57 113.17 54.63 112.93 54.49L112.89 54.47Z" fill="url(#paint3_linear_197_3)"/>
<path d="M123.97 86.4021C127.544 71.0514 118.01 55.7067 102.676 52.1288C87.3408 48.5509 72.0121 58.0947 68.4379 73.4455C64.8637 88.7962 74.3976 104.141 89.7324 107.719C105.067 111.297 120.396 101.753 123.97 86.4021Z" fill="white"/>
<path d="M170.929 149.9C159.401 161.44 140.651 161.44 129.123 149.9L126.086 146.86L121.141 151.81L124.178 154.85C131.301 161.98 140.661 165.55 150.021 165.55C159.381 165.55 168.742 161.98 175.864 154.85L170.919 149.9H170.929Z" fill="#212121"/>
<path d="M130.231 146.154L134.137 150.626C135.189 151.83 135.067 153.664 133.864 154.718L129.502 158.536C128.299 159.589 126.466 159.466 125.414 158.262L121.508 153.791L130.223 146.161L130.231 146.154Z" fill="#B2DAE9"/>
<path d="M83.79 121.19C83.79 121.19 81.7221 134.32 81.782 134.76C81.842 135.2 103.27 159.28 103.27 159.28L104.958 158.44L85.9677 135L88.8147 124.71L83.79 121.19Z" fill="#252525"/>
<path d="M131.591 146.55L82.3518 93.22C81.8723 92.7 81.243 92.36 80.5437 92.25L49.1664 87.16C47.3583 86.87 45.68 88.18 45.5302 90.02L44.751 99.8C44.6311 101.29 45.5701 102.65 47.0087 103.07L60.125 106.9C61.4336 107.28 62.3527 108.47 62.3826 109.84L62.8521 127.41C62.8721 128.18 63.1718 128.91 63.7013 129.47L103.11 171.73C104.269 172.97 106.197 173.07 107.476 171.95L131.351 151.05C132.679 149.88 132.789 147.85 131.591 146.55ZM118.045 155.91L106.397 166.43C105.847 166.93 104.998 166.88 104.509 166.33L72.0925 130.5C71.653 130.02 71.633 129.29 72.0326 128.77L78.7955 120.15C79.275 119.54 80.1741 119.46 80.7535 119.99L118.055 153.92C118.644 154.45 118.634 155.38 118.055 155.91H118.045Z" fill="url(#paint4_linear_197_3)"/>
<path d="M52.4128 95.49C52.6726 93.24 51.0643 91.21 48.8166 90.95L23.8926 88.06C23.2432 87.98 22.5839 88.06 21.9646 88.3L8.64844 93.37L12.3446 100.73L23.9325 96.32L47.8576 99.1C50.1053 99.36 52.1331 97.75 52.3929 95.5L52.4128 95.49Z" fill="#969696"/>
<path d="M69.2355 124.02C72.9117 117.64 89.1847 111.98 99.1843 111.45L82.3518 93.22C81.8723 92.7 81.243 92.36 80.5437 92.25L49.1664 87.16C47.3583 86.87 45.68 88.18 45.5302 90.02L44.751 99.8C44.6311 101.29 45.5701 102.65 47.0087 103.07L60.125 106.9C61.4336 107.28 62.3527 108.47 62.3826 109.84L62.8521 127.41C62.8721 128.18 63.1718 128.91 63.7013 129.47L67.2975 133.33C66.9479 131.06 67.0877 127.76 69.2355 124.03V124.02Z" fill="#B2DAE9"/>
<path d="M69.8748 103.82C69.1356 103.4 50.485 101.12 48.547 99.66C46.9287 98.44 46.4792 90.67 46.3793 88.11C45.9098 88.61 45.5901 89.27 45.5302 90.01L44.751 99.79C44.6311 101.28 45.5701 102.64 47.0087 103.06L60.125 106.89C61.4336 107.27 62.3527 108.46 62.3826 109.83L62.8521 127.4C62.8721 128.17 63.1718 128.9 63.7013 129.46L67.2975 133.32C66.0988 129.86 67.6871 125.72 69.4453 122.68C70.1846 121.402 77.2396 108.014 69.8748 103.83V103.82Z" fill="#494949"/>
<path d="M80 80.4H70.8V78.6H80V80.4ZM86.8945 73.1C85.8945 73.1 84.9812 73.24 84.1545 73.52C83.3412 73.7867 82.5545 74.2467 81.7945 74.9L80.8945 73.7C81.6545 73.0467 82.5479 72.5333 83.5745 72.16C84.6145 71.7867 85.7879 71.6 87.0945 71.6C88.1212 71.6 89.0212 71.6933 89.7945 71.88C90.5679 72.0667 91.2145 72.3267 91.7345 72.66C92.2545 72.9933 92.6412 73.3867 92.8945 73.84C93.1612 74.2933 93.2945 74.78 93.2945 75.3C93.2945 76.1533 93.0879 76.86 92.6745 77.42C92.2612 77.9667 91.6012 78.3933 90.6945 78.7C91.6945 78.9533 92.4745 79.38 93.0345 79.98C93.6079 80.5667 93.8945 81.34 93.8945 82.3C93.8945 82.8733 93.7612 83.4133 93.4945 83.92C93.2279 84.4133 92.8079 84.8467 92.2345 85.22C91.6745 85.58 90.9612 85.8667 90.0945 86.08C89.2279 86.2933 88.1945 86.4 86.9945 86.4C85.6879 86.4 84.4812 86.1933 83.3745 85.78C82.2812 85.3667 81.3545 84.8067 80.5945 84.1L81.5945 82.9C82.3545 83.6067 83.1612 84.12 84.0145 84.44C84.8679 84.7467 85.7945 84.9 86.7945 84.9C88.1945 84.9 89.2079 84.6333 89.8345 84.1C90.4745 83.5667 90.7945 82.9 90.7945 82.1C90.7945 81.3 90.5412 80.6867 90.0345 80.26C89.5279 79.82 88.7479 79.6 87.6945 79.6H83.5945V78.1H87.2945C89.2279 78.1 90.1945 77.2333 90.1945 75.5C90.1945 74.7933 89.9079 74.22 89.3345 73.78C88.7612 73.3267 87.9479 73.1 86.8945 73.1ZM103.902 73C103.382 73 102.875 73.1133 102.382 73.34C101.888 73.5533 101.448 73.9 101.062 74.38C100.688 74.86 100.382 75.48 100.142 76.24C99.9149 77 99.8016 77.92 99.8016 79C99.8016 80.08 99.9149 81 100.142 81.76C100.382 82.52 100.688 83.14 101.062 83.62C101.448 84.1 101.888 84.4533 102.382 84.68C102.875 84.8933 103.382 85 103.902 85C104.422 85 104.928 84.8933 105.422 84.68C105.915 84.4533 106.348 84.1 106.722 83.62C107.108 83.14 107.415 82.52 107.642 81.76C107.882 81 108.002 80.08 108.002 79C108.002 77.92 107.882 77 107.642 76.24C107.415 75.48 107.108 74.86 106.722 74.38C106.348 73.9 105.915 73.5533 105.422 73.34C104.928 73.1133 104.422 73 103.902 73ZM103.902 71.6C104.955 71.6 105.922 71.7533 106.802 72.06C107.682 72.3533 108.442 72.8067 109.082 73.42C109.722 74.0333 110.215 74.8067 110.562 75.74C110.922 76.66 111.102 77.7467 111.102 79C111.102 80.2533 110.922 81.3467 110.562 82.28C110.215 83.2 109.722 83.9667 109.082 84.58C108.442 85.1933 107.682 85.6533 106.802 85.96C105.922 86.2533 104.955 86.4 103.902 86.4C102.848 86.4 101.882 86.2533 101.002 85.96C100.122 85.6533 99.3616 85.1933 98.7216 84.58C98.0816 83.9667 97.5816 83.2 97.2216 82.28C96.8749 81.3467 96.7016 80.2533 96.7016 79C96.7016 77.7467 96.8749 76.66 97.2216 75.74C97.5816 74.8067 98.0816 74.0333 98.7216 73.42C99.3616 72.8067 100.122 72.3533 101.002 72.06C101.882 71.7533 102.848 71.6 103.902 71.6ZM117.008 71.6C117.501 71.6 117.961 71.6733 118.388 71.82C118.828 71.9533 119.201 72.16 119.508 72.44C119.814 72.7067 120.054 73.0467 120.228 73.46C120.414 73.8733 120.508 74.3533 120.508 74.9C120.508 75.4467 120.414 75.9267 120.228 76.34C120.054 76.7533 119.814 77.1 119.508 77.38C119.201 77.6467 118.828 77.8533 118.388 78C117.961 78.1333 117.501 78.2 117.008 78.2C116.501 78.2 116.034 78.1333 115.608 78C115.181 77.8533 114.814 77.6467 114.508 77.38C114.201 77.1 113.954 76.7533 113.768 76.34C113.594 75.9267 113.508 75.4467 113.508 74.9C113.508 74.3533 113.594 73.8733 113.768 73.46C113.954 73.0467 114.201 72.7067 114.508 72.44C114.814 72.16 115.181 71.9533 115.608 71.82C116.034 71.6733 116.501 71.6 117.008 71.6ZM117.008 77.1C117.354 77.1 117.654 76.9333 117.908 76.6C118.174 76.2667 118.308 75.7 118.308 74.9C118.308 74.1 118.174 73.5333 117.908 73.2C117.654 72.8667 117.354 72.7 117.008 72.7C116.661 72.7 116.354 72.8667 116.088 73.2C115.834 73.5333 115.708 74.1 115.708 74.9C115.708 75.7 115.834 76.2667 116.088 76.6C116.354 76.9333 116.661 77.1 117.008 77.1Z" fill="#349AC0"/>
<defs>
<linearGradient id="paint0_linear_197_3" x1="90.1836" y1="80.21" x2="98.1413" y2="41.0332" gradientUnits="userSpaceOnUse">
<stop stop-color="white"/>
<stop offset="0.09" stop-color="white" stop-opacity="0.95"/>
<stop offset="0.27" stop-color="white" stop-opacity="0.8"/>
<stop offset="0.5" stop-color="white" stop-opacity="0.57"/>
<stop offset="0.79" stop-color="white" stop-opacity="0.25"/>
<stop offset="1" stop-color="white" stop-opacity="0"/>
</linearGradient>
<linearGradient id="paint1_linear_197_3" x1="95.568" y1="23.51" x2="93.0154" y2="96.7498" gradientUnits="userSpaceOnUse">
<stop stop-color="white"/>
<stop offset="0.09" stop-color="white" stop-opacity="0.95"/>
<stop offset="0.27" stop-color="white" stop-opacity="0.8"/>
<stop offset="0.5" stop-color="white" stop-opacity="0.57"/>
<stop offset="0.79" stop-color="white" stop-opacity="0.25"/>
<stop offset="1" stop-color="white" stop-opacity="0"/>
</linearGradient>
<linearGradient id="paint2_linear_197_3" x1="113.559" y1="29.6301" x2="109.405" y2="51.6585" gradientUnits="userSpaceOnUse">
<stop stop-color="white"/>
<stop offset="0.09" stop-color="white" stop-opacity="0.95"/>
<stop offset="0.27" stop-color="white" stop-opacity="0.8"/>
<stop offset="0.5" stop-color="white" stop-opacity="0.57"/>
<stop offset="0.79" stop-color="white" stop-opacity="0.25"/>
<stop offset="1" stop-color="white" stop-opacity="0"/>
</linearGradient>
<linearGradient id="paint3_linear_197_3" x1="96.4872" y1="70.77" x2="98.6194" y2="109.09" gradientUnits="userSpaceOnUse">
<stop stop-color="white"/>
<stop offset="0.09" stop-color="white" stop-opacity="0.95"/>
<stop offset="0.27" stop-color="white" stop-opacity="0.8"/>
<stop offset="0.5" stop-color="white" stop-opacity="0.57"/>
<stop offset="0.79" stop-color="white" stop-opacity="0.25"/>
<stop offset="1" stop-color="white" stop-opacity="0"/>
</linearGradient>
<linearGradient id="paint4_linear_197_3" x1="99.3727" y1="108.748" x2="66.3341" y2="142.774" gradientUnits="userSpaceOnUse">
<stop stop-color="#E4E8F4"/>
<stop offset="0.4" stop-color="#E3DBF3"/>
<stop offset="1" stop-color="#E3CEF3"/>
</linearGradient>
</defs>
</svg>
