<svg width="179" height="168" viewBox="0 0 179 168" fill="none" xmlns="http://www.w3.org/2000/svg">
<path d="M142.031 160.55C132.671 160.55 123.311 156.98 116.188 149.85L113.151 146.81L118.096 141.86L121.133 144.9C126.717 150.49 134.14 153.57 142.031 153.57C149.923 153.57 157.355 150.49 162.939 144.9C168.524 139.31 171.6 131.88 171.6 123.97C171.6 116.06 168.524 108.63 162.939 103.04L149.124 89.21C148.505 88.59 147.635 88.23 146.756 88.23H136.057V81.23H146.756C149.523 81.23 152.121 82.31 154.069 84.26L167.884 98.09C182.139 112.36 182.139 135.57 167.884 149.84C160.762 156.97 151.402 160.54 142.041 160.54L142.031 160.55Z" fill="#262626"/>
<path d="M136.757 77.7H145.188C146.607 77.7 147.755 78.85 147.755 80.27V89.59C147.755 91.01 146.607 92.16 145.188 92.16H136.757V77.71V77.7Z" fill="#349AC0"/>
<path d="M141.152 17.54V136.06C141.152 145.72 133.33 153.56 123.68 153.56H51.4357C41.7857 153.56 33.9639 145.73 33.9639 136.06V135.12V17.53C33.9639 7.85 41.8057 0 51.4656 0H123.64C133.31 0 141.152 7.85 141.152 17.53V17.54Z" fill="#349AC0"/>
<path style="mix-blend-mode:screen" opacity="0.25" d="M141.152 17.53C141.152 7.85 133.31 0 123.64 0H51.4756C41.8057 0 33.9639 7.85 33.9639 17.53V57.12C45.5418 68.31 61.1855 77.39 79.4365 82.51C101.583 88.71 123.471 87.91 141.152 81.62V17.53Z" fill="url(#paint0_linear_12_6780)"/>
<path style="mix-blend-mode:screen" opacity="0.5" d="M123.64 0H51.4656C41.7957 0 33.9639 7.85 33.9639 17.53V20.27C33.9639 10.59 41.7957 2.75 51.4656 2.75H123.64C133.31 2.75 141.152 10.59 141.152 20.27V17.53C141.152 7.85 133.31 0 123.64 0Z" fill="url(#paint1_linear_12_6780)"/>
<path d="M87.5579 24.38C74.6214 24.38 62.8137 28.82 53.8131 36.14C52.7842 36.97 52.7242 38.52 53.6832 39.43L61.9047 47.19C62.6838 47.93 63.8926 47.99 64.7317 47.32C70.8353 42.41 78.817 39.42 87.5579 39.42C96.2988 39.42 104.281 42.4 110.384 47.32C111.223 47.99 112.432 47.93 113.211 47.19L121.433 39.43C122.392 38.52 122.332 36.98 121.303 36.14C112.312 28.82 100.504 24.38 87.5579 24.38Z" fill="white"/>
<path d="M114.779 14.68L109.934 29.13L105.02 43.77H105.01C102.023 42.15 98.7461 40.94 95.2698 40.23H95.2598L105.159 27.26L114.769 14.68H114.779Z" fill="#B2DAE9"/>
<path style="mix-blend-mode:screen" opacity="0.25" d="M114.779 14.68L105.169 27.26L95.2695 40.22H95.2795C97.1875 40.62 99.0156 41.18 100.794 41.85L114.789 14.68H114.779Z" fill="url(#paint2_linear_12_6780)"/>
<path style="mix-blend-mode:screen" opacity="0.35" d="M104.89 49.47C103.611 48.72 102.222 48.03 100.814 47.47C99.4153 46.88 97.9768 46.38 96.5084 45.99C93.5914 45.19 90.5745 44.75 87.5577 44.76C84.5408 44.75 81.534 45.19 78.607 45.99C77.1385 46.37 75.7 46.88 74.3015 47.47C72.893 48.03 71.5044 48.72 70.2257 49.47L70.1858 49.49C69.9261 49.64 69.5864 49.56 69.4366 49.3C69.2967 49.06 69.3566 48.75 69.5764 48.58C72.1637 46.63 75.0507 45.27 78.0975 44.28C81.1344 43.29 84.351 42.83 87.5577 42.77C90.7643 42.83 93.971 43.29 97.0178 44.28C100.065 45.27 102.952 46.62 105.539 48.58C105.779 48.76 105.829 49.11 105.649 49.35C105.479 49.57 105.169 49.63 104.93 49.49L104.89 49.47Z" fill="url(#paint3_linear_12_6780)"/>
<path d="M115.971 81.4021C119.545 66.0514 110.011 50.7067 94.6761 47.1288C79.3413 43.5509 64.0125 53.0947 60.4384 68.4455C56.8642 83.7962 66.3981 99.1409 81.7329 102.719C97.0677 106.297 112.396 96.7529 115.971 81.4021Z" fill="white"/>
<path d="M162.93 144.9C151.402 156.44 132.651 156.44 121.123 144.9L118.086 141.86L113.142 146.81L116.178 149.85C123.301 156.98 132.661 160.55 142.022 160.55C151.382 160.55 160.742 156.98 167.865 149.85L162.92 144.9H162.93Z" fill="#212121"/>
<path d="M70.3704 75.5193C70.3704 66.0491 78.0397 58.3718 87.5 58.3718C93.1034 58.3718 98.0793 61.0646 101.205 65.2308H97.4352C97.2535 65.2308 97.0792 65.303 96.9507 65.4317C96.8222 65.5603 96.75 65.7348 96.75 65.9167C96.75 66.0986 96.8222 66.2731 96.9507 66.4017C97.0792 66.5303 97.2535 66.6026 97.4352 66.6026H102.514C102.696 66.6026 102.87 66.5303 102.999 66.4017C103.127 66.2731 103.199 66.0986 103.199 65.9167V60.9439C103.199 60.762 103.127 60.5875 102.999 60.4589C102.87 60.3303 102.696 60.258 102.514 60.258C102.332 60.258 102.158 60.3303 102.03 60.4589C101.901 60.5875 101.829 60.762 101.829 60.9439V63.8048C98.4373 59.6524 93.2782 57 87.5 57C77.2829 57 69 65.2915 69 75.5193C68.997 77.9642 69.4791 80.3854 70.4183 82.6423C70.4519 82.727 70.502 82.8041 70.5656 82.8692C70.6293 82.9343 70.7053 82.986 70.7891 83.0214C70.8729 83.0568 70.963 83.0751 71.054 83.0752C71.145 83.0754 71.2351 83.0574 71.3191 83.0224C71.403 82.9873 71.4792 82.9358 71.5431 82.871C71.607 82.8061 71.6573 82.7292 71.6912 82.6446C71.7251 82.5601 71.7418 82.4696 71.7403 82.3786C71.7389 82.2875 71.7194 82.1976 71.6829 82.1142C70.8135 80.0245 70.3673 77.7829 70.3704 75.5193ZM104.655 68.5745C104.622 68.4904 104.572 68.4138 104.509 68.349C104.446 68.2841 104.371 68.2325 104.288 68.1969C104.205 68.1613 104.115 68.1425 104.025 68.1416C103.935 68.1407 103.845 68.1577 103.761 68.1916C103.677 68.2255 103.601 68.2757 103.537 68.3392C103.472 68.4028 103.421 68.4784 103.386 68.5619C103.351 68.6453 103.333 68.7348 103.333 68.8252C103.333 68.9157 103.35 69.0053 103.385 69.089C104.21 71.132 104.633 73.3155 104.63 75.5193C104.63 84.9895 96.9603 92.6667 87.5 92.6667C81.8198 92.6667 76.7851 89.8998 73.6678 85.6363H77.7361C77.9178 85.6363 78.0921 85.564 78.2206 85.4354C78.3491 85.3067 78.4213 85.1323 78.4213 84.9504C78.4213 84.7685 78.3491 84.594 78.2206 84.4654C78.0921 84.3367 77.9178 84.2645 77.7361 84.2645H72.3773C72.1956 84.2645 72.0213 84.3367 71.8928 84.4654C71.7643 84.594 71.6921 84.7685 71.6921 84.9504V89.9231C71.6921 90.105 71.7643 90.2795 71.8928 90.4081C72.0213 90.5368 72.1956 90.609 72.3773 90.609C72.559 90.609 72.7333 90.5368 72.8618 90.4081C72.9903 90.2795 73.0625 90.105 73.0625 89.9231V87.1C76.4524 91.3292 81.6598 94.0385 87.5 94.0385C97.7171 94.0385 106 85.747 106 75.5193C106.003 73.1392 105.546 70.7811 104.655 68.5745Z" fill="#349AC0"/>
<path d="M88.2354 65.2308C88.2354 65.0488 88.1632 64.8744 88.0347 64.7458C87.9062 64.6171 87.7319 64.5449 87.5502 64.5449C87.3685 64.5449 87.1942 64.6171 87.0657 64.7458C86.9372 64.8744 86.865 65.0488 86.865 65.2308V66.712L86.1682 66.1746C86.0971 66.1179 86.0154 66.0761 85.9279 66.0514C85.8405 66.0267 85.749 66.0196 85.6588 66.0306C85.5686 66.0417 85.4815 66.0705 85.4025 66.1156C85.3236 66.1606 85.2544 66.221 85.1989 66.293C85.1435 66.3651 85.1029 66.4475 85.0796 66.5354C85.0563 66.6233 85.0507 66.715 85.0631 66.8051C85.0755 66.8953 85.1057 66.982 85.1519 67.0603C85.1981 67.1387 85.2594 67.207 85.3323 67.2614L86.865 68.4435V69.4086L84.8163 67.5042C84.6832 67.3804 84.5064 67.3146 84.3248 67.3213C84.1432 67.3281 83.9717 67.4067 83.848 67.54C83.7243 67.6733 83.6586 67.8503 83.6654 68.0321C83.6721 68.2139 83.7506 68.3856 83.8838 68.5094L86.865 71.2804V74.6351L83.8619 72.9132L83.1226 69.163C83.0874 68.9845 82.9828 68.8273 82.8319 68.726C82.6809 68.6247 82.496 68.5875 82.3176 68.6227C82.1393 68.6579 81.9823 68.7626 81.8811 68.9137C81.7798 69.0648 81.7427 69.25 81.7779 69.4285L82.287 72.0098L81.3654 71.4814L81.0235 69.6648C80.9865 69.4893 80.8824 69.3353 80.7334 69.2357C80.5844 69.1362 80.4023 69.099 80.2263 69.1322C80.0502 69.1654 79.8941 69.2663 79.7915 69.4132C79.6888 69.5602 79.6478 69.7416 79.6771 69.9185L79.8022 70.5849L78.5908 69.8904C78.4334 69.8045 78.2487 69.7837 78.0762 69.8325C77.9037 69.8813 77.7572 69.9959 77.6681 70.1516C77.579 70.3073 77.5544 70.4917 77.5995 70.6654C77.6447 70.839 77.756 70.988 77.9097 71.0804L79.267 71.8589L78.6589 72.1453C78.5758 72.1825 78.5009 72.2359 78.4386 72.3024C78.3764 72.3689 78.3279 72.4472 78.2962 72.5326C78.2645 72.6181 78.2501 72.709 78.2539 72.8001C78.2577 72.8911 78.2796 72.9805 78.3183 73.0631C78.357 73.1456 78.4118 73.2195 78.4794 73.2806C78.547 73.3417 78.626 73.3887 78.712 73.4188C78.7979 73.449 78.889 73.4616 78.9799 73.4561C79.0708 73.4506 79.1597 73.4271 79.2413 73.3868L80.7189 72.6916L81.4925 73.1354L79.1646 73.7911C78.9917 73.8422 78.8459 73.9594 78.7587 74.1173C78.6715 74.2752 78.65 74.4612 78.6989 74.6349C78.7477 74.8086 78.863 74.956 79.0197 75.0452C79.1764 75.1344 79.3619 75.1582 79.536 75.1115L83.1592 74.0909L86.1216 75.7898L83.1674 77.484L79.551 76.3735C79.4648 76.3463 79.374 76.3363 79.2839 76.3444C79.1938 76.3524 79.1062 76.3782 79.0261 76.4203C78.946 76.4624 78.875 76.52 78.8173 76.5897C78.7595 76.6594 78.7162 76.7399 78.6896 76.8264C78.6631 76.913 78.654 77.004 78.6627 77.0941C78.6715 77.1842 78.698 77.2717 78.7407 77.3515C78.7835 77.4313 78.8415 77.5019 78.9117 77.5591C78.9818 77.6164 79.0625 77.6591 79.1492 77.685L81.5377 78.4185L80.6665 78.9179L79.1499 78.4549C79.0638 78.4286 78.9734 78.4196 78.8838 78.4283C78.7942 78.437 78.7072 78.4633 78.6278 78.5057C78.5484 78.5481 78.4781 78.6057 78.4209 78.6753C78.3637 78.7448 78.3208 78.825 78.2946 78.9112C78.2684 78.9974 78.2593 79.0879 78.268 79.1775C78.2768 79.2672 78.303 79.3543 78.3454 79.4338C78.3877 79.5133 78.4452 79.5836 78.5147 79.6409C78.5842 79.6981 78.6643 79.7411 78.7504 79.7673L79.0344 79.8541L77.9097 80.4989C77.8315 80.5436 77.7629 80.6033 77.7078 80.6746C77.6527 80.7458 77.6122 80.8273 77.5885 80.9142C77.5649 81.0012 77.5586 81.092 77.57 81.1814C77.5814 81.2708 77.6103 81.3571 77.6551 81.4353C77.6998 81.5135 77.7595 81.5821 77.8308 81.6372C77.902 81.6923 77.9834 81.7328 78.0703 81.7564C78.1572 81.78 78.2479 81.7862 78.3372 81.7747C78.4265 81.7631 78.5127 81.7341 78.5908 81.6892L79.7508 81.0239L79.6809 81.3442C79.6453 81.5206 79.6805 81.704 79.7787 81.8547C79.877 82.0054 80.0304 82.1114 80.2061 82.1499C80.3817 82.1883 80.5654 82.1562 80.7175 82.0603C80.8697 81.9645 80.9781 81.8126 81.0194 81.6374L81.3544 80.1045L82.178 79.6322L81.5871 81.9135C81.5415 82.0896 81.5676 82.2766 81.6597 82.4334C81.7519 82.5902 81.9024 82.704 82.0783 82.7496C82.2542 82.7953 82.4411 82.7691 82.5977 82.6769C82.7543 82.5847 82.868 82.4339 82.9136 82.2578L83.841 78.6788L86.865 76.9445V80.3771L83.9109 82.8481C83.8418 82.9058 83.7848 82.9766 83.7431 83.0565C83.7013 83.1363 83.6757 83.2235 83.6677 83.3133C83.6597 83.403 83.6694 83.4934 83.6963 83.5794C83.7231 83.6654 83.7667 83.7452 83.8244 83.8143C83.8821 83.8835 83.9528 83.9405 84.0325 83.9823C84.1123 84.0241 84.1994 84.0497 84.2891 84.0577C84.3787 84.0658 84.469 84.0561 84.5549 84.0292C84.6408 84.0023 84.7206 83.9587 84.7896 83.9009L86.865 82.1646V83.1132L85.7986 84.0484C85.6619 84.1683 85.5783 84.3376 85.5663 84.5191C85.5544 84.7007 85.6149 84.8795 85.7347 85.0164C85.8544 85.1532 86.0236 85.2368 86.2049 85.2488C86.3862 85.2608 86.5649 85.2002 86.7016 85.0803L86.865 84.937V86.1507C86.865 86.3326 86.9372 86.507 87.0657 86.6357C87.1942 86.7643 87.3685 86.8366 87.5502 86.8366C87.7319 86.8366 87.9062 86.7643 88.0347 86.6357C88.1632 86.507 88.2354 86.3326 88.2354 86.1507V84.8663L88.5177 85.0961C88.5873 85.1541 88.6678 85.1978 88.7544 85.2245C88.841 85.2512 88.932 85.2604 89.0222 85.2517C89.1124 85.2429 89.2 85.2164 89.2799 85.1735C89.3597 85.1306 89.4303 85.0723 89.4875 85.002C89.5447 84.9316 89.5874 84.8506 89.6131 84.7636C89.6389 84.6766 89.6471 84.5854 89.6373 84.4952C89.6276 84.405 89.6001 84.3177 89.5564 84.2382C89.5127 84.1588 89.4537 84.0887 89.3828 84.0323L88.2351 83.0981V82.263L89.9857 83.879C90.1193 84.0023 90.2964 84.0675 90.478 84.0601C90.5679 84.0564 90.6562 84.0351 90.7379 83.9973C90.8196 83.9595 90.893 83.9059 90.9541 83.8397C91.0151 83.7735 91.0624 83.6959 91.0935 83.6113C91.1245 83.5268 91.1386 83.4369 91.135 83.3469C91.1313 83.2569 91.11 83.1685 91.0723 83.0867C91.0345 83.0049 90.981 82.9314 90.9148 82.8704L88.2354 80.397V77.0018L91.1509 78.6737L91.983 82.2417C92.0255 82.4177 92.1357 82.5697 92.2897 82.6647C92.4436 82.7597 92.6289 82.7898 92.805 82.7487C92.9811 82.7075 93.1338 82.5983 93.2298 82.4448C93.3258 82.2914 93.3573 82.1062 93.3174 81.9296L92.7754 79.6051L93.6069 80.0822L93.769 81.5654C93.7787 81.655 93.8061 81.7417 93.8493 81.8207C93.8926 81.8997 93.951 81.9694 94.0212 82.0258C94.0914 82.0822 94.172 82.1242 94.2583 82.1494C94.3447 82.1747 94.4353 82.1826 94.5247 82.1728C94.6142 82.163 94.7008 82.1357 94.7798 82.0923C94.8587 82.049 94.9283 81.9906 94.9846 81.9203C95.0409 81.8501 95.0829 81.7694 95.1081 81.6829C95.1333 81.5964 95.1412 81.5058 95.1315 81.4162L95.0777 80.9258L96.4097 81.6892C96.4878 81.7363 96.5746 81.7672 96.6648 81.7802C96.7551 81.7932 96.847 81.7881 96.9352 81.7651C97.0235 81.7421 97.1062 81.7017 97.1787 81.6463C97.2511 81.5908 97.3118 81.5215 97.3571 81.4423C97.4025 81.3631 97.4315 81.2756 97.4427 81.185C97.4538 81.0944 97.4467 81.0025 97.4219 80.9147C97.3971 80.8269 97.355 80.7449 97.2982 80.6735C97.2413 80.6022 97.1708 80.5429 97.0907 80.4992L96.2565 80.0208L96.4631 79.9862C96.5519 79.9713 96.6369 79.9391 96.7132 79.8914C96.7895 79.8437 96.8557 79.7814 96.908 79.7081C96.9603 79.6347 96.9976 79.5518 97.0179 79.4641C97.0382 79.3763 97.041 79.2854 97.0262 79.1965C97.0113 79.1077 96.9792 79.0226 96.9315 78.9462C96.8838 78.8698 96.8216 78.8035 96.7484 78.7512C96.6751 78.6988 96.5923 78.6614 96.5046 78.6411C96.4169 78.6208 96.3261 78.618 96.2373 78.6329L94.3784 78.9436L93.449 78.4106L95.756 77.6836C95.8418 77.6565 95.9215 77.6128 95.9905 77.555C96.0595 77.4971 96.1164 77.4262 96.158 77.3463C96.1996 77.2664 96.225 77.1791 96.2329 77.0894C96.2408 76.9996 96.231 76.9092 96.2039 76.8233C96.1769 76.7374 96.1333 76.6576 96.0755 76.5886C96.0176 76.5195 95.9468 76.4626 95.867 76.4209C95.7872 76.3793 95.7 76.3538 95.6104 76.3459C95.5207 76.338 95.4304 76.3479 95.3445 76.3749L91.8306 77.4826L88.8788 75.7898L91.8388 74.0922L95.36 75.1104C95.5346 75.1609 95.722 75.1399 95.8811 75.052C96.0402 74.9641 96.158 74.8166 96.2084 74.6418C96.2588 74.467 96.2378 74.2794 96.15 74.1201C96.0622 73.9608 95.9148 73.843 95.7402 73.7925L93.4942 73.1429L94.3616 72.6457L95.7036 72.9403C95.8704 72.9771 96.045 72.9502 96.1931 72.8648C96.3412 72.7795 96.452 72.6418 96.5039 72.4788C96.5558 72.3158 96.5451 72.1393 96.4737 71.9839C96.4023 71.8285 96.2755 71.7054 96.1181 71.6388L97.0911 71.0808C97.1692 71.036 97.2377 70.9762 97.2927 70.9049C97.3477 70.8336 97.3881 70.7521 97.4117 70.6652C97.4352 70.5782 97.4414 70.4875 97.43 70.3981C97.4185 70.3087 97.3895 70.2225 97.3448 70.1444C97.3 70.0662 97.2403 69.9976 97.1691 69.9426C97.0978 69.8875 97.0165 69.847 96.9296 69.8234C96.8427 69.7999 96.7521 69.7936 96.6628 69.8051C96.5735 69.8166 96.4874 69.8456 96.4093 69.8904L95.0777 70.6542L95.1315 70.1637C95.1513 69.9829 95.0985 69.8015 94.9847 69.6596C94.871 69.5177 94.7056 69.4269 94.5249 69.407C94.3442 69.3872 94.1631 69.44 94.0213 69.5539C93.8795 69.6678 93.7888 69.8334 93.769 70.0142L93.6069 71.4975L92.7463 71.9913L93.3198 69.342C93.3389 69.254 93.3405 69.163 93.3244 69.0744C93.3084 68.9857 93.2751 68.9011 93.2264 68.8254C93.1777 68.7496 93.1145 68.6842 93.0406 68.6328C92.9666 68.5815 92.8833 68.5453 92.7953 68.5262C92.7074 68.5071 92.6165 68.5055 92.5279 68.5215C92.4394 68.5376 92.3549 68.571 92.2792 68.6197C92.2035 68.6685 92.1381 68.7317 92.0869 68.8057C92.0356 68.8797 91.9994 68.9632 91.9803 69.0512L91.1454 72.9094L88.2358 74.5778V71.2605L90.9409 68.486C91.0651 68.3554 91.133 68.1809 91.1297 68.0005C91.1264 67.8202 91.0522 67.6483 90.9232 67.5223C90.7943 67.3963 90.6209 67.3262 90.4407 67.3272C90.2604 67.3282 90.0879 67.4003 89.9604 67.5278L88.2358 69.2964V68.4318L89.6835 67.2494C89.7533 67.1924 89.8111 67.1223 89.8538 67.043C89.8965 66.9637 89.9231 66.8768 89.9322 66.7871C89.9413 66.6975 89.9327 66.607 89.9068 66.5207C89.881 66.4344 89.8384 66.3541 89.7815 66.2843C89.7247 66.2145 89.6546 66.1566 89.5754 66.1139C89.4962 66.0712 89.4093 66.0445 89.3198 66.0354C89.2303 66.0263 89.1398 66.0349 89.0537 66.0608C88.9675 66.0867 88.8872 66.1293 88.8175 66.1862L88.2358 66.6615L88.2354 65.2308Z" fill="#349AC0"/>
<path d="M122.23 141.154L126.137 145.626C127.189 146.83 127.066 148.664 125.863 149.718L121.502 153.536C120.298 154.589 118.466 154.466 117.414 153.262L113.508 148.79L122.223 141.161L122.23 141.154Z" fill="#B2DAE9"/>
<path d="M75.7904 116.19C75.7904 116.19 73.7226 129.32 73.7825 129.76C73.8425 130.2 95.2701 154.28 95.2701 154.28L96.9584 153.44L77.9682 130L80.8152 119.71L75.7904 116.19Z" fill="#252525"/>
<path d="M123.59 141.55L74.3513 88.22C73.8718 87.7 73.2425 87.36 72.5432 87.25L41.1659 82.16C39.3578 81.87 37.6795 83.18 37.5297 85.02L36.7505 94.8C36.6306 96.29 37.5697 97.65 39.0082 98.07L52.1245 101.9C53.4331 102.28 54.3522 103.47 54.3821 104.84L54.8517 122.41C54.8716 123.18 55.1713 123.91 55.7008 124.47L95.1097 166.73C96.2685 167.97 98.1965 168.07 99.4752 166.95L123.35 146.05C124.679 144.88 124.789 142.85 123.59 141.55ZM110.044 150.91L98.3963 161.43C97.8469 161.93 96.9977 161.88 96.5083 161.33L64.092 125.5C63.6525 125.02 63.6325 124.29 64.0321 123.77L70.795 115.15C71.2745 114.54 72.1736 114.46 72.753 114.99L110.054 148.92C110.644 149.45 110.634 150.38 110.054 150.91H110.044Z" fill="url(#paint4_linear_12_6780)"/>
<path d="M44.4128 90.49C44.6726 88.24 43.0643 86.21 40.8166 85.95L15.8926 83.06C15.2432 82.98 14.5839 83.06 13.9646 83.3L0.648438 88.37L4.34459 95.73L15.9325 91.32L39.8576 94.1C42.1053 94.36 44.1331 92.75 44.3929 90.5L44.4128 90.49Z" fill="#969696"/>
<path d="M61.235 119.02C64.9112 112.64 81.1842 106.98 91.1838 106.45L74.3513 88.22C73.8718 87.7 73.2425 87.36 72.5432 87.25L41.1659 82.16C39.3578 81.87 37.6795 83.18 37.5297 85.02L36.7505 94.8C36.6306 96.29 37.5697 97.65 39.0082 98.07L52.1245 101.9C53.4331 102.28 54.3522 103.47 54.3821 104.84L54.8517 122.41C54.8716 123.18 55.1713 123.91 55.7008 124.47L59.297 128.33C58.9474 126.06 59.0872 122.76 61.235 119.03V119.02Z" fill="#B2DAE9"/>
<path d="M61.8743 98.82C61.1351 98.4 42.4845 96.12 40.5466 94.66C38.9282 93.44 38.4787 85.67 38.3788 83.11C37.9093 83.61 37.5896 84.27 37.5297 85.01L36.7505 94.79C36.6306 96.28 37.5697 97.64 39.0082 98.06L52.1245 101.89C53.4331 102.27 54.3522 103.46 54.3821 104.83L54.8517 122.4C54.8716 123.17 55.1713 123.9 55.7008 124.46L59.297 128.32C58.0983 124.86 59.6866 120.72 61.4448 117.68C62.1841 116.402 69.2392 103.014 61.8743 98.83V98.82Z" fill="#494949"/>
<defs>
<linearGradient id="paint0_linear_12_6780" x1="82.1836" y1="75.21" x2="90.1413" y2="36.0332" gradientUnits="userSpaceOnUse">
<stop stop-color="white"/>
<stop offset="0.09" stop-color="white" stop-opacity="0.95"/>
<stop offset="0.27" stop-color="white" stop-opacity="0.8"/>
<stop offset="0.5" stop-color="white" stop-opacity="0.57"/>
<stop offset="0.79" stop-color="white" stop-opacity="0.25"/>
<stop offset="1" stop-color="white" stop-opacity="0"/>
</linearGradient>
<linearGradient id="paint1_linear_12_6780" x1="87.568" y1="18.51" x2="85.0154" y2="91.7498" gradientUnits="userSpaceOnUse">
<stop stop-color="white"/>
<stop offset="0.09" stop-color="white" stop-opacity="0.95"/>
<stop offset="0.27" stop-color="white" stop-opacity="0.8"/>
<stop offset="0.5" stop-color="white" stop-opacity="0.57"/>
<stop offset="0.79" stop-color="white" stop-opacity="0.25"/>
<stop offset="1" stop-color="white" stop-opacity="0"/>
</linearGradient>
<linearGradient id="paint2_linear_12_6780" x1="105.559" y1="24.63" x2="101.405" y2="46.6584" gradientUnits="userSpaceOnUse">
<stop stop-color="white"/>
<stop offset="0.09" stop-color="white" stop-opacity="0.95"/>
<stop offset="0.27" stop-color="white" stop-opacity="0.8"/>
<stop offset="0.5" stop-color="white" stop-opacity="0.57"/>
<stop offset="0.79" stop-color="white" stop-opacity="0.25"/>
<stop offset="1" stop-color="white" stop-opacity="0"/>
</linearGradient>
<linearGradient id="paint3_linear_12_6780" x1="88.4867" y1="65.77" x2="90.6189" y2="104.09" gradientUnits="userSpaceOnUse">
<stop stop-color="white"/>
<stop offset="0.09" stop-color="white" stop-opacity="0.95"/>
<stop offset="0.27" stop-color="white" stop-opacity="0.8"/>
<stop offset="0.5" stop-color="white" stop-opacity="0.57"/>
<stop offset="0.79" stop-color="white" stop-opacity="0.25"/>
<stop offset="1" stop-color="white" stop-opacity="0"/>
</linearGradient>
<linearGradient id="paint4_linear_12_6780" x1="91.3723" y1="103.748" x2="58.3336" y2="137.774" gradientUnits="userSpaceOnUse">
<stop stop-color="#E4E8F4"/>
<stop offset="0.4" stop-color="#E3DBF3"/>
<stop offset="1" stop-color="#E3CEF3"/>
</linearGradient>
</defs>
</svg>
