<svg width="187" height="173" viewBox="0 0 187 173" fill="none" xmlns="http://www.w3.org/2000/svg">
<path d="M2.84747 34.6006C2.84747 16.9069 17.1764 2.563 34.8517 2.563C45.3209 2.563 54.6175 7.59418 60.4576 15.378H53.4141C53.0746 15.378 52.749 15.513 52.5089 15.7534C52.2688 15.9937 52.134 16.3196 52.134 16.6595C52.134 16.9994 52.2688 17.3254 52.5089 17.5657C52.749 17.806 53.0746 17.941 53.4141 17.941H62.9034C63.2429 17.941 63.5685 17.806 63.8086 17.5657C64.0487 17.3254 64.1835 16.9994 64.1835 16.6595V7.36864C64.1835 7.02876 64.0487 6.70281 63.8086 6.46248C63.5685 6.22215 63.2429 6.08713 62.9034 6.08713C62.5638 6.08713 62.2382 6.22215 61.9982 6.46248C61.7581 6.70281 61.6232 7.02876 61.6232 7.36864V12.7138C55.2864 4.95557 45.6473 0 34.8517 0C15.7624 0 0.287135 15.4914 0.287135 34.6006C0.281583 39.1686 1.18232 43.6922 2.93708 47.9089C2.99978 48.0671 3.09333 48.2112 3.21226 48.3328C3.33119 48.4544 3.47313 48.5511 3.62979 48.6172C3.78644 48.6833 3.95468 48.7175 4.12468 48.7178C4.29469 48.7181 4.46305 48.6845 4.61994 48.619C4.77684 48.5535 4.91912 48.4573 5.03849 48.3361C5.15787 48.215 5.25193 48.0712 5.3152 47.9133C5.37847 47.7553 5.40969 47.5863 5.40701 47.4162C5.40434 47.246 5.36784 47.0781 5.29963 46.9222C3.67531 43.018 2.8418 38.8298 2.84747 34.6006ZM66.9033 21.6253C66.841 21.4682 66.7483 21.325 66.6305 21.2039C66.5127 21.0828 66.3722 20.9862 66.217 20.9197C66.0617 20.8532 65.8949 20.8181 65.7261 20.8164C65.5572 20.8147 65.3897 20.8465 65.2332 20.9099C65.0767 20.9733 64.9342 21.067 64.8141 21.1857C64.6939 21.3045 64.5984 21.4458 64.533 21.6016C64.4676 21.7575 64.4337 21.9247 64.4331 22.0937C64.4326 22.2628 64.4654 22.4302 64.5298 22.5865C66.0715 26.4037 66.8613 30.4832 66.8559 34.6006C66.8559 52.2942 52.527 66.6381 34.8517 66.6381C24.2391 66.6381 14.8324 61.4685 9.00828 53.5027H16.6093C16.9488 53.5027 17.2744 53.3677 17.5145 53.1274C17.7546 52.887 17.8895 52.5611 17.8895 52.2212C17.8895 51.8813 17.7546 51.5554 17.5145 51.315C17.2744 51.0747 16.9488 50.9397 16.6093 50.9397H6.59708C6.25756 50.9397 5.93195 51.0747 5.69187 51.315C5.45179 51.5554 5.31692 51.8813 5.31692 52.2212V61.5121C5.31692 61.852 5.45179 62.1779 5.69187 62.4183C5.93195 62.6586 6.25756 62.7936 6.59708 62.7936C6.93661 62.7936 7.26222 62.6586 7.5023 62.4183C7.74238 62.1779 7.87725 61.852 7.87725 61.5121V56.2374C14.2109 64.1392 23.9402 69.2011 34.8517 69.2011C53.9409 69.2011 69.4162 53.7097 69.4162 34.6006C69.4214 30.1538 68.5681 25.748 66.9033 21.6253Z" fill="#349AC0"/>
<path d="M36.2252 15.3781C36.2252 15.0382 36.0903 14.7122 35.8503 14.4719C35.6102 14.2316 35.2846 14.0966 34.9451 14.0966C34.6055 14.0966 34.2799 14.2316 34.0398 14.4719C33.7998 14.7122 33.6649 15.0382 33.6649 15.3781V18.1455L32.363 17.1414C32.2301 17.0356 32.0775 16.9574 31.9141 16.9112C31.7507 16.8651 31.5797 16.8519 31.4112 16.8725C31.2427 16.8931 31.0799 16.9471 30.9324 17.0312C30.7849 17.1154 30.6556 17.2281 30.552 17.3628C30.4484 17.4974 30.3726 17.6514 30.3291 17.8156C30.2855 17.9799 30.275 18.1512 30.2982 18.3196C30.3214 18.4879 30.3778 18.65 30.4641 18.7963C30.5505 18.9427 30.665 19.0704 30.8012 19.1719L33.6649 21.3806V23.1837L29.8372 19.6256C29.5884 19.3943 29.258 19.2714 28.9187 19.284C28.5794 19.2965 28.259 19.4435 28.028 19.6926C27.7969 19.9416 27.6742 20.2723 27.6867 20.612C27.6993 20.9516 27.8461 21.2724 28.0949 21.5036L33.6649 26.6809V32.9487L28.0539 29.7315L26.6726 22.7249C26.6069 22.3914 26.4116 22.0977 26.1295 21.9084C25.8475 21.7191 25.5019 21.6496 25.1687 21.7154C24.8356 21.7812 24.5422 21.9767 24.353 22.2591C24.1639 22.5414 24.0946 22.8874 24.1603 23.2209L25.1114 28.0438L23.3896 27.0564L22.7508 23.6623C22.6818 23.3345 22.4872 23.0467 22.2088 22.8607C21.9303 22.6747 21.5902 22.6053 21.2613 22.6673C20.9323 22.7293 20.6407 22.9178 20.449 23.1924C20.2572 23.467 20.1805 23.8059 20.2353 24.1365L20.4689 25.3815L18.2056 24.0839C17.9116 23.9234 17.5664 23.8846 17.2442 23.9758C16.9219 24.067 16.6482 24.281 16.4817 24.5719C16.3152 24.8628 16.2692 25.2074 16.3536 25.5318C16.438 25.8563 16.646 26.1347 16.9331 26.3073L19.4691 27.7619L18.333 28.2969C18.1776 28.3664 18.0377 28.4662 17.9214 28.5904C17.805 28.7147 17.7146 28.8609 17.6553 29.0205C17.5961 29.1802 17.5692 29.3501 17.5763 29.5202C17.5834 29.6904 17.6243 29.8574 17.6966 30.0116C17.7689 30.1657 17.8712 30.3039 17.9975 30.418C18.1238 30.5322 18.2715 30.6199 18.432 30.6763C18.5926 30.7326 18.7628 30.7563 18.9326 30.746C19.1024 30.7357 19.2685 30.6917 19.4211 30.6164L22.1818 29.3176L23.6271 30.1467L19.2777 31.3718C18.9547 31.4672 18.6822 31.6862 18.5194 31.9813C18.3565 32.2764 18.3163 32.6238 18.4076 32.9483C18.4989 33.2728 18.7142 33.5483 19.007 33.7149C19.2997 33.8816 19.6463 33.9261 19.9716 33.8387L26.7411 31.9319L32.2759 35.1061L26.7565 38.2715L19.9997 36.1967C19.8386 36.1457 19.6689 36.1272 19.5006 36.1423C19.3323 36.1573 19.1685 36.2055 19.0189 36.2842C18.8693 36.3628 18.7367 36.4704 18.6288 36.6006C18.5209 36.7308 18.4399 36.8812 18.3903 37.0429C18.3407 37.2046 18.3237 37.3746 18.3401 37.543C18.3565 37.7114 18.406 37.8748 18.4858 38.024C18.5656 38.1731 18.6742 38.3049 18.8051 38.4118C18.9361 38.5188 19.0869 38.5987 19.2489 38.6469L23.7116 40.0175L22.0838 40.9504L19.2502 40.0854C19.0893 40.0364 18.9204 40.0195 18.7531 40.0358C18.5857 40.0521 18.4232 40.1012 18.2748 40.1804C18.1264 40.2595 17.9951 40.3672 17.8883 40.4972C17.7814 40.6272 17.7012 40.7769 17.6522 40.9379C17.6032 41.0989 17.5864 41.268 17.6026 41.4356C17.6189 41.6031 17.668 41.7658 17.7471 41.9143C17.8262 42.0629 17.9337 42.1944 18.0635 42.3013C18.1934 42.4082 18.343 42.4885 18.5039 42.5376L19.0345 42.6997L16.9331 43.9043C16.787 43.9878 16.6589 44.0994 16.5559 44.2326C16.4529 44.3657 16.3772 44.5179 16.333 44.6804C16.2888 44.8429 16.2771 45.0125 16.2984 45.1795C16.3198 45.3465 16.3738 45.5077 16.4574 45.6538C16.541 45.8 16.6525 45.9282 16.7857 46.0311C16.9188 46.134 17.0709 46.2097 17.2332 46.2538C17.3956 46.2978 17.565 46.3094 17.7319 46.2879C17.8987 46.2664 18.0597 46.2122 18.2056 46.1283L20.3729 44.8853L20.2423 45.4837C20.1759 45.8133 20.2416 46.1558 20.4251 46.4374C20.6087 46.719 20.8954 46.9171 21.2236 46.989C21.5517 47.0608 21.8949 47.0007 22.1791 46.8217C22.4634 46.6426 22.6659 46.3588 22.7431 46.0316L23.3691 43.1674L24.9079 42.2851L23.8038 46.5474C23.7185 46.8764 23.7674 47.2258 23.9395 47.5188C24.1116 47.8117 24.393 48.0242 24.7216 48.1095C25.0503 48.1949 25.3993 48.146 25.692 47.9737C25.9846 47.8013 26.1969 47.5197 26.2822 47.1907L28.0149 40.5038L33.6649 37.2635V43.6768L28.1454 48.2934C28.0164 48.4014 27.9099 48.5337 27.8319 48.6828C27.754 48.8319 27.7061 48.9949 27.6911 49.1626C27.6761 49.3302 27.6942 49.4992 27.7445 49.6598C27.7947 49.8204 27.876 49.9696 27.9838 50.0988C28.0916 50.2279 28.2238 50.3346 28.3728 50.4126C28.5217 50.4906 28.6846 50.5385 28.8521 50.5535C29.0195 50.5686 29.1883 50.5504 29.3488 50.5002C29.5092 50.4499 29.6582 50.3685 29.7873 50.2605L33.6649 47.0164V48.7887L31.6723 50.5361C31.4169 50.76 31.2608 51.0764 31.2385 51.4156C31.2161 51.7547 31.3292 52.0889 31.5529 52.3446C31.7767 52.6003 32.0927 52.7565 32.4315 52.7789C32.7703 52.8013 33.1042 52.6881 33.3596 52.4641L33.6649 52.1963V54.4639C33.6649 54.8037 33.7998 55.1297 34.0398 55.37C34.2799 55.6104 34.6055 55.7454 34.9451 55.7454C35.2846 55.7454 35.6102 55.6104 35.8503 55.37C36.0903 55.1297 36.2252 54.8037 36.2252 54.4639V52.0643L36.7527 52.4936C36.8828 52.602 37.0331 52.6835 37.1949 52.7334C37.3567 52.7833 37.5268 52.8006 37.6953 52.7843C37.8638 52.7679 38.0274 52.7183 38.1766 52.6382C38.3259 52.5581 38.4577 52.4492 38.5646 52.3177C38.6715 52.1863 38.7513 52.0349 38.7993 51.8724C38.8474 51.7099 38.8627 51.5394 38.8445 51.3709C38.8263 51.2024 38.7749 51.0392 38.6933 50.8907C38.6116 50.7423 38.5014 50.6115 38.3689 50.506L36.2246 48.7605V47.2003L39.4954 50.2195C39.745 50.45 40.0759 50.5717 40.4152 50.5579C40.5832 50.5511 40.7482 50.5113 40.9008 50.4406C41.0534 50.37 41.1906 50.2699 41.3046 50.1462C41.4186 50.0224 41.5071 49.8774 41.5651 49.7195C41.6231 49.5615 41.6495 49.3936 41.6427 49.2254C41.6359 49.0573 41.596 48.8921 41.5255 48.7393C41.4549 48.5865 41.3549 48.4492 41.2313 48.3351L36.2252 43.714V37.3706L41.6723 40.4942L43.2271 47.1606C43.3064 47.4894 43.5123 47.7734 43.8 47.9509C44.0877 48.1283 44.4337 48.1847 44.7628 48.1077C45.0918 48.0308 45.3771 47.8267 45.5564 47.5401C45.7358 47.2534 45.7947 46.9074 45.7202 46.5775L44.7076 42.2345L46.2611 43.1258L46.5639 45.897C46.5821 46.0644 46.6332 46.2264 46.714 46.374C46.7949 46.5216 46.904 46.6518 47.0351 46.7572C47.1662 46.8625 47.3168 46.941 47.4782 46.9881C47.6396 47.0353 47.8087 47.0501 47.9759 47.0318C48.143 47.0135 48.305 46.9624 48.4524 46.8815C48.5998 46.8005 48.7299 46.6913 48.8351 46.5601C48.9404 46.4288 49.0188 46.2781 49.0659 46.1165C49.1129 45.9549 49.1278 45.7856 49.1095 45.6183L49.009 44.702L51.4976 46.1283C51.6437 46.2162 51.8057 46.274 51.9743 46.2983C52.143 46.3226 52.3147 46.313 52.4796 46.2701C52.6445 46.2271 52.7991 46.1516 52.9344 46.0481C53.0698 45.9445 53.1831 45.8149 53.2678 45.667C53.3525 45.519 53.4068 45.3556 53.4276 45.1863C53.4484 45.0171 53.4353 44.8453 53.3889 44.6812C53.3426 44.5171 53.264 44.3639 53.1577 44.2306C53.0514 44.0973 52.9197 43.9866 52.7701 43.9049L51.2115 43.0111L51.5975 42.9464C51.7633 42.9186 51.9221 42.8585 52.0647 42.7693C52.2073 42.6802 52.331 42.5638 52.4287 42.4268C52.5264 42.2898 52.5962 42.1349 52.634 41.9709C52.6719 41.8069 52.6772 41.6371 52.6495 41.471C52.6218 41.305 52.5617 41.1461 52.4726 41.0033C52.3836 40.8606 52.2673 40.7367 52.1304 40.639C51.9936 40.5412 51.8388 40.4713 51.675 40.4334C51.5112 40.3955 51.3415 40.3902 51.1757 40.418L47.7026 40.9985L45.966 40.0028L50.2764 38.6444C50.4367 38.5938 50.5856 38.5122 50.7145 38.4041C50.8433 38.2959 50.9496 38.1635 51.0274 38.0142C51.1051 37.865 51.1527 37.7018 51.1674 37.5342C51.1821 37.3665 51.1637 37.1976 51.1133 37.037C51.0628 36.8765 50.9812 36.7275 50.8732 36.5985C50.7652 36.4695 50.6329 36.3631 50.4838 36.2853C50.3347 36.2075 50.1717 36.1598 50.0042 36.1451C49.8367 36.1303 49.668 36.1487 49.5076 36.1993L42.9423 38.2689L37.4273 35.1061L42.9576 31.9344L49.5364 33.8368C49.8626 33.9311 50.2129 33.8919 50.5102 33.7277C50.8074 33.5635 51.0274 33.2878 51.1216 32.9612C51.2158 32.6347 51.1766 32.2841 51.0126 31.9865C50.8485 31.6889 50.5731 31.4687 50.2469 31.3744L46.0505 30.1608L47.6712 29.2317L50.1784 29.7821C50.4902 29.851 50.8164 29.8007 51.093 29.6412C51.3697 29.4817 51.5768 29.2245 51.6738 28.92C51.7708 28.6155 51.7506 28.2857 51.6172 27.9954C51.4839 27.705 51.2469 27.475 50.9529 27.3505L52.7708 26.308C52.9166 26.2243 53.0446 26.1126 53.1474 25.9794C53.2502 25.8461 53.3257 25.6939 53.3697 25.5315C53.4137 25.369 53.4254 25.1995 53.4039 25.0325C53.3825 24.8655 53.3284 24.7045 53.2447 24.5584C53.1611 24.4124 53.0496 24.2843 52.9165 24.1814C52.7834 24.0785 52.6313 24.0029 52.469 23.9588C52.3067 23.9148 52.1374 23.9031 51.9706 23.9246C51.8038 23.9461 51.6429 24.0002 51.497 24.0839L49.009 25.5109L49.1095 24.5946C49.1465 24.2567 49.0479 23.9179 48.8354 23.6528C48.6228 23.3876 48.3138 23.2179 47.9762 23.1808C47.6386 23.1438 47.3002 23.2425 47.0353 23.4552C46.7705 23.668 46.6009 23.9773 46.5639 24.3153L46.2611 27.0865L44.6532 28.0092L45.7247 23.0594C45.7604 22.8949 45.7633 22.725 45.7333 22.5593C45.7034 22.3937 45.6411 22.2356 45.5501 22.094C45.4591 21.9525 45.3411 21.8303 45.203 21.7344C45.0648 21.6384 44.9091 21.5707 44.7447 21.535C44.5804 21.4994 44.4107 21.4964 44.2452 21.5264C44.0797 21.5564 43.9218 21.6187 43.7804 21.7098C43.639 21.8009 43.5169 21.919 43.4211 22.0573C43.3253 22.1957 43.2576 22.3515 43.222 22.516L41.6621 29.7245L36.2259 32.8417V26.6437L41.28 21.4601C41.5122 21.2159 41.6389 20.89 41.6327 20.553C41.6266 20.216 41.488 19.8949 41.2471 19.6595C41.0061 19.424 40.6822 19.293 40.3454 19.295C40.0087 19.2969 39.6863 19.4316 39.448 19.6698L36.2259 22.9742V21.3588L38.9309 19.1495C39.0611 19.0432 39.1692 18.9122 39.2489 18.764C39.3287 18.6158 39.3784 18.4534 39.3954 18.2859C39.4124 18.1185 39.3963 17.9494 39.348 17.7882C39.2997 17.627 39.2202 17.4769 39.1139 17.3464C39.0077 17.216 38.8768 17.1078 38.7288 17.028C38.5808 16.9482 38.4185 16.8984 38.2512 16.8814C38.084 16.8644 37.915 16.8805 37.754 16.9289C37.593 16.9772 37.443 17.0568 37.3127 17.1632L36.2259 18.0513L36.2252 15.3781Z" fill="#349AC0"/>
<path d="M149.662 165.55C140.301 165.55 130.941 161.98 123.819 154.85L120.782 151.81L125.727 146.86L128.763 149.9C134.348 155.49 141.77 158.57 149.662 158.57C157.553 158.57 164.986 155.49 170.57 149.9C176.154 144.31 179.231 136.88 179.231 128.97C179.231 121.06 176.154 113.63 170.57 108.04L156.754 94.21C156.135 93.59 155.266 93.23 154.387 93.23H143.688V86.23H154.387C157.154 86.23 159.751 87.31 161.699 89.26L175.515 103.09C189.77 117.36 189.77 140.57 175.515 154.84C168.392 161.97 159.032 165.54 149.672 165.54L149.662 165.55Z" fill="#262626"/>
<path d="M144.387 82.7H152.818C154.237 82.7 155.386 83.85 155.386 85.27V94.59C155.386 96.01 154.237 97.16 152.818 97.16H144.387V82.71V82.7Z" fill="#349AC0"/>
<path d="M148.783 22.54V141.06C148.783 150.72 140.961 158.56 131.311 158.56H59.066C49.4161 158.56 41.5942 150.73 41.5942 141.06V140.12V22.53C41.5942 12.85 49.4361 5 59.096 5H131.271C140.941 5 148.783 12.85 148.783 22.53V22.54Z" fill="#349AC0"/>
<path style="mix-blend-mode:screen" opacity="0.25" d="M148.783 22.53C148.783 12.85 140.941 5 131.271 5H59.106C49.4361 5 41.5942 12.85 41.5942 22.53V62.12C53.1722 73.31 68.8159 82.39 87.0669 87.51C109.214 93.71 131.101 92.91 148.783 86.62V22.53Z" fill="url(#paint0_linear_197_4)"/>
<path style="mix-blend-mode:screen" opacity="0.5" d="M131.271 5H59.096C49.4261 5 41.5942 12.85 41.5942 22.53V25.27C41.5942 15.59 49.4261 7.75 59.096 7.75H131.271C140.941 7.75 148.783 15.59 148.783 25.27V22.53C148.783 12.85 140.941 5 131.271 5Z" fill="url(#paint1_linear_197_4)"/>
<path d="M95.1883 29.38C82.2518 29.38 70.4441 33.82 61.4435 41.14C60.4145 41.97 60.3546 43.52 61.3136 44.43L69.535 52.19C70.3142 52.93 71.523 52.99 72.3621 52.32C78.4657 47.41 86.4474 44.42 95.1883 44.42C103.929 44.42 111.911 47.4 118.015 52.32C118.854 52.99 120.062 52.93 120.842 52.19L129.063 44.43C130.022 43.52 129.962 41.98 128.933 41.14C119.943 33.82 108.135 29.38 95.1883 29.38Z" fill="white"/>
<path d="M122.41 19.6801L117.565 34.1301L112.65 48.7701H112.64C109.654 47.1501 106.377 45.9401 102.901 45.2301H102.891L112.79 32.2601L122.4 19.6801H122.41Z" fill="#B2DAE9"/>
<path style="mix-blend-mode:screen" opacity="0.25" d="M122.41 19.6801L112.8 32.2601L102.9 45.2201H102.91C104.818 45.6201 106.646 46.1801 108.425 46.8501L122.42 19.6801H122.41Z" fill="url(#paint2_linear_197_4)"/>
<path style="mix-blend-mode:screen" opacity="0.35" d="M112.52 54.47C111.242 53.72 109.853 53.03 108.445 52.47C107.046 51.88 105.608 51.38 104.139 50.99C101.222 50.19 98.2054 49.75 95.1885 49.76C92.1717 49.75 89.1648 50.19 86.2379 50.99C84.7694 51.37 83.3309 51.88 81.9324 52.47C80.5238 53.03 79.1353 53.72 77.8566 54.47L77.8166 54.49C77.5569 54.64 77.2173 54.56 77.0674 54.3C76.9276 54.06 76.9875 53.75 77.2073 53.58C79.7946 51.63 82.6816 50.27 85.7284 49.28C88.7652 48.29 91.9819 47.83 95.1885 47.77C98.3952 47.83 101.602 48.29 104.649 49.28C107.696 50.27 110.583 51.62 113.17 53.58C113.41 53.76 113.46 54.11 113.28 54.35C113.11 54.57 112.8 54.63 112.56 54.49L112.52 54.47Z" fill="url(#paint3_linear_197_4)"/>
<path d="M123.6 86.4021C127.175 71.0514 117.641 55.7067 102.306 52.1288C86.9712 48.5509 71.6424 58.0947 68.0683 73.4455C64.4941 88.7962 74.028 104.141 89.3628 107.719C104.698 111.297 120.026 101.753 123.6 86.4021Z" fill="white"/>
<path d="M170.56 149.9C159.032 161.44 140.281 161.44 128.753 149.9L125.716 146.86L120.771 151.81L123.808 154.85C130.931 161.98 140.291 165.55 149.651 165.55C159.012 165.55 168.372 161.98 175.494 154.85L170.55 149.9H170.56Z" fill="#212121"/>
<path d="M129.861 146.154L133.768 150.626C134.82 151.83 134.697 153.664 133.494 154.718L129.132 158.536C127.929 159.589 126.097 159.466 125.045 158.262L121.138 153.791L129.854 146.161L129.861 146.154Z" fill="#B2DAE9"/>
<path d="M83.4203 121.19C83.4203 121.19 81.3525 134.32 81.4124 134.76C81.4723 135.2 102.9 159.28 102.9 159.28L104.588 158.44L85.5981 135L88.4451 124.71L83.4203 121.19Z" fill="#252525"/>
<path d="M131.221 146.55L81.9822 93.22C81.5027 92.7 80.8734 92.36 80.1741 92.25L48.7968 87.16C46.9887 86.87 45.3104 88.18 45.1606 90.02L44.3814 99.8C44.2615 101.29 45.2005 102.65 46.639 103.07L59.7554 106.9C61.064 107.28 61.983 108.47 62.013 109.84L62.4825 127.41C62.5025 128.18 62.8022 128.91 63.3316 129.47L102.741 171.73C103.899 172.97 105.827 173.07 107.106 171.95L130.981 151.05C132.31 149.88 132.42 147.85 131.221 146.55ZM117.675 155.91L106.027 166.43C105.478 166.93 104.629 166.88 104.139 166.33L71.7229 130.5C71.2833 130.02 71.2634 129.29 71.663 128.77L78.4259 120.15C78.9054 119.54 79.8045 119.46 80.3839 119.99L117.685 153.92C118.274 154.45 118.264 155.38 117.685 155.91H117.675Z" fill="url(#paint4_linear_197_4)"/>
<path d="M52.0432 95.49C52.3029 93.24 50.6946 91.21 48.447 90.95L23.5229 88.06C22.8736 87.98 22.2143 88.06 21.5949 88.3L8.27881 93.37L11.975 100.73L23.5629 96.32L47.488 99.1C49.7356 99.36 51.7635 97.75 52.0232 95.5L52.0432 95.49Z" fill="#969696"/>
<path d="M68.8659 124.02C72.542 117.64 88.8151 111.98 98.8147 111.45L81.9822 93.22C81.5027 92.7 80.8734 92.36 80.1741 92.25L48.7968 87.16C46.9887 86.87 45.3104 88.18 45.1606 90.02L44.3814 99.8C44.2615 101.29 45.2005 102.65 46.639 103.07L59.7554 106.9C61.064 107.28 61.983 108.47 62.013 109.84L62.4825 127.41C62.5025 128.18 62.8022 128.91 63.3316 129.47L66.9279 133.33C66.5783 131.06 66.7181 127.76 68.8659 124.03V124.02Z" fill="#B2DAE9"/>
<path d="M69.5052 103.82C68.766 103.4 50.1154 101.12 48.1774 99.66C46.5591 98.44 46.1096 90.67 46.0097 88.11C45.5402 88.61 45.2205 89.27 45.1606 90.01L44.3814 99.79C44.2615 101.28 45.2005 102.64 46.639 103.06L59.7554 106.89C61.064 107.27 61.983 108.46 62.013 109.83L62.4825 127.4C62.5025 128.17 62.8022 128.9 63.3316 129.46L66.9279 133.32C65.7291 129.86 67.3175 125.72 69.0756 122.68C69.8149 121.402 76.87 108.014 69.5052 103.83V103.82Z" fill="#494949"/>
<path d="M80 80.4H70.8V78.6H80V80.4ZM88.1945 78.9C88.7012 78.5533 89.1412 78.1333 89.5145 77.64C89.9012 77.1333 90.0945 76.5533 90.0945 75.9C90.0945 75.0467 89.8212 74.3667 89.2745 73.86C88.7279 73.3533 87.9012 73.1 86.7945 73.1C85.7945 73.1 84.8812 73.24 84.0545 73.52C83.2412 73.7867 82.4545 74.2467 81.6945 74.9L80.7945 73.7C81.5545 73.0467 82.4479 72.5333 83.4745 72.16C84.5145 71.7867 85.6879 71.6 86.9945 71.6C88.0479 71.6 88.9612 71.7 89.7345 71.9C90.5079 72.1 91.1479 72.3867 91.6545 72.76C92.1745 73.12 92.5612 73.5533 92.8145 74.06C93.0679 74.5533 93.1945 75.1 93.1945 75.7C93.1945 76.3 93.1079 76.84 92.9345 77.32C92.7612 77.7867 92.5279 78.2133 92.2345 78.6C91.9545 78.9867 91.6279 79.34 91.2545 79.66C90.8812 79.98 90.4945 80.2933 90.0945 80.6L84.9945 84.5H93.3945V86H80.9945V84.4L88.1945 78.9ZM103.003 73C102.483 73 101.976 73.1133 101.483 73.34C100.99 73.5533 100.55 73.9 100.163 74.38C99.7898 74.86 99.4831 75.48 99.2431 76.24C99.0165 77 98.9031 77.92 98.9031 79C98.9031 80.08 99.0165 81 99.2431 81.76C99.4831 82.52 99.7898 83.14 100.163 83.62C100.55 84.1 100.99 84.4533 101.483 84.68C101.976 84.8933 102.483 85 103.003 85C103.523 85 104.03 84.8933 104.523 84.68C105.016 84.4533 105.45 84.1 105.823 83.62C106.21 83.14 106.516 82.52 106.743 81.76C106.983 81 107.103 80.08 107.103 79C107.103 77.92 106.983 77 106.743 76.24C106.516 75.48 106.21 74.86 105.823 74.38C105.45 73.9 105.016 73.5533 104.523 73.34C104.03 73.1133 103.523 73 103.003 73ZM103.003 71.6C104.056 71.6 105.023 71.7533 105.903 72.06C106.783 72.3533 107.543 72.8067 108.183 73.42C108.823 74.0333 109.316 74.8067 109.663 75.74C110.023 76.66 110.203 77.7467 110.203 79C110.203 80.2533 110.023 81.3467 109.663 82.28C109.316 83.2 108.823 83.9667 108.183 84.58C107.543 85.1933 106.783 85.6533 105.903 85.96C105.023 86.2533 104.056 86.4 103.003 86.4C101.95 86.4 100.983 86.2533 100.103 85.96C99.2231 85.6533 98.4631 85.1933 97.8231 84.58C97.1831 83.9667 96.6831 83.2 96.3231 82.28C95.9765 81.3467 95.8031 80.2533 95.8031 79C95.8031 77.7467 95.9765 76.66 96.3231 75.74C96.6831 74.8067 97.1831 74.0333 97.8231 73.42C98.4631 72.8067 99.2231 72.3533 100.103 72.06C100.983 71.7533 101.95 71.6 103.003 71.6ZM116.109 71.6C116.603 71.6 117.063 71.6733 117.489 71.82C117.929 71.9533 118.303 72.16 118.609 72.44C118.916 72.7067 119.156 73.0467 119.329 73.46C119.516 73.8733 119.609 74.3533 119.609 74.9C119.609 75.4467 119.516 75.9267 119.329 76.34C119.156 76.7533 118.916 77.1 118.609 77.38C118.303 77.6467 117.929 77.8533 117.489 78C117.063 78.1333 116.603 78.2 116.109 78.2C115.603 78.2 115.136 78.1333 114.709 78C114.283 77.8533 113.916 77.6467 113.609 77.38C113.303 77.1 113.056 76.7533 112.869 76.34C112.696 75.9267 112.609 75.4467 112.609 74.9C112.609 74.3533 112.696 73.8733 112.869 73.46C113.056 73.0467 113.303 72.7067 113.609 72.44C113.916 72.16 114.283 71.9533 114.709 71.82C115.136 71.6733 115.603 71.6 116.109 71.6ZM116.109 77.1C116.456 77.1 116.756 76.9333 117.009 76.6C117.276 76.2667 117.409 75.7 117.409 74.9C117.409 74.1 117.276 73.5333 117.009 73.2C116.756 72.8667 116.456 72.7 116.109 72.7C115.763 72.7 115.456 72.8667 115.189 73.2C114.936 73.5333 114.809 74.1 114.809 74.9C114.809 75.7 114.936 76.2667 115.189 76.6C115.456 76.9333 115.763 77.1 116.109 77.1Z" fill="#349AC0"/>
<defs>
<linearGradient id="paint0_linear_197_4" x1="89.814" y1="80.21" x2="97.7716" y2="41.0332" gradientUnits="userSpaceOnUse">
<stop stop-color="white"/>
<stop offset="0.09" stop-color="white" stop-opacity="0.95"/>
<stop offset="0.27" stop-color="white" stop-opacity="0.8"/>
<stop offset="0.5" stop-color="white" stop-opacity="0.57"/>
<stop offset="0.79" stop-color="white" stop-opacity="0.25"/>
<stop offset="1" stop-color="white" stop-opacity="0"/>
</linearGradient>
<linearGradient id="paint1_linear_197_4" x1="95.1984" y1="23.51" x2="92.6458" y2="96.7498" gradientUnits="userSpaceOnUse">
<stop stop-color="white"/>
<stop offset="0.09" stop-color="white" stop-opacity="0.95"/>
<stop offset="0.27" stop-color="white" stop-opacity="0.8"/>
<stop offset="0.5" stop-color="white" stop-opacity="0.57"/>
<stop offset="0.79" stop-color="white" stop-opacity="0.25"/>
<stop offset="1" stop-color="white" stop-opacity="0"/>
</linearGradient>
<linearGradient id="paint2_linear_197_4" x1="113.19" y1="29.6301" x2="109.036" y2="51.6585" gradientUnits="userSpaceOnUse">
<stop stop-color="white"/>
<stop offset="0.09" stop-color="white" stop-opacity="0.95"/>
<stop offset="0.27" stop-color="white" stop-opacity="0.8"/>
<stop offset="0.5" stop-color="white" stop-opacity="0.57"/>
<stop offset="0.79" stop-color="white" stop-opacity="0.25"/>
<stop offset="1" stop-color="white" stop-opacity="0"/>
</linearGradient>
<linearGradient id="paint3_linear_197_4" x1="96.1176" y1="70.77" x2="98.2498" y2="109.09" gradientUnits="userSpaceOnUse">
<stop stop-color="white"/>
<stop offset="0.09" stop-color="white" stop-opacity="0.95"/>
<stop offset="0.27" stop-color="white" stop-opacity="0.8"/>
<stop offset="0.5" stop-color="white" stop-opacity="0.57"/>
<stop offset="0.79" stop-color="white" stop-opacity="0.25"/>
<stop offset="1" stop-color="white" stop-opacity="0"/>
</linearGradient>
<linearGradient id="paint4_linear_197_4" x1="99.0031" y1="108.748" x2="65.9645" y2="142.774" gradientUnits="userSpaceOnUse">
<stop stop-color="#E4E8F4"/>
<stop offset="0.4" stop-color="#E3DBF3"/>
<stop offset="1" stop-color="#E3CEF3"/>
</linearGradient>
</defs>
</svg>
