<svg width="114" height="119" viewBox="0 0 114 119" fill="none" xmlns="http://www.w3.org/2000/svg">
<path d="M1.72317 58.8956C1.72317 46.9998 11.3668 37.3562 23.2625 37.3562C30.3085 37.3562 36.5653 40.7387 40.4958 45.972H35.7554C35.5269 45.972 35.3077 46.0627 35.1461 46.2243C34.9846 46.3859 34.8938 46.605 34.8938 46.8335C34.8938 47.062 34.9846 47.2812 35.1461 47.4428C35.3077 47.6043 35.5269 47.6951 35.7554 47.6951H42.1418C42.3703 47.6951 42.5894 47.6043 42.751 47.4428C42.9126 47.2812 43.0034 47.062 43.0034 46.8335V40.5871C43.0034 40.3586 42.9126 40.1395 42.751 39.9779C42.5894 39.8163 42.3703 39.7255 42.1418 39.7255C41.9133 39.7255 41.6941 39.8163 41.5326 39.9779C41.371 40.1395 41.2802 40.3586 41.2802 40.5871V44.1807C37.0154 38.9648 30.5282 35.6331 23.2625 35.6331C10.4152 35.6331 1.71672e-05 46.0482 1.71672e-05 58.8956C-0.00371923 61.9667 0.602493 65.008 1.78348 67.843C1.82568 67.9494 1.88863 68.0463 1.96868 68.128C2.04872 68.2098 2.14425 68.2748 2.24968 68.3192C2.35511 68.3636 2.46834 68.3866 2.58275 68.3868C2.69717 68.387 2.81048 68.3645 2.91607 68.3204C3.02166 68.2763 3.11742 68.2117 3.19776 68.1302C3.2781 68.0488 3.34141 67.9521 3.38399 67.8459C3.42657 67.7397 3.44758 67.6261 3.44578 67.5117C3.44398 67.3973 3.41941 67.2844 3.37351 67.1796C2.28032 64.5548 1.71935 61.739 1.72317 58.8956ZM44.8338 50.1721C44.7919 50.0665 44.7295 49.9702 44.6502 49.8888C44.571 49.8074 44.4764 49.7424 44.3719 49.6977C44.2674 49.653 44.1552 49.6294 44.0415 49.6283C43.9279 49.6271 43.8152 49.6485 43.7098 49.6911C43.6045 49.7337 43.5086 49.7967 43.4277 49.8766C43.3468 49.9564 43.2825 50.0514 43.2385 50.1562C43.1945 50.261 43.1717 50.3734 43.1713 50.487C43.171 50.6007 43.1931 50.7133 43.2364 50.8183C44.274 53.3847 44.8056 56.1274 44.8019 58.8956C44.8019 70.7913 35.1583 80.4349 23.2625 80.4349C16.1201 80.4349 9.78923 76.9593 5.8695 71.6038H10.9851C11.2136 71.6038 11.4327 71.513 11.5943 71.3514C11.7559 71.1899 11.8467 70.9707 11.8467 70.7422C11.8467 70.5137 11.7559 70.2946 11.5943 70.133C11.4327 69.9714 11.2136 69.8806 10.9851 69.8806H4.24672C4.01822 69.8806 3.79907 69.9714 3.63749 70.133C3.47592 70.2946 3.38514 70.5137 3.38514 70.7422V76.9886C3.38514 77.2171 3.47592 77.4363 3.63749 77.5979C3.79907 77.7594 4.01822 77.8502 4.24672 77.8502C4.47522 77.8502 4.69437 77.7594 4.85594 77.5979C5.01752 77.4363 5.10829 77.2171 5.10829 76.9886V73.4424C9.37094 78.7549 15.9189 82.1581 23.2625 82.1581C36.1099 82.1581 46.5251 71.7429 46.5251 58.8956C46.5286 55.906 45.9543 52.9438 44.8338 50.1721Z" fill="#349AC0"/>
<path d="M24.1876 45.9714C24.1876 45.7429 24.0968 45.5238 23.9352 45.3622C23.7736 45.2006 23.5545 45.1098 23.326 45.1098C23.0975 45.1098 22.8783 45.2006 22.7168 45.3622C22.5552 45.5238 22.4644 45.7429 22.4644 45.9714V47.832L21.5882 47.1569C21.4987 47.0858 21.396 47.0332 21.2861 47.0022C21.1761 46.9712 21.0611 46.9623 20.9476 46.9762C20.8342 46.99 20.7247 47.0263 20.6254 47.0829C20.5261 47.1394 20.4391 47.2152 20.3694 47.3058C20.2997 47.3963 20.2487 47.4998 20.2193 47.6102C20.19 47.7207 20.1829 47.8358 20.1985 47.949C20.2142 48.0622 20.2521 48.1712 20.3102 48.2696C20.3684 48.368 20.4455 48.4538 20.5371 48.5221L22.4644 50.007V51.2193L19.8883 48.8271C19.7209 48.6716 19.4985 48.589 19.2702 48.5974C19.0418 48.6059 18.8262 48.7047 18.6707 48.8721C18.5152 49.0396 18.4326 49.2619 18.441 49.4902C18.4495 49.7186 18.5483 49.9342 18.7157 50.0897L22.4644 53.5705V57.7845L18.6881 55.6215L17.7585 50.9108C17.7143 50.6866 17.5828 50.4891 17.393 50.3618C17.2032 50.2346 16.9706 50.1879 16.7464 50.2321C16.5221 50.2763 16.3247 50.4078 16.1974 50.5976C16.0701 50.7874 16.0234 51.02 16.0676 51.2442L16.7078 54.4868L15.549 53.8229L15.1191 51.5411C15.0726 51.3206 14.9416 51.1272 14.7543 51.0021C14.5669 50.8771 14.338 50.8304 14.1166 50.8721C13.8952 50.9138 13.6989 51.0405 13.5699 51.2251C13.4408 51.4098 13.3892 51.6376 13.4261 51.8598L13.5833 52.6969L12.06 51.8245C11.8622 51.7166 11.6299 51.6905 11.413 51.7518C11.1961 51.8131 11.0119 51.957 10.8998 52.1526C10.7878 52.3481 10.7568 52.5798 10.8136 52.7979C10.8704 53.0161 11.0104 53.2032 11.2036 53.3193L12.9104 54.2972L12.1458 54.6569C12.0412 54.7037 11.9471 54.7708 11.8687 54.8543C11.7904 54.9378 11.7296 55.0361 11.6897 55.1435C11.6498 55.2508 11.6317 55.365 11.6365 55.4794C11.6413 55.5938 11.6688 55.7061 11.7175 55.8098C11.7661 55.9134 11.835 56.0063 11.92 56.083C12.005 56.1597 12.1044 56.2188 12.2125 56.2566C12.3205 56.2945 12.435 56.3104 12.5493 56.3035C12.6636 56.2966 12.7754 56.267 12.8781 56.2164L14.7361 55.3432L15.7088 55.9006L12.7816 56.7243C12.5642 56.7884 12.3808 56.9356 12.2712 57.134C12.1616 57.3324 12.1346 57.566 12.196 57.7842C12.2574 58.0023 12.4024 58.1875 12.5994 58.2996C12.7964 58.4116 13.0297 58.4415 13.2486 58.3828L17.8046 57.1008L21.5296 59.2349L17.8149 61.363L13.2675 59.9681C13.1591 59.9339 13.0449 59.9214 12.9316 59.9315C12.8183 59.9416 12.7081 59.974 12.6074 60.0269C12.5067 60.0798 12.4175 60.1521 12.3449 60.2397C12.2723 60.3272 12.2177 60.4283 12.1844 60.537C12.151 60.6458 12.1395 60.76 12.1505 60.8732C12.1616 60.9865 12.1949 61.0964 12.2486 61.1966C12.3024 61.2969 12.3754 61.3855 12.4635 61.4574C12.5517 61.5293 12.6532 61.583 12.7622 61.6154L15.7657 62.5369L14.6702 63.1641L12.7631 62.5826C12.6548 62.5496 12.5411 62.5382 12.4285 62.5492C12.3159 62.5602 12.2065 62.5932 12.1066 62.6464C12.0068 62.6996 11.9184 62.772 11.8465 62.8594C11.7746 62.9468 11.7206 63.0475 11.6876 63.1557C11.6546 63.264 11.6433 63.3777 11.6543 63.4903C11.6652 63.6029 11.6982 63.7123 11.7515 63.8122C11.8047 63.912 11.8771 64.0004 11.9644 64.0723C12.0518 64.1442 12.1525 64.1982 12.2608 64.2312L12.6179 64.3402L11.2036 65.1501C11.1053 65.2062 11.0191 65.2812 10.9498 65.3708C10.8805 65.4603 10.8295 65.5626 10.7998 65.6718C10.77 65.7811 10.7621 65.8951 10.7765 66.0074C10.7909 66.1197 10.8272 66.2281 10.8835 66.3263C10.9397 66.4245 11.0148 66.5107 11.1044 66.5799C11.194 66.6492 11.2964 66.7 11.4056 66.7297C11.5149 66.7593 11.6289 66.7671 11.7412 66.7526C11.8535 66.7381 11.9618 66.7017 12.06 66.6453L13.5187 65.8096L13.4308 66.2119C13.3861 66.4335 13.4303 66.6638 13.5538 66.8531C13.6774 67.0424 13.8704 67.1756 14.0912 67.2239C14.312 67.2722 14.543 67.2319 14.7343 67.1114C14.9256 66.991 15.0619 66.8003 15.1139 66.5803L15.5352 64.6547L16.5708 64.0615L15.8277 66.9271C15.7703 67.1482 15.8032 67.3832 15.9191 67.5801C16.0349 67.7771 16.2243 67.92 16.4454 67.9773C16.6666 68.0347 16.9016 68.0018 17.0985 67.886C17.2955 67.7701 17.4384 67.5808 17.4957 67.3596L18.6618 62.8639L22.4644 60.6854V64.9971L18.7497 68.101C18.6629 68.1735 18.5912 68.2624 18.5387 68.3627C18.4863 68.463 18.4541 68.5726 18.444 68.6853C18.4339 68.798 18.4461 68.9116 18.4799 69.0196C18.5137 69.1276 18.5684 69.2279 18.641 69.3147C18.7135 69.4015 18.8025 69.4732 18.9027 69.5257C19.003 69.5782 19.1126 69.6104 19.2253 69.6205C19.338 69.6306 19.4516 69.6184 19.5596 69.5846C19.6676 69.5508 19.7679 69.496 19.8547 69.4235L22.4644 67.2424V68.4339L21.1234 69.6087C20.9515 69.7593 20.8464 69.972 20.8314 70.2C20.8163 70.428 20.8924 70.6527 21.043 70.8246C21.1936 70.9965 21.4063 71.1015 21.6343 71.1166C21.8624 71.1317 22.087 71.0555 22.2589 70.9049L22.4644 70.7249V72.2494C22.4644 72.4779 22.5552 72.6971 22.7168 72.8587C22.8783 73.0202 23.0975 73.111 23.326 73.111C23.5545 73.111 23.7736 73.0202 23.9352 72.8587C24.0968 72.6971 24.1876 72.4779 24.1876 72.2494V70.6361L24.5425 70.9248C24.6301 70.9977 24.7313 71.0525 24.8402 71.086C24.9491 71.1196 25.0635 71.1312 25.1769 71.1202C25.2904 71.1092 25.4005 71.0758 25.5009 71.022C25.6013 70.9681 25.6901 70.8949 25.762 70.8065C25.8339 70.7182 25.8876 70.6164 25.92 70.5071C25.9523 70.3979 25.9626 70.2833 25.9504 70.17C25.9381 70.0567 25.9035 69.947 25.8486 69.8472C25.7936 69.7473 25.7194 69.6594 25.6303 69.5885L24.1871 68.415V67.366L26.3885 69.3959C26.5565 69.5508 26.7791 69.6327 27.0075 69.6234C27.1205 69.6188 27.2316 69.592 27.3343 69.5445C27.437 69.497 27.5294 69.4298 27.6061 69.3466C27.6828 69.2634 27.7424 69.1659 27.7814 69.0597C27.8204 68.9535 27.8382 68.8406 27.8336 68.7275C27.829 68.6145 27.8022 68.5034 27.7547 68.4007C27.7072 68.298 27.6399 68.2057 27.5568 68.129L24.1876 65.0221V60.7573L27.8536 62.8574L28.8999 67.3393C28.9533 67.5604 29.0919 67.7514 29.2855 67.8706C29.4791 67.9899 29.712 68.0278 29.9335 67.9761C30.1549 67.9244 30.3469 67.7872 30.4676 67.5945C30.5883 67.4017 30.628 67.1691 30.5779 66.9473L29.8964 64.0274L30.9419 64.6266L31.1456 66.4898C31.1579 66.6023 31.1923 66.7113 31.2467 66.8105C31.3011 66.9097 31.3745 66.9972 31.4628 67.0681C31.551 67.1389 31.6524 67.1917 31.761 67.2234C31.8696 67.2551 31.9835 67.265 32.096 67.2527C32.2084 67.2404 32.3174 67.2061 32.4166 67.1517C32.5159 67.0972 32.6034 67.0238 32.6742 66.9356C32.7451 66.8473 32.7978 66.746 32.8295 66.6374C32.8612 66.5287 32.8712 66.4149 32.8589 66.3024L32.7912 65.6864L34.4661 66.6453C34.5644 66.7044 34.6735 66.7432 34.787 66.7596C34.9005 66.776 35.0161 66.7695 35.127 66.7406C35.238 66.7117 35.3421 66.661 35.4331 66.5914C35.5242 66.5217 35.6005 66.4346 35.6575 66.3351C35.7145 66.2356 35.7511 66.1258 35.7651 66.012C35.7791 65.8982 35.7702 65.7827 35.739 65.6724C35.7078 65.5621 35.6549 65.4591 35.5834 65.3695C35.5119 65.2798 35.4232 65.2054 35.3226 65.1505L34.2736 64.5495L34.5334 64.506C34.645 64.4874 34.7518 64.4469 34.8478 64.387C34.9438 64.3271 35.027 64.2488 35.0928 64.1567C35.1585 64.0646 35.2055 63.9605 35.231 63.8502C35.2565 63.74 35.26 63.6258 35.2413 63.5141C35.2227 63.4025 35.1823 63.2957 35.1223 63.1997C35.0624 63.1037 34.9841 63.0205 34.892 62.9547C34.7999 62.889 34.6958 62.842 34.5855 62.8165C34.4753 62.791 34.3611 62.7875 34.2495 62.8061L31.912 63.1964L30.7433 62.527L33.6442 61.6137C33.7521 61.5798 33.8523 61.5249 33.9391 61.4522C34.0258 61.3795 34.0973 61.2904 34.1496 61.1901C34.2019 61.0897 34.234 60.9801 34.2439 60.8673C34.2538 60.7546 34.2414 60.641 34.2075 60.5331C34.1735 60.4252 34.1186 60.325 34.0459 60.2382C33.9732 60.1515 33.8841 60.08 33.7838 60.0277C33.6835 59.9754 33.5738 59.9433 33.4611 59.9334C33.3483 59.9235 33.2348 59.9359 33.1268 59.9698L28.7082 61.3613L24.9966 59.2349L28.7186 57.1025L33.1462 58.3815C33.3658 58.4449 33.6015 58.4185 33.8016 58.3081C34.0016 58.1977 34.1497 58.0124 34.2131 57.7929C34.2765 57.5733 34.2501 57.3376 34.1397 57.1375C34.0293 56.9374 33.8439 56.7894 33.6244 56.726L30.8001 55.9101L31.8909 55.2855L33.5783 55.6555C33.7881 55.7018 34.0077 55.668 34.1938 55.5607C34.38 55.4535 34.5194 55.2806 34.5847 55.0759C34.65 54.8712 34.6364 54.6495 34.5466 54.4542C34.4569 54.259 34.2974 54.1044 34.0995 54.0207L35.323 53.3198C35.4212 53.2635 35.5073 53.1884 35.5765 53.0988C35.6456 53.0093 35.6965 52.9069 35.7261 52.7977C35.7557 52.6885 35.7635 52.5745 35.7491 52.4622C35.7347 52.35 35.6983 52.2417 35.642 52.1435C35.5857 52.0453 35.5106 51.9592 35.421 51.89C35.3315 51.8209 35.2291 51.77 35.1199 51.7404C35.0107 51.7108 34.8967 51.703 34.7845 51.7174C34.6722 51.7318 34.5639 51.7682 34.4657 51.8245L32.7912 52.7839L32.8589 52.1679C32.8838 51.9407 32.8174 51.7129 32.6744 51.5346C32.5314 51.3564 32.3234 51.2422 32.0962 51.2173C31.869 51.1924 31.6412 51.2588 31.4629 51.4018C31.2847 51.5448 31.1705 51.7528 31.1456 51.98L30.9419 53.8432L29.8597 54.4635L30.5809 51.1357C30.6049 51.0251 30.6068 50.9108 30.5867 50.7995C30.5665 50.6881 30.5246 50.5818 30.4634 50.4867C30.4021 50.3915 30.3227 50.3093 30.2297 50.2448C30.1367 50.1804 30.0319 50.1348 29.9213 50.1108C29.8107 50.0869 29.6965 50.0849 29.5851 50.1051C29.4738 50.1252 29.3675 50.1671 29.2723 50.2284C29.1772 50.2896 29.095 50.369 29.0305 50.462C28.966 50.555 28.9205 50.6598 28.8965 50.7704L27.8467 55.6167L24.188 57.7125V53.5455L27.5895 50.0604C27.7458 49.8963 27.8311 49.6772 27.8269 49.4506C27.8228 49.224 27.7295 49.0082 27.5673 48.8499C27.4052 48.6915 27.1872 48.6035 26.9605 48.6048C26.7339 48.6061 26.5169 48.6967 26.3566 48.8568L24.188 51.0784V49.9924L26.0085 48.507C26.0962 48.4355 26.1689 48.3474 26.2226 48.2478C26.2762 48.1482 26.3097 48.039 26.3212 47.9264C26.3326 47.8139 26.3218 47.7001 26.2893 47.5918C26.2567 47.4834 26.2032 47.3825 26.1317 47.2948C26.0602 47.2071 25.9721 47.1344 25.8725 47.0807C25.7729 47.0271 25.6637 46.9936 25.5511 46.9821C25.4385 46.9707 25.3248 46.9815 25.2164 47.014C25.1081 47.0465 25.0072 47.1001 24.9195 47.1716L24.188 47.7687L24.1876 45.9714Z" fill="#349AC0"/>
<path d="M42.6924 13.6606H60.3361V5.68601C60.3361 5.13474 59.8891 4.68748 59.3381 4.68748H43.6904C43.1394 4.68748 42.6924 5.13474 42.6924 5.68601V13.6606Z" fill="#349AC0"/>
<path d="M43.6866 13.6597C43.5274 13.6597 43.3975 13.5296 43.3975 13.3704V5.73841C43.3975 5.57914 43.5274 5.44913 43.6866 5.44913C43.8458 5.44913 43.9757 5.57914 43.9757 5.73841V13.3704C43.9757 13.5296 43.8458 13.6597 43.6866 13.6597Z" fill="#485576"/>
<path d="M45.1202 13.6597C44.961 13.6597 44.8311 13.5296 44.8311 13.3704V5.73841C44.8311 5.57914 44.961 5.44913 45.1202 5.44913C45.2794 5.44913 45.4093 5.57914 45.4093 5.73841V13.3704C45.4093 13.5296 45.2794 13.6597 45.1202 13.6597Z" fill="#485576"/>
<path d="M46.5577 13.6597C46.3985 13.6597 46.2686 13.5296 46.2686 13.3704V5.73841C46.2686 5.57914 46.3985 5.44913 46.5577 5.44913C46.7169 5.44913 46.8468 5.57914 46.8468 5.73841V13.3704C46.8468 13.5296 46.7169 13.6597 46.5577 13.6597Z" fill="#485576"/>
<path d="M47.9913 13.6597C47.8321 13.6597 47.7021 13.5296 47.7021 13.3704V5.73841C47.7021 5.57914 47.8321 5.44913 47.9913 5.44913C48.1505 5.44913 48.2804 5.57914 48.2804 5.73841V13.3704C48.2804 13.5296 48.1505 13.6597 47.9913 13.6597Z" fill="#485576"/>
<path d="M49.4258 13.6597C49.2667 13.6597 49.1367 13.5296 49.1367 13.3704V5.73841C49.1367 5.57914 49.2667 5.44913 49.4258 5.44913C49.585 5.44913 49.715 5.57914 49.715 5.73841V13.3704C49.715 13.5296 49.585 13.6597 49.4258 13.6597Z" fill="#485576"/>
<path d="M50.8624 13.6597C50.7032 13.6597 50.5732 13.5296 50.5732 13.3704V5.73841C50.5732 5.57914 50.7032 5.44913 50.8624 5.44913C51.0215 5.44913 51.1515 5.57914 51.1515 5.73841V13.3704C51.1515 13.5296 51.0215 13.6597 50.8624 13.6597Z" fill="#485576"/>
<path d="M52.296 13.6597C52.1368 13.6597 52.0068 13.5296 52.0068 13.3704V5.73841C52.0068 5.57914 52.1368 5.44913 52.296 5.44913C52.4551 5.44913 52.5851 5.57914 52.5851 5.73841V13.3704C52.5851 13.5296 52.4551 13.6597 52.296 13.6597Z" fill="#485576"/>
<path d="M53.7305 13.6597C53.5714 13.6597 53.4414 13.5296 53.4414 13.3704V5.73841C53.4414 5.57914 53.5714 5.44913 53.7305 5.44913C53.8897 5.44913 54.0197 5.57914 54.0197 5.73841V13.3704C54.0197 13.5296 53.8897 13.6597 53.7305 13.6597Z" fill="#485576"/>
<path d="M55.1661 13.6597C55.0069 13.6597 54.877 13.5297 54.877 13.3704V5.73849C54.877 5.57922 55.0069 5.4492 55.1661 5.4492C55.3253 5.4492 55.4552 5.57922 55.4552 5.73849V13.3704C55.4552 13.5297 55.3253 13.6597 55.1661 13.6597Z" fill="#485576"/>
<path d="M56.6006 13.6597C56.4415 13.6597 56.3115 13.5296 56.3115 13.3704V5.73841C56.3115 5.57914 56.4415 5.44913 56.6006 5.44913C56.7598 5.44913 56.8898 5.57914 56.8898 5.73841V13.3704C56.8898 13.5296 56.7598 13.6597 56.6006 13.6597Z" fill="#485576"/>
<path d="M58.0352 13.6597C57.876 13.6597 57.7461 13.5296 57.7461 13.3704V5.73841C57.7461 5.57914 57.876 5.44913 58.0352 5.44913C58.1944 5.44913 58.3243 5.57914 58.3243 5.73841V13.3704C58.3243 13.5296 58.1944 13.6597 58.0352 13.6597Z" fill="#485576"/>
<path d="M59.4698 13.6597C59.3106 13.6597 59.1807 13.5296 59.1807 13.3704V5.73841C59.1807 5.57914 59.3106 5.44913 59.4698 5.44913C59.629 5.44913 59.7589 5.57914 59.7589 5.73841V13.3704C59.7589 13.5296 59.629 13.6597 59.4698 13.6597Z" fill="#485576"/>
<path d="M102.77 11.825C102.77 13.7791 101.172 15.3777 99.219 15.3777H76.4444C74.4914 15.3777 72.8931 13.7791 72.8931 11.825V10.2362C72.8931 8.28204 74.4907 6.68349 76.4444 6.68349H99.219C101.172 6.68349 102.77 8.28204 102.77 10.2362V11.825ZM110.655 2.8272C110.197 1.1578 108.681 0 106.95 0H68.6712C66.7961 0 65.1523 1.25401 64.6566 3.06383L61.8336 13.3663H41.8307C40.4377 13.3663 39.2007 14.2582 38.7602 15.5805L35.1172 26.5162V112.532C35.1172 116.104 38.011 118.999 41.5806 118.999H107.08C110.65 118.999 113.544 116.104 113.544 112.532V13.3663L110.656 2.82785L110.655 2.8272Z" fill="#9AADC4"/>
<path d="M110.655 2.82812C110.197 1.15871 108.68 0.000915527 106.95 0.000915527H87.1196C87.0377 2.22939 86.9182 4.45723 86.7655 6.68375H99.2186C101.172 6.68375 102.77 8.2823 102.77 10.2364V11.8252C102.77 13.7794 101.172 15.3779 99.2186 15.3779H86.0294C85.6668 18.9872 85.2478 22.5867 84.802 26.168C82.2357 46.784 79.694 67.7661 72.0721 87.2451C67.1161 99.91 59.5189 112.173 48.3672 119H107.079C110.649 119 113.543 116.104 113.543 112.532V13.3666L110.655 2.82812Z" fill="#8A9DB0"/>
<path d="M110.655 2.82812C110.197 1.15871 108.68 0.000915527 106.949 0.000915527H102.652C104.935 11.7485 105.555 23.7809 104.895 35.7281C103.567 59.7889 97.6208 83.6176 88.5696 105.902C86.7387 110.411 84.6804 114.855 82.1641 119H107.079C110.649 119 113.543 116.105 113.543 112.533V13.3666L110.655 2.82812Z" fill="#7A8C9B"/>
<path d="M105.17 115.443H43.4876C40.126 115.443 37.4004 112.715 37.4004 109.352V28.3485H111.256V109.352C111.256 112.715 108.531 115.443 105.17 115.443Z" fill="#349AC0"/>
<path d="M108.401 85.245C98.8832 88.2321 90.8676 81.1495 82.9657 77.2159C77.1891 74.3399 70.3469 74.518 64.2188 76.0646C58.7196 77.4525 54.0851 80.9727 48.7542 82.8482C45.0151 84.1633 40.9868 84.3947 37.4004 82.9125V109.353C37.4004 112.716 40.126 115.443 43.4876 115.443H105.17C108.531 115.443 111.257 112.716 111.257 109.353V83.9461C110.38 84.4734 109.436 84.92 108.401 85.245Z" fill="#52B4DE"/>
<path d="M84.8146 1.29351C84.8146 1.29351 68.5834 0.287182 67.5782 1.29351C66.5725 2.29918 66.2853 3.30551 67.5782 3.88018C68.8712 4.45485 83.6652 4.68693 84.8146 4.31119C85.9639 3.93609 87.2562 2.58652 84.8146 1.29286V1.29351Z" fill="#C9D5E0"/>
<path d="M62.4056 15.3784C62.4056 15.3784 44.5241 15.2347 42.6919 15.3784C40.8597 15.522 40.1417 17.8935 42.1526 19.1865C44.1635 20.4802 62.9799 19.977 62.9799 19.977C62.9799 19.977 65.4625 20.0733 65.4612 17.6498C65.4612 16.4549 64.2008 15.2601 62.4049 15.3777L62.4056 15.3784Z" fill="#C9D5E0"/>
<path d="M98.8903 16.9589H76.4562C76.4562 16.9589 74.9742 17.1026 75.3335 18.3241C75.6922 19.5456 77.1287 19.4019 77.1287 19.4019L98.8903 19.4071C98.8903 19.4071 101.045 19.3349 100.901 18.183C100.758 17.0304 99.4647 16.9589 98.8903 16.9589Z" fill="#C9D5E0"/>
<path d="M101.348 33.145C101.348 33.145 48.3933 33.4323 45.4248 35.4443C42.4562 37.4563 40.3498 57.2897 45.4248 61.17C50.4997 65.0503 85.2602 52.1157 93.8787 48.9543C102.497 45.7923 105.657 44.3556 106.231 39.469C106.806 34.5823 103.643 33.1287 101.348 33.1456V33.145Z" fill="#52A4C7"/>
<path d="M84.615 48.4067C83.9157 48.4067 83.2345 48.5591 82.5711 48.8639C81.9078 49.1508 81.3161 49.6169 80.7962 50.2623C80.2942 50.9078 79.8818 51.7414 79.5591 52.7634C79.2543 53.7853 79.102 55.0223 79.102 56.4745C79.102 57.9267 79.2543 59.1638 79.5591 60.1857C79.8818 61.2077 80.2942 62.0413 80.7962 62.6867C81.3161 63.3322 81.9078 63.8073 82.5711 64.1121C83.2345 64.3989 83.9157 64.5423 84.615 64.5423C85.3142 64.5423 85.9954 64.3989 86.6588 64.1121C87.3221 63.8073 87.9048 63.3322 88.4068 62.6867C88.9267 62.0413 89.3391 61.2077 89.6439 60.1857C89.9666 59.1638 90.1279 57.9267 90.1279 56.4745C90.1279 55.0223 89.9666 53.7853 89.6439 52.7634C89.3391 51.7414 88.9267 50.9078 88.4068 50.2623C87.9048 49.6169 87.3221 49.1508 86.6588 48.8639C85.9954 48.5591 85.3142 48.4067 84.615 48.4067ZM84.615 46.5243C86.0313 46.5243 87.3311 46.7304 88.5144 47.1428C89.6977 47.5372 90.7196 48.1468 91.5802 48.9715C92.4407 49.7962 93.1041 50.8361 93.5702 52.091C94.0543 53.3281 94.2963 54.7893 94.2963 56.4745C94.2963 58.1598 94.0543 59.6299 93.5702 60.8849C93.1041 62.122 92.4407 63.1529 91.5802 63.9776C90.7196 64.8023 89.6977 65.4208 88.5144 65.8332C87.3311 66.2276 86.0313 66.4248 84.615 66.4248C83.1986 66.4248 81.8988 66.2276 80.7155 65.8332C79.5322 65.4208 78.5103 64.8023 77.6498 63.9776C76.7892 63.1529 76.1169 62.122 75.6328 60.8849C75.1667 59.6299 74.9336 58.1598 74.9336 56.4745C74.9336 54.7893 75.1667 53.3281 75.6328 52.091C76.1169 50.8361 76.7892 49.7962 77.6498 48.9715C78.5103 48.1468 79.5322 47.5372 80.7155 47.1428C81.8988 46.7304 83.1986 46.5243 84.615 46.5243Z" fill="white"/>
<path d="M71.1584 47.0616V65.8865H67.259V50.2888H66.99L63.7629 52.0368L62.5527 50.2888L67.1245 47.0616H71.1584Z" fill="white"/>
<path d="M62.0093 58.3575H49.6387V55.9371H62.0093V58.3575Z" fill="white"/>
<path d="M78.1367 106.877H78.6208C78.9435 106.877 79.2286 106.742 79.476 106.474C79.7234 106.205 79.8686 105.747 79.9116 105.102L80.4764 96.5501H90.0771V107.845H87.7374V97.7603H82.6547L82.1706 105.102C82.0953 106.156 81.7995 106.92 81.2832 107.393C80.7776 107.856 80.0784 108.087 79.1855 108.087C78.9058 108.087 78.6584 108.06 78.4433 108.006C78.325 107.985 78.2228 107.958 78.1367 107.926V106.877Z" fill="white"/>
<path d="M70.9226 92.7842V107.844H67.8031V95.3659H67.5879L65.0062 96.7643L64.0381 95.3659L67.6955 92.7842H70.9226Z" fill="white"/>
</svg>
