<svg width="187" height="173" viewBox="0 0 187 173" fill="none" xmlns="http://www.w3.org/2000/svg">
<path d="M3.47394 34.6006C3.47394 16.9069 17.8029 2.563 35.4781 2.563C45.9474 2.563 55.2439 7.59418 61.0841 15.378H54.0406C53.7011 15.378 53.3755 15.513 53.1354 15.7534C52.8953 15.9937 52.7604 16.3196 52.7604 16.6595C52.7604 16.9994 52.8953 17.3254 53.1354 17.5657C53.3755 17.806 53.7011 17.941 54.0406 17.941H63.5298C63.8694 17.941 64.195 17.806 64.4351 17.5657C64.6751 17.3254 64.81 16.9994 64.81 16.6595V7.36864C64.81 7.02876 64.6751 6.70281 64.4351 6.46248C64.195 6.22215 63.8694 6.08713 63.5298 6.08713C63.1903 6.08713 62.8647 6.22215 62.6246 6.46248C62.3845 6.70281 62.2497 7.02876 62.2497 7.36864V12.7138C55.9128 4.95557 46.2738 0 35.4781 0C16.3889 0 0.9136 15.4914 0.9136 34.6006C0.908048 39.1686 1.80879 43.6922 3.56355 47.9089C3.62625 48.0671 3.71979 48.2112 3.83873 48.3328C3.95766 48.4544 4.09959 48.5511 4.25625 48.6172C4.41291 48.6833 4.58115 48.7175 4.75115 48.7178C4.92115 48.7181 5.08951 48.6845 5.24641 48.619C5.4033 48.5535 5.54559 48.4573 5.66496 48.3361C5.78433 48.215 5.8784 48.0712 5.94167 47.9133C6.00494 47.7553 6.03615 47.5863 6.03348 47.4162C6.0308 47.246 5.9943 47.0781 5.9261 46.9222C4.30178 43.018 3.46827 38.8298 3.47394 34.6006ZM67.5297 21.6253C67.4675 21.4682 67.3748 21.325 67.257 21.2039C67.1392 21.0828 66.9987 20.9862 66.8434 20.9197C66.6882 20.8532 66.5214 20.8181 66.3525 20.8164C66.1837 20.8147 66.0162 20.8465 65.8597 20.9099C65.7032 20.9733 65.5607 21.067 65.4405 21.1857C65.3204 21.3045 65.2248 21.4458 65.1594 21.6016C65.0941 21.7575 65.0601 21.9247 65.0596 22.0937C65.059 22.2628 65.0919 22.4302 65.1563 22.5865C66.6979 26.4037 67.4878 30.4832 67.4824 34.6006C67.4824 52.2942 53.1534 66.6381 35.4781 66.6381C24.8655 66.6381 15.4589 61.4685 9.63475 53.5027H17.2357C17.5753 53.5027 17.9009 53.3677 18.141 53.1274C18.381 52.887 18.5159 52.5611 18.5159 52.2212C18.5159 51.8813 18.381 51.5554 18.141 51.315C17.9009 51.0747 17.5753 50.9397 17.2357 50.9397H7.22355C6.88403 50.9397 6.55841 51.0747 6.31833 51.315C6.07826 51.5554 5.94338 51.8813 5.94338 52.2212V61.5121C5.94338 61.852 6.07826 62.1779 6.31833 62.4183C6.55841 62.6586 6.88403 62.7936 7.22355 62.7936C7.56307 62.7936 7.88869 62.6586 8.12877 62.4183C8.36884 62.1779 8.50372 61.852 8.50372 61.5121V56.2374C14.8374 64.1392 24.5666 69.2011 35.4781 69.2011C54.5674 69.2011 70.0427 53.7097 70.0427 34.6006C70.0479 30.1538 69.1946 25.748 67.5297 21.6253Z" fill="#349AC0"/>
<path d="M36.8517 15.3781C36.8517 15.0382 36.7168 14.7122 36.4767 14.4719C36.2367 14.2316 35.911 14.0966 35.5715 14.0966C35.232 14.0966 34.9064 14.2316 34.6663 14.4719C34.4262 14.7122 34.2914 15.0382 34.2914 15.3781V18.1455L32.9894 17.1414C32.8565 17.0356 32.7039 16.9574 32.5405 16.9112C32.3771 16.8651 32.2062 16.8519 32.0376 16.8725C31.8691 16.8931 31.7064 16.9471 31.5589 17.0312C31.4114 17.1154 31.2821 17.2281 31.1785 17.3628C31.0749 17.4974 30.9991 17.6514 30.9555 17.8156C30.9119 17.9799 30.9014 18.1512 30.9246 18.3196C30.9478 18.4879 31.0042 18.65 31.0906 18.7963C31.1769 18.9427 31.2915 19.0704 31.4276 19.1719L34.2914 21.3806V23.1837L30.4636 19.6256C30.2149 19.3943 29.8845 19.2714 29.5452 19.284C29.2059 19.2965 28.8855 19.4435 28.6545 19.6926C28.4234 19.9416 28.3007 20.2723 28.3132 20.612C28.3257 20.9516 28.4726 21.2724 28.7213 21.5036L34.2914 26.6809V32.9487L28.6804 29.7315L27.2991 22.7249C27.2334 22.3914 27.038 22.0977 26.756 21.9084C26.474 21.7191 26.1284 21.6496 25.7952 21.7154C25.462 21.7812 25.1686 21.9767 24.9795 22.2591C24.7904 22.5414 24.721 22.8874 24.7867 23.2209L25.7379 28.0438L24.0161 27.0564L23.3773 23.6623C23.3082 23.3345 23.1137 23.0467 22.8352 22.8607C22.5568 22.6747 22.2167 22.6053 21.8878 22.6673C21.5588 22.7293 21.2672 22.9178 21.0754 23.1924C20.8837 23.467 20.8069 23.8059 20.8617 24.1365L21.0954 25.3815L18.832 24.0839C18.538 23.9234 18.1929 23.8846 17.8706 23.9758C17.5484 24.067 17.2747 24.281 17.1082 24.5719C16.9417 24.8628 16.8957 25.2074 16.9801 25.5318C17.0645 25.8563 17.2725 26.1347 17.5596 26.3073L20.0956 27.7619L18.9594 28.2969C18.8041 28.3664 18.6642 28.4662 18.5478 28.5904C18.4315 28.7147 18.341 28.8609 18.2818 29.0205C18.2225 29.1802 18.1957 29.3501 18.2028 29.5202C18.2098 29.6904 18.2507 29.8574 18.3231 30.0116C18.3954 30.1657 18.4977 30.3039 18.6239 30.418C18.7502 30.5322 18.898 30.6199 19.0585 30.6763C19.2191 30.7326 19.3892 30.7563 19.5591 30.746C19.7289 30.7357 19.8949 30.6917 20.0476 30.6164L22.8082 29.3176L24.2536 30.1467L19.9042 31.3718C19.5812 31.4672 19.3087 31.6862 19.1458 31.9813C18.983 32.2764 18.9428 32.6238 19.0341 32.9483C19.1254 33.2728 19.3407 33.5483 19.6334 33.7149C19.9262 33.8816 20.2728 33.9261 20.598 33.8387L27.3676 31.9319L32.9024 35.1061L27.3829 38.2715L20.6262 36.1967C20.465 36.1457 20.2954 36.1272 20.1271 36.1423C19.9587 36.1573 19.795 36.2055 19.6454 36.2842C19.4958 36.3628 19.3632 36.4704 19.2553 36.6006C19.1474 36.7308 19.0663 36.8812 19.0168 37.0429C18.9672 37.2046 18.9501 37.3746 18.9665 37.543C18.9829 37.7114 19.0325 37.8748 19.1123 38.024C19.1921 38.1731 19.3006 38.3049 19.4316 38.4118C19.5626 38.5188 19.7134 38.5987 19.8754 38.6469L24.338 40.0175L22.7103 40.9504L19.8767 40.0854C19.7158 40.0364 19.5469 40.0195 19.3795 40.0358C19.2122 40.0521 19.0497 40.1012 18.9013 40.1804C18.7529 40.2595 18.6216 40.3672 18.5147 40.4972C18.4079 40.6272 18.3277 40.7769 18.2787 40.9379C18.2297 41.0989 18.2128 41.268 18.2291 41.4356C18.2454 41.6031 18.2945 41.7658 18.3736 41.9143C18.4526 42.0629 18.5602 42.1944 18.69 42.3013C18.8199 42.4082 18.9695 42.4885 19.1303 42.5376L19.6609 42.6997L17.5596 43.9043C17.4135 43.9878 17.2853 44.0994 17.1824 44.2326C17.0794 44.3657 17.0037 44.5179 16.9595 44.6804C16.9153 44.8429 16.9036 45.0125 16.9249 45.1795C16.9462 45.3465 17.0002 45.5077 17.0839 45.6538C17.1675 45.8 17.279 45.9282 17.4121 46.0311C17.5453 46.134 17.6974 46.2097 17.8597 46.2538C18.0221 46.2978 18.1915 46.3094 18.3583 46.2879C18.5252 46.2664 18.6861 46.2122 18.832 46.1283L20.9994 44.8853L20.8688 45.4837C20.8024 45.8133 20.868 46.1558 21.0516 46.4374C21.2352 46.719 21.5219 46.9171 21.85 46.989C22.1781 47.0608 22.5213 47.0007 22.8056 46.8217C23.0898 46.6426 23.2924 46.3588 23.3696 46.0316L23.9956 43.1674L25.5344 42.2851L24.4302 46.5474C24.345 46.8764 24.3938 47.2258 24.566 47.5188C24.7381 47.8117 25.0194 48.0242 25.3481 48.1095C25.6768 48.1949 26.0258 48.146 26.3185 47.9737C26.6111 47.8013 26.8234 47.5197 26.9086 47.1907L28.6413 40.5038L34.2914 37.2635V43.6768L28.7719 48.2934C28.6429 48.4014 28.5363 48.5337 28.4584 48.6828C28.3804 48.8319 28.3326 48.9949 28.3176 49.1626C28.3026 49.3302 28.3207 49.4992 28.3709 49.6598C28.4211 49.8204 28.5025 49.9696 28.6103 50.0988C28.7181 50.2279 28.8502 50.3346 28.9992 50.4126C29.1482 50.4906 29.3111 50.5385 29.4785 50.5535C29.646 50.5686 29.8148 50.5504 29.9752 50.5002C30.1357 50.4499 30.2847 50.3685 30.4137 50.2605L34.2914 47.0164V48.7887L32.2988 50.5361C32.0434 50.76 31.8873 51.0764 31.8649 51.4156C31.8425 51.7547 31.9556 52.0889 32.1794 52.3446C32.4031 52.6003 32.7192 52.7565 33.058 52.7789C33.3968 52.8013 33.7306 52.6881 33.986 52.4641L34.2914 52.1963V54.4639C34.2914 54.8037 34.4262 55.1297 34.6663 55.37C34.9064 55.6104 35.232 55.7454 35.5715 55.7454C35.911 55.7454 36.2367 55.6104 36.4767 55.37C36.7168 55.1297 36.8517 54.8037 36.8517 54.4639V52.0643L37.3791 52.4936C37.5092 52.602 37.6595 52.6835 37.8214 52.7334C37.9832 52.7833 38.1532 52.8006 38.3218 52.7843C38.4903 52.7679 38.6539 52.7183 38.8031 52.6382C38.9523 52.5581 39.0842 52.4492 39.1911 52.3177C39.298 52.1863 39.3777 52.0349 39.4258 51.8724C39.4738 51.7099 39.4892 51.5394 39.471 51.3709C39.4528 51.2024 39.4014 51.0392 39.3197 50.8907C39.2381 50.7423 39.1278 50.6115 38.9953 50.506L36.851 48.7605V47.2003L40.1219 50.2195C40.3715 50.45 40.7024 50.5717 41.0417 50.5579C41.2097 50.5511 41.3747 50.5113 41.5273 50.4406C41.6799 50.37 41.8171 50.2699 41.9311 50.1462C42.0451 50.0224 42.1336 49.8774 42.1916 49.7195C42.2496 49.5615 42.2759 49.3936 42.2691 49.2254C42.2623 49.0573 42.2225 48.8921 42.1519 48.7393C42.0813 48.5865 41.9814 48.4492 41.8578 48.3351L36.8517 43.714V37.3706L42.2988 40.4942L43.8536 47.1606C43.9329 47.4894 44.1388 47.7734 44.4265 47.9509C44.7141 48.1283 45.0602 48.1847 45.3892 48.1077C45.7182 48.0308 46.0035 47.8267 46.1829 47.5401C46.3623 47.2534 46.4211 46.9074 46.3467 46.5775L45.3341 42.2345L46.8876 43.1258L47.1903 45.897C47.2086 46.0644 47.2596 46.2264 47.3405 46.374C47.4214 46.5216 47.5304 46.6518 47.6616 46.7572C47.7927 46.8625 47.9433 46.941 48.1047 46.9881C48.2661 47.0353 48.4352 47.0501 48.6024 47.0318C48.7695 47.0135 48.9314 46.9624 49.0788 46.8815C49.2263 46.8005 49.3563 46.6913 49.4616 46.5601C49.5669 46.4288 49.6453 46.2781 49.6923 46.1165C49.7394 45.9549 49.7542 45.7856 49.7359 45.6183L49.6354 44.702L52.1241 46.1283C52.2701 46.2162 52.4322 46.274 52.6008 46.2983C52.7694 46.3226 52.9412 46.313 53.1061 46.2701C53.2709 46.2271 53.4256 46.1516 53.5609 46.0481C53.6963 45.9445 53.8096 45.8149 53.8943 45.667C53.979 45.519 54.0333 45.3556 54.0541 45.1863C54.0749 45.0171 54.0617 44.8453 54.0154 44.6812C53.969 44.5171 53.8904 44.3639 53.7842 44.2306C53.6779 44.0973 53.5461 43.9866 53.3966 43.9049L51.838 43.0111L52.224 42.9464C52.3898 42.9186 52.5486 42.8585 52.6912 42.7693C52.8338 42.6802 52.9575 42.5638 53.0552 42.4268C53.1529 42.2898 53.2226 42.1349 53.2605 41.9709C53.2984 41.8069 53.3036 41.6371 53.2759 41.471C53.2482 41.305 53.1881 41.1461 53.0991 41.0033C53.01 40.8606 52.8938 40.7367 52.7569 40.639C52.6201 40.5412 52.4653 40.4713 52.3015 40.4334C52.1377 40.3955 51.968 40.3902 51.8021 40.418L48.329 40.9985L46.5925 40.0028L50.9028 38.6444C51.0632 38.5938 51.2121 38.5122 51.3409 38.4041C51.4698 38.2959 51.5761 38.1635 51.6538 38.0142C51.7315 37.865 51.7791 37.7018 51.7939 37.5342C51.8086 37.3665 51.7902 37.1976 51.7397 37.037C51.6893 36.8765 51.6077 36.7275 51.4997 36.5985C51.3917 36.4695 51.2593 36.3631 51.1102 36.2853C50.9611 36.2075 50.7982 36.1598 50.6307 36.1451C50.4632 36.1303 50.2945 36.1487 50.1341 36.1993L43.5687 38.2689L38.0538 35.1061L43.5841 31.9344L50.1629 33.8368C50.4891 33.9311 50.8393 33.8919 51.1366 33.7277C51.4339 33.5635 51.6538 33.2878 51.7481 32.9612C51.8423 32.6347 51.803 32.2841 51.639 31.9865C51.475 31.6889 51.1996 31.4687 50.8734 31.3744L46.677 30.1608L48.2977 29.2317L50.8049 29.7821C51.1166 29.851 51.4428 29.8007 51.7195 29.6412C51.9961 29.4817 52.2033 29.2245 52.3002 28.92C52.3972 28.6155 52.3771 28.2857 52.2437 27.9954C52.1103 27.705 51.8734 27.475 51.5794 27.3505L53.3972 26.308C53.5431 26.2243 53.6711 26.1126 53.7739 25.9794C53.8766 25.8461 53.9522 25.6939 53.9962 25.5315C54.0402 25.369 54.0518 25.1995 54.0304 25.0325C54.0089 24.8655 53.9548 24.7045 53.8712 24.5584C53.7876 24.4124 53.676 24.2843 53.5429 24.1814C53.4098 24.0785 53.2578 24.0029 53.0955 23.9588C52.9332 23.9148 52.7638 23.9031 52.597 23.9246C52.4303 23.9461 52.2693 24.0002 52.1235 24.0839L49.6354 25.5109L49.7359 24.5946C49.773 24.2567 49.6743 23.9179 49.4618 23.6528C49.2493 23.3876 48.9402 23.2179 48.6027 23.1808C48.2651 23.1438 47.9267 23.2425 47.6618 23.4552C47.3969 23.668 47.2273 23.9773 47.1903 24.3153L46.8876 27.0865L45.2797 28.0092L46.3512 23.0594C46.3868 22.8949 46.3897 22.725 46.3598 22.5593C46.3298 22.3937 46.2676 22.2356 46.1766 22.094C46.0856 21.9525 45.9676 21.8303 45.8294 21.7344C45.6912 21.6384 45.5355 21.5707 45.3712 21.535C45.2069 21.4994 45.0371 21.4964 44.8717 21.5264C44.7062 21.5564 44.5483 21.6187 44.4069 21.7098C44.2655 21.8009 44.1434 21.919 44.0476 22.0573C43.9518 22.1957 43.8841 22.3515 43.8485 22.516L42.2886 29.7245L36.8523 32.8417V26.6437L41.9064 21.4601C42.1386 21.2159 42.2654 20.89 42.2592 20.553C42.253 20.216 42.1145 19.8949 41.8735 19.6595C41.6326 19.424 41.3086 19.293 40.9719 19.295C40.6352 19.2969 40.3127 19.4316 40.0745 19.6698L36.8523 22.9742V21.3588L39.5573 19.1495C39.6876 19.0432 39.7957 18.9122 39.8754 18.764C39.9551 18.6158 40.0049 18.4534 40.0219 18.2859C40.0389 18.1185 40.0228 17.9494 39.9745 17.7882C39.9262 17.627 39.8466 17.4769 39.7404 17.3464C39.6341 17.216 39.5033 17.1078 39.3553 17.028C39.2072 16.9482 39.045 16.8984 38.8777 16.8814C38.7104 16.8644 38.5415 16.8805 38.3805 16.9289C38.2194 16.9772 38.0695 17.0568 37.9392 17.1632L36.8523 18.0513L36.8517 15.3781Z" fill="#349AC0"/>
<path d="M150.288 165.55C140.928 165.55 131.568 161.98 124.445 154.85L121.408 151.81L126.353 146.86L129.39 149.9C134.974 155.49 142.396 158.57 150.288 158.57C158.18 158.57 165.612 155.49 171.196 149.9C176.781 144.31 179.857 136.88 179.857 128.97C179.857 121.06 176.781 113.63 171.196 108.04L157.381 94.21C156.761 93.59 155.892 93.23 155.013 93.23H144.314V86.23H155.013C157.78 86.23 160.378 87.31 162.326 89.26L176.141 103.09C190.396 117.36 190.396 140.57 176.141 154.84C169.019 161.97 159.658 165.54 150.298 165.54L150.288 165.55Z" fill="#262626"/>
<path d="M145.014 82.7H153.445C154.863 82.7 156.012 83.85 156.012 85.27V94.59C156.012 96.01 154.863 97.16 153.445 97.16H145.014V82.71V82.7Z" fill="#349AC0"/>
<path d="M149.409 22.54V141.06C149.409 150.72 141.587 158.56 131.937 158.56H59.6925C50.0426 158.56 42.2207 150.73 42.2207 141.06V140.12V22.53C42.2207 12.85 50.0625 5 59.7225 5H131.897C141.567 5 149.409 12.85 149.409 22.53V22.54Z" fill="#349AC0"/>
<path style="mix-blend-mode:screen" opacity="0.25" d="M149.409 22.53C149.409 12.85 141.567 5 131.897 5H59.7325C50.0625 5 42.2207 12.85 42.2207 22.53V62.12C53.7986 73.31 69.4423 82.39 87.6933 87.51C109.84 93.71 131.727 92.91 149.409 86.62V22.53Z" fill="url(#paint0_linear_197_5)"/>
<path style="mix-blend-mode:screen" opacity="0.5" d="M131.897 5H59.7225C50.0525 5 42.2207 12.85 42.2207 22.53V25.27C42.2207 15.59 50.0525 7.75 59.7225 7.75H131.897C141.567 7.75 149.409 15.59 149.409 25.27V22.53C149.409 12.85 141.567 5 131.897 5Z" fill="url(#paint1_linear_197_5)"/>
<path d="M95.8148 29.38C82.8782 29.38 71.0705 33.82 62.0699 41.14C61.041 41.97 60.9811 43.52 61.9401 44.43L70.1615 52.19C70.9407 52.93 72.1494 52.99 72.9885 52.32C79.0922 47.41 87.0739 44.42 95.8148 44.42C104.556 44.42 112.537 47.4 118.641 52.32C119.48 52.99 120.689 52.93 121.468 52.19L129.689 44.43C130.648 43.52 130.589 41.98 129.56 41.14C120.569 33.82 108.761 29.38 95.8148 29.38Z" fill="white"/>
<path d="M123.037 19.6801L118.192 34.1301L113.277 48.7701H113.267C110.28 47.1501 107.003 45.9401 103.527 45.2301H103.517L113.417 32.2601L123.027 19.6801H123.037Z" fill="#B2DAE9"/>
<path style="mix-blend-mode:screen" opacity="0.25" d="M123.037 19.6801L113.427 32.2601L103.527 45.2201H103.537C105.445 45.6201 107.273 46.1801 109.051 46.8501L123.047 19.6801H123.037Z" fill="url(#paint2_linear_197_5)"/>
<path style="mix-blend-mode:screen" opacity="0.35" d="M113.147 54.47C111.868 53.72 110.48 53.03 109.071 52.47C107.673 51.88 106.234 51.38 104.766 50.99C101.849 50.19 98.8319 49.75 95.815 49.76C92.7982 49.75 89.7913 50.19 86.8643 50.99C85.3959 51.37 83.9574 51.88 82.5588 52.47C81.1503 53.03 79.7617 53.72 78.4831 54.47L78.4431 54.49C78.1834 54.64 77.8437 54.56 77.6939 54.3C77.554 54.06 77.614 53.75 77.8337 53.58C80.421 51.63 83.308 50.27 86.3549 49.28C89.3917 48.29 92.6083 47.83 95.815 47.77C99.0217 47.83 102.228 48.29 105.275 49.28C108.322 50.27 111.209 51.62 113.796 53.58C114.036 53.76 114.086 54.11 113.906 54.35C113.736 54.57 113.427 54.63 113.187 54.49L113.147 54.47Z" fill="url(#paint3_linear_197_5)"/>
<path d="M124.227 86.4021C127.801 71.0514 118.267 55.7067 102.932 52.1288C87.5976 48.5509 72.2689 58.0947 68.6947 73.4455C65.1206 88.7962 74.6544 104.141 89.9892 107.719C105.324 111.297 120.653 101.753 124.227 86.4021Z" fill="white"/>
<path d="M171.186 149.9C159.658 161.44 140.908 161.44 129.38 149.9L126.343 146.86L121.398 151.81L124.435 154.85C131.557 161.98 140.918 165.55 150.278 165.55C159.638 165.55 168.998 161.98 176.121 154.85L171.176 149.9H171.186Z" fill="#212121"/>
<path d="M130.488 146.154L134.394 150.626C135.446 151.83 135.324 153.664 134.12 154.718L129.759 158.536C128.556 159.589 126.723 159.466 125.671 158.262L121.765 153.791L130.48 146.161L130.488 146.154Z" fill="#B2DAE9"/>
<path d="M84.0473 121.19C84.0473 121.19 81.9794 134.32 82.0394 134.76C82.0993 135.2 103.527 159.28 103.527 159.28L105.215 158.44L86.225 135L89.072 124.71L84.0473 121.19Z" fill="#252525"/>
<path d="M131.847 146.55L82.6087 93.22C82.1292 92.7 81.4998 92.36 80.8006 92.25L49.4232 87.16C47.6151 86.87 45.9369 88.18 45.787 90.02L45.0078 99.8C44.888 101.29 45.827 102.65 47.2655 103.07L60.3818 106.9C61.6905 107.28 62.6095 108.47 62.6395 109.84L63.109 127.41C63.129 128.18 63.4286 128.91 63.9581 129.47L103.367 171.73C104.526 172.97 106.454 173.07 107.732 171.95L131.608 151.05C132.936 149.88 133.046 147.85 131.847 146.55ZM118.301 155.91L106.654 166.43C106.104 166.93 105.255 166.88 104.766 166.33L72.3494 130.5C71.9098 130.02 71.8898 129.29 72.2894 128.77L79.0524 120.15C79.5319 119.54 80.4309 119.46 81.0103 119.99L118.311 153.92C118.901 154.45 118.891 155.38 118.311 155.91H118.301Z" fill="url(#paint4_linear_197_5)"/>
<path d="M52.6697 95.49C52.9294 93.24 51.3211 91.21 49.0734 90.95L24.1494 88.06C23.5001 87.98 22.8408 88.06 22.2214 88.3L8.90527 93.37L12.6014 100.73L24.1894 96.32L48.1144 99.1C50.3621 99.36 52.39 97.75 52.6497 95.5L52.6697 95.49Z" fill="#969696"/>
<path d="M69.4923 124.02C73.1685 117.64 89.4416 111.98 99.4411 111.45L82.6087 93.22C82.1292 92.7 81.4998 92.36 80.8006 92.25L49.4232 87.16C47.6151 86.87 45.9369 88.18 45.787 90.02L45.0078 99.8C44.888 101.29 45.827 102.65 47.2655 103.07L60.3818 106.9C61.6905 107.28 62.6095 108.47 62.6395 109.84L63.109 127.41C63.129 128.18 63.4286 128.91 63.9581 129.47L67.5544 133.33C67.2047 131.06 67.3446 127.76 69.4923 124.03V124.02Z" fill="#B2DAE9"/>
<path d="M70.1317 103.82C69.3924 103.4 50.7419 101.12 48.8039 99.66C47.1856 98.44 46.736 90.67 46.6361 88.11C46.1666 88.61 45.847 89.27 45.787 90.01L45.0078 99.79C44.888 101.28 45.827 102.64 47.2655 103.06L60.3818 106.89C61.6905 107.27 62.6095 108.46 62.6395 109.83L63.109 127.4C63.129 128.17 63.4286 128.9 63.9581 129.46L67.5544 133.32C66.3556 129.86 67.9439 125.72 69.7021 122.68C70.4414 121.402 77.4965 108.014 70.1317 103.83V103.82Z" fill="#494949"/>
<path d="M81 80.4H71.8V78.6H81V80.4ZM88.2047 72V86H85.3047V74.4H85.1047L82.7047 75.7L81.8047 74.4L85.2047 72H88.2047ZM98.6125 73C98.0925 73 97.5858 73.1133 97.0925 73.34C96.5992 73.5533 96.1592 73.9 95.7725 74.38C95.3992 74.86 95.0925 75.48 94.8525 76.24C94.6258 77 94.5125 77.92 94.5125 79C94.5125 80.08 94.6258 81 94.8525 81.76C95.0925 82.52 95.3992 83.14 95.7725 83.62C96.1592 84.1 96.5992 84.4533 97.0925 84.68C97.5858 84.8933 98.0925 85 98.6125 85C99.1325 85 99.6392 84.8933 100.133 84.68C100.626 84.4533 101.059 84.1 101.433 83.62C101.819 83.14 102.126 82.52 102.353 81.76C102.593 81 102.713 80.08 102.713 79C102.713 77.92 102.593 77 102.353 76.24C102.126 75.48 101.819 74.86 101.433 74.38C101.059 73.9 100.626 73.5533 100.133 73.34C99.6392 73.1133 99.1325 73 98.6125 73ZM98.6125 71.6C99.6658 71.6 100.633 71.7533 101.513 72.06C102.393 72.3533 103.153 72.8067 103.793 73.42C104.433 74.0333 104.926 74.8067 105.273 75.74C105.633 76.66 105.813 77.7467 105.813 79C105.813 80.2533 105.633 81.3467 105.273 82.28C104.926 83.2 104.433 83.9667 103.793 84.58C103.153 85.1933 102.393 85.6533 101.513 85.96C100.633 86.2533 99.6658 86.4 98.6125 86.4C97.5592 86.4 96.5925 86.2533 95.7125 85.96C94.8325 85.6533 94.0725 85.1933 93.4325 84.58C92.7925 83.9667 92.2925 83.2 91.9325 82.28C91.5858 81.3467 91.4125 80.2533 91.4125 79C91.4125 77.7467 91.5858 76.66 91.9325 75.74C92.2925 74.8067 92.7925 74.0333 93.4325 73.42C94.0725 72.8067 94.8325 72.3533 95.7125 72.06C96.5925 71.7533 97.5592 71.6 98.6125 71.6ZM111.719 71.6C112.212 71.6 112.672 71.6733 113.099 71.82C113.539 71.9533 113.912 72.16 114.219 72.44C114.525 72.7067 114.765 73.0467 114.939 73.46C115.125 73.8733 115.219 74.3533 115.219 74.9C115.219 75.4467 115.125 75.9267 114.939 76.34C114.765 76.7533 114.525 77.1 114.219 77.38C113.912 77.6467 113.539 77.8533 113.099 78C112.672 78.1333 112.212 78.2 111.719 78.2C111.212 78.2 110.745 78.1333 110.319 78C109.892 77.8533 109.525 77.6467 109.219 77.38C108.912 77.1 108.665 76.7533 108.479 76.34C108.305 75.9267 108.219 75.4467 108.219 74.9C108.219 74.3533 108.305 73.8733 108.479 73.46C108.665 73.0467 108.912 72.7067 109.219 72.44C109.525 72.16 109.892 71.9533 110.319 71.82C110.745 71.6733 111.212 71.6 111.719 71.6ZM111.719 77.1C112.065 77.1 112.365 76.9333 112.619 76.6C112.885 76.2667 113.019 75.7 113.019 74.9C113.019 74.1 112.885 73.5333 112.619 73.2C112.365 72.8667 112.065 72.7 111.719 72.7C111.372 72.7 111.065 72.8667 110.799 73.2C110.545 73.5333 110.419 74.1 110.419 74.9C110.419 75.7 110.545 76.2667 110.799 76.6C111.065 76.9333 111.372 77.1 111.719 77.1Z" fill="#349AC0"/>
<defs>
<linearGradient id="paint0_linear_197_5" x1="90.4405" y1="80.21" x2="98.3981" y2="41.0332" gradientUnits="userSpaceOnUse">
<stop stop-color="white"/>
<stop offset="0.09" stop-color="white" stop-opacity="0.95"/>
<stop offset="0.27" stop-color="white" stop-opacity="0.8"/>
<stop offset="0.5" stop-color="white" stop-opacity="0.57"/>
<stop offset="0.79" stop-color="white" stop-opacity="0.25"/>
<stop offset="1" stop-color="white" stop-opacity="0"/>
</linearGradient>
<linearGradient id="paint1_linear_197_5" x1="95.8249" y1="23.51" x2="93.2722" y2="96.7498" gradientUnits="userSpaceOnUse">
<stop stop-color="white"/>
<stop offset="0.09" stop-color="white" stop-opacity="0.95"/>
<stop offset="0.27" stop-color="white" stop-opacity="0.8"/>
<stop offset="0.5" stop-color="white" stop-opacity="0.57"/>
<stop offset="0.79" stop-color="white" stop-opacity="0.25"/>
<stop offset="1" stop-color="white" stop-opacity="0"/>
</linearGradient>
<linearGradient id="paint2_linear_197_5" x1="113.816" y1="29.6301" x2="109.662" y2="51.6585" gradientUnits="userSpaceOnUse">
<stop stop-color="white"/>
<stop offset="0.09" stop-color="white" stop-opacity="0.95"/>
<stop offset="0.27" stop-color="white" stop-opacity="0.8"/>
<stop offset="0.5" stop-color="white" stop-opacity="0.57"/>
<stop offset="0.79" stop-color="white" stop-opacity="0.25"/>
<stop offset="1" stop-color="white" stop-opacity="0"/>
</linearGradient>
<linearGradient id="paint3_linear_197_5" x1="96.744" y1="70.77" x2="98.8762" y2="109.09" gradientUnits="userSpaceOnUse">
<stop stop-color="white"/>
<stop offset="0.09" stop-color="white" stop-opacity="0.95"/>
<stop offset="0.27" stop-color="white" stop-opacity="0.8"/>
<stop offset="0.5" stop-color="white" stop-opacity="0.57"/>
<stop offset="0.79" stop-color="white" stop-opacity="0.25"/>
<stop offset="1" stop-color="white" stop-opacity="0"/>
</linearGradient>
<linearGradient id="paint4_linear_197_5" x1="99.6296" y1="108.748" x2="66.5909" y2="142.774" gradientUnits="userSpaceOnUse">
<stop stop-color="#E4E8F4"/>
<stop offset="0.4" stop-color="#E3DBF3"/>
<stop offset="1" stop-color="#E3CEF3"/>
</linearGradient>
</defs>
</svg>
