<svg width="114" height="119" viewBox="0 0 114 119" fill="none" xmlns="http://www.w3.org/2000/svg">
<path d="M1.72317 58.8956C1.72317 46.9998 11.3668 37.3562 23.2625 37.3562C30.3085 37.3562 36.5652 40.7387 40.4958 45.972H35.7554C35.5269 45.972 35.3077 46.0627 35.1461 46.2243C34.9846 46.3859 34.8938 46.605 34.8938 46.8335C34.8938 47.062 34.9846 47.2812 35.1461 47.4428C35.3077 47.6043 35.5269 47.6951 35.7554 47.6951H42.1418C42.3703 47.6951 42.5894 47.6043 42.751 47.4428C42.9126 47.2812 43.0034 47.062 43.0034 46.8335V40.5871C43.0034 40.3586 42.9126 40.1395 42.751 39.9779C42.5894 39.8163 42.3703 39.7255 42.1418 39.7255C41.9133 39.7255 41.6941 39.8163 41.5326 39.9779C41.371 40.1395 41.2802 40.3586 41.2802 40.5871V44.1807C37.0154 38.9648 30.5282 35.6331 23.2625 35.6331C10.4152 35.6331 1.71672e-05 46.0482 1.71672e-05 58.8956C-0.00371923 61.9667 0.602493 65.008 1.78348 67.843C1.82568 67.9494 1.88863 68.0463 1.96868 68.128C2.04872 68.2098 2.14424 68.2748 2.24968 68.3192C2.35511 68.3636 2.46834 68.3866 2.58275 68.3868C2.69717 68.387 2.81048 68.3645 2.91607 68.3204C3.02166 68.2763 3.11742 68.2117 3.19776 68.1302C3.2781 68.0488 3.34141 67.9521 3.38399 67.8459C3.42657 67.7397 3.44758 67.6261 3.44578 67.5117C3.44398 67.3973 3.41941 67.2844 3.37351 67.1796C2.28032 64.5548 1.71935 61.739 1.72317 58.8956ZM44.8338 50.1721C44.7919 50.0665 44.7295 49.9702 44.6502 49.8888C44.571 49.8074 44.4764 49.7424 44.3719 49.6977C44.2674 49.653 44.1551 49.6294 44.0415 49.6283C43.9279 49.6271 43.8152 49.6485 43.7098 49.6911C43.6045 49.7337 43.5086 49.7967 43.4277 49.8766C43.3468 49.9564 43.2825 50.0514 43.2385 50.1562C43.1945 50.261 43.1717 50.3734 43.1713 50.487C43.171 50.6007 43.1931 50.7133 43.2364 50.8183C44.274 53.3847 44.8056 56.1274 44.8019 58.8956C44.8019 70.7913 35.1583 80.4349 23.2625 80.4349C16.1201 80.4349 9.78923 76.9593 5.86949 71.6038H10.9851C11.2136 71.6038 11.4327 71.513 11.5943 71.3514C11.7559 71.1899 11.8467 70.9707 11.8467 70.7422C11.8467 70.5137 11.7559 70.2946 11.5943 70.133C11.4327 69.9714 11.2136 69.8806 10.9851 69.8806H4.24672C4.01822 69.8806 3.79907 69.9714 3.63749 70.133C3.47592 70.2946 3.38514 70.5137 3.38514 70.7422V76.9886C3.38514 77.2171 3.47592 77.4363 3.63749 77.5979C3.79907 77.7594 4.01822 77.8502 4.24672 77.8502C4.47522 77.8502 4.69437 77.7594 4.85594 77.5979C5.01752 77.4363 5.10829 77.2171 5.10829 76.9886V73.4424C9.37093 78.7549 15.9189 82.1581 23.2625 82.1581C36.1099 82.1581 46.5251 71.7429 46.5251 58.8956C46.5285 55.906 45.9543 52.9438 44.8338 50.1721Z" fill="#349AC0"/>
<path d="M24.1876 45.9714C24.1876 45.7429 24.0968 45.5238 23.9352 45.3622C23.7736 45.2006 23.5545 45.1098 23.326 45.1098C23.0975 45.1098 22.8783 45.2006 22.7168 45.3622C22.5552 45.5238 22.4644 45.7429 22.4644 45.9714V47.832L21.5882 47.1569C21.4987 47.0858 21.396 47.0332 21.2861 47.0022C21.1761 46.9712 21.061 46.9623 20.9476 46.9762C20.8342 46.99 20.7247 47.0263 20.6254 47.0829C20.5261 47.1394 20.4391 47.2152 20.3694 47.3058C20.2997 47.3963 20.2487 47.4998 20.2193 47.6102C20.19 47.7207 20.1829 47.8358 20.1985 47.949C20.2142 48.0622 20.2521 48.1712 20.3102 48.2696C20.3684 48.368 20.4455 48.4538 20.5371 48.5221L22.4644 50.007V51.2193L19.8883 48.8271C19.7209 48.6716 19.4985 48.589 19.2702 48.5974C19.0418 48.6059 18.8262 48.7047 18.6707 48.8721C18.5152 49.0396 18.4326 49.2619 18.441 49.4902C18.4495 49.7186 18.5483 49.9342 18.7157 50.0897L22.4644 53.5705V57.7845L18.6881 55.6215L17.7585 50.9108C17.7143 50.6866 17.5828 50.4891 17.393 50.3618C17.2032 50.2346 16.9706 50.1879 16.7464 50.2321C16.5221 50.2763 16.3247 50.4078 16.1974 50.5976C16.0701 50.7874 16.0234 51.02 16.0676 51.2442L16.7078 54.4868L15.549 53.8229L15.1191 51.5411C15.0726 51.3206 14.9416 51.1272 14.7542 51.0021C14.5669 50.8771 14.338 50.8304 14.1166 50.8721C13.8952 50.9138 13.6989 51.0405 13.5699 51.2251C13.4408 51.4098 13.3892 51.6376 13.4261 51.8598L13.5833 52.6969L12.06 51.8245C11.8622 51.7166 11.6299 51.6905 11.413 51.7518C11.1961 51.8131 11.0119 51.957 10.8998 52.1526C10.7878 52.3481 10.7568 52.5798 10.8136 52.7979C10.8704 53.0161 11.0104 53.2032 11.2036 53.3193L12.9104 54.2972L12.1458 54.6569C12.0412 54.7037 11.9471 54.7708 11.8687 54.8543C11.7904 54.9378 11.7296 55.0361 11.6897 55.1435C11.6498 55.2508 11.6317 55.365 11.6365 55.4794C11.6413 55.5938 11.6688 55.7061 11.7175 55.8098C11.7661 55.9134 11.835 56.0063 11.92 56.083C12.005 56.1597 12.1044 56.2188 12.2125 56.2566C12.3205 56.2945 12.435 56.3104 12.5493 56.3035C12.6636 56.2966 12.7754 56.267 12.8781 56.2164L14.7361 55.3432L15.7088 55.9006L12.7816 56.7243C12.5642 56.7884 12.3808 56.9356 12.2712 57.134C12.1616 57.3324 12.1346 57.566 12.196 57.7842C12.2574 58.0023 12.4024 58.1875 12.5994 58.2996C12.7964 58.4116 13.0297 58.4415 13.2486 58.3828L17.8046 57.1008L21.5296 59.2349L17.8149 61.363L13.2675 59.9681C13.1591 59.9339 13.0449 59.9214 12.9316 59.9315C12.8183 59.9416 12.7081 59.974 12.6074 60.0269C12.5067 60.0798 12.4175 60.1521 12.3449 60.2397C12.2723 60.3272 12.2177 60.4283 12.1844 60.537C12.151 60.6458 12.1395 60.76 12.1505 60.8732C12.1616 60.9865 12.1949 61.0964 12.2486 61.1966C12.3024 61.2969 12.3754 61.3855 12.4635 61.4574C12.5517 61.5293 12.6532 61.583 12.7622 61.6154L15.7657 62.5369L14.6702 63.1641L12.7631 62.5826C12.6548 62.5496 12.5411 62.5382 12.4285 62.5492C12.3159 62.5602 12.2065 62.5932 12.1066 62.6464C12.0068 62.6996 11.9184 62.772 11.8465 62.8594C11.7746 62.9468 11.7206 63.0475 11.6876 63.1557C11.6546 63.264 11.6433 63.3777 11.6543 63.4903C11.6652 63.6029 11.6982 63.7123 11.7515 63.8122C11.8047 63.912 11.8771 64.0004 11.9644 64.0723C12.0518 64.1442 12.1525 64.1982 12.2608 64.2312L12.6179 64.3402L11.2036 65.1501C11.1053 65.2062 11.0191 65.2812 10.9498 65.3708C10.8805 65.4603 10.8295 65.5626 10.7998 65.6718C10.77 65.7811 10.7621 65.8951 10.7765 66.0074C10.7909 66.1197 10.8272 66.2281 10.8835 66.3263C10.9397 66.4245 11.0148 66.5107 11.1044 66.5799C11.194 66.6492 11.2964 66.7 11.4056 66.7297C11.5149 66.7593 11.6289 66.7671 11.7412 66.7526C11.8535 66.7381 11.9618 66.7017 12.06 66.6453L13.5187 65.8096L13.4308 66.2119C13.3861 66.4335 13.4303 66.6638 13.5538 66.8531C13.6774 67.0424 13.8704 67.1756 14.0912 67.2239C14.312 67.2722 14.543 67.2319 14.7343 67.1114C14.9256 66.991 15.0619 66.8003 15.1139 66.5803L15.5352 64.6547L16.5708 64.0615L15.8277 66.9271C15.7703 67.1482 15.8032 67.3832 15.9191 67.5801C16.0349 67.7771 16.2243 67.92 16.4454 67.9773C16.6666 68.0347 16.9016 68.0018 17.0985 67.886C17.2955 67.7701 17.4384 67.5808 17.4957 67.3596L18.6618 62.8639L22.4644 60.6854V64.9971L18.7497 68.101C18.6629 68.1735 18.5912 68.2624 18.5387 68.3627C18.4863 68.463 18.4541 68.5726 18.444 68.6853C18.4339 68.798 18.4461 68.9116 18.4799 69.0196C18.5137 69.1276 18.5684 69.2279 18.641 69.3147C18.7135 69.4015 18.8025 69.4732 18.9027 69.5257C19.003 69.5782 19.1126 69.6104 19.2253 69.6205C19.338 69.6306 19.4516 69.6184 19.5596 69.5846C19.6676 69.5508 19.7679 69.496 19.8547 69.4235L22.4644 67.2424V68.4339L21.1234 69.6087C20.9515 69.7593 20.8464 69.972 20.8314 70.2C20.8163 70.428 20.8924 70.6527 21.043 70.8246C21.1936 70.9965 21.4063 71.1015 21.6343 71.1166C21.8624 71.1317 22.087 71.0555 22.2589 70.9049L22.4644 70.7249V72.2494C22.4644 72.4779 22.5552 72.6971 22.7168 72.8587C22.8783 73.0202 23.0975 73.111 23.326 73.111C23.5545 73.111 23.7736 73.0202 23.9352 72.8587C24.0968 72.6971 24.1876 72.4779 24.1876 72.2494V70.6361L24.5425 70.9248C24.6301 70.9977 24.7313 71.0525 24.8402 71.086C24.9491 71.1196 25.0635 71.1312 25.1769 71.1202C25.2904 71.1092 25.4005 71.0758 25.5009 71.022C25.6013 70.9681 25.6901 70.8949 25.762 70.8065C25.8339 70.7182 25.8876 70.6164 25.92 70.5071C25.9523 70.3979 25.9626 70.2833 25.9504 70.17C25.9381 70.0567 25.9035 69.947 25.8486 69.8472C25.7936 69.7473 25.7194 69.6594 25.6303 69.5885L24.1871 68.415V67.366L26.3884 69.3959C26.5565 69.5508 26.7791 69.6327 27.0075 69.6234C27.1205 69.6188 27.2316 69.592 27.3343 69.5445C27.437 69.497 27.5294 69.4298 27.6061 69.3466C27.6828 69.2634 27.7424 69.1659 27.7814 69.0597C27.8204 68.9535 27.8382 68.8406 27.8336 68.7275C27.829 68.6145 27.8022 68.5034 27.7547 68.4007C27.7072 68.298 27.6399 68.2057 27.5567 68.129L24.1876 65.0221V60.7573L27.8536 62.8574L28.8999 67.3393C28.9533 67.5604 29.0919 67.7514 29.2855 67.8706C29.4791 67.9899 29.712 68.0278 29.9335 67.9761C30.1549 67.9244 30.3469 67.7872 30.4676 67.5945C30.5883 67.4017 30.628 67.1691 30.5779 66.9473L29.8964 64.0274L30.9419 64.6266L31.1456 66.4898C31.1579 66.6023 31.1923 66.7113 31.2467 66.8105C31.3011 66.9097 31.3745 66.9972 31.4628 67.0681C31.551 67.1389 31.6524 67.1917 31.761 67.2234C31.8696 67.2551 31.9835 67.265 32.0959 67.2527C32.2084 67.2404 32.3174 67.2061 32.4166 67.1517C32.5159 67.0972 32.6034 67.0238 32.6742 66.9356C32.7451 66.8473 32.7978 66.746 32.8295 66.6374C32.8612 66.5287 32.8712 66.4149 32.8589 66.3024L32.7912 65.6864L34.4661 66.6453C34.5644 66.7044 34.6735 66.7432 34.787 66.7596C34.9005 66.776 35.0161 66.7695 35.127 66.7406C35.238 66.7117 35.342 66.661 35.4331 66.5914C35.5242 66.5217 35.6005 66.4346 35.6575 66.3351C35.7145 66.2356 35.7511 66.1258 35.7651 66.012C35.7791 65.8982 35.7702 65.7827 35.739 65.6724C35.7078 65.5621 35.6549 65.4591 35.5834 65.3695C35.5119 65.2798 35.4232 65.2054 35.3225 65.1505L34.2736 64.5495L34.5333 64.506C34.645 64.4874 34.7518 64.4469 34.8478 64.387C34.9438 64.3271 35.027 64.2488 35.0928 64.1567C35.1585 64.0646 35.2055 63.9605 35.231 63.8502C35.2565 63.74 35.26 63.6258 35.2413 63.5141C35.2227 63.4025 35.1823 63.2957 35.1223 63.1997C35.0624 63.1037 34.9841 63.0205 34.892 62.9547C34.7999 62.889 34.6958 62.842 34.5855 62.8165C34.4753 62.791 34.3611 62.7875 34.2495 62.8061L31.912 63.1964L30.7433 62.527L33.6442 61.6137C33.7521 61.5798 33.8523 61.5249 33.939 61.4522C34.0258 61.3795 34.0973 61.2904 34.1496 61.1901C34.2019 61.0897 34.234 60.9801 34.2439 60.8673C34.2538 60.7546 34.2414 60.641 34.2075 60.5331C34.1735 60.4252 34.1186 60.325 34.0459 60.2382C33.9732 60.1515 33.8841 60.08 33.7838 60.0277C33.6834 59.9754 33.5738 59.9433 33.4611 59.9334C33.3483 59.9235 33.2348 59.9359 33.1268 59.9698L28.7082 61.3613L24.9966 59.2349L28.7186 57.1025L33.1462 58.3815C33.3657 58.4449 33.6015 58.4185 33.8015 58.3081C34.0016 58.1977 34.1496 58.0124 34.2131 57.7929C34.2765 57.5733 34.2501 57.3376 34.1397 57.1375C34.0293 56.9374 33.8439 56.7894 33.6244 56.726L30.8001 55.9101L31.8909 55.2855L33.5783 55.6555C33.7881 55.7018 34.0076 55.668 34.1938 55.5607C34.38 55.4535 34.5194 55.2806 34.5847 55.0759C34.65 54.8712 34.6364 54.6495 34.5466 54.4542C34.4569 54.259 34.2974 54.1044 34.0995 54.0207L35.323 53.3198C35.4212 53.2635 35.5073 53.1884 35.5765 53.0988C35.6456 53.0093 35.6965 52.9069 35.7261 52.7977C35.7557 52.6885 35.7635 52.5745 35.7491 52.4622C35.7347 52.35 35.6983 52.2417 35.642 52.1435C35.5857 52.0453 35.5106 51.9592 35.421 51.89C35.3315 51.8209 35.2291 51.77 35.1199 51.7404C35.0107 51.7108 34.8967 51.703 34.7844 51.7174C34.6722 51.7318 34.5639 51.7682 34.4657 51.8245L32.7912 52.7839L32.8589 52.1679C32.8838 51.9407 32.8174 51.7129 32.6744 51.5346C32.5313 51.3564 32.3234 51.2422 32.0962 51.2173C31.869 51.1924 31.6412 51.2588 31.4629 51.4018C31.2847 51.5448 31.1705 51.7528 31.1456 51.98L30.9419 53.8432L29.8597 54.4635L30.5809 51.1357C30.6049 51.0251 30.6068 50.9108 30.5867 50.7995C30.5665 50.6881 30.5246 50.5818 30.4634 50.4867C30.4021 50.3915 30.3227 50.3093 30.2297 50.2448C30.1367 50.1804 30.0319 50.1348 29.9213 50.1108C29.8107 50.0869 29.6965 50.0849 29.5851 50.1051C29.4738 50.1252 29.3675 50.1671 29.2723 50.2284C29.1772 50.2896 29.095 50.369 29.0305 50.462C28.966 50.555 28.9205 50.6598 28.8965 50.7704L27.8467 55.6167L24.188 57.7125V53.5455L27.5895 50.0604C27.7457 49.8963 27.8311 49.6772 27.8269 49.4506C27.8228 49.224 27.7295 49.0082 27.5673 48.8499C27.4052 48.6915 27.1871 48.6035 26.9605 48.6048C26.7339 48.6061 26.5169 48.6967 26.3566 48.8568L24.188 51.0784V49.9924L26.0085 48.507C26.0962 48.4355 26.1689 48.3474 26.2226 48.2478C26.2762 48.1482 26.3097 48.039 26.3212 47.9264C26.3326 47.8139 26.3218 47.7001 26.2892 47.5918C26.2567 47.4834 26.2032 47.3825 26.1317 47.2948C26.0602 47.2071 25.9721 47.1344 25.8725 47.0807C25.7729 47.0271 25.6637 46.9936 25.5511 46.9821C25.4385 46.9707 25.3248 46.9815 25.2164 47.014C25.1081 47.0465 25.0072 47.1001 24.9195 47.1716L24.188 47.7687L24.1876 45.9714Z" fill="#349AC0"/>
<path d="M42.2793 13.6606H59.923V5.68603C59.923 5.13476 59.476 4.6875 58.9251 4.6875H43.2773C42.7263 4.6875 42.2793 5.13476 42.2793 5.68603V13.6606Z" fill="#349AC0"/>
<path d="M43.2725 13.6597C43.1133 13.6597 42.9834 13.5297 42.9834 13.3705V5.73851C42.9834 5.57924 43.1133 5.44922 43.2725 5.44922C43.4317 5.44922 43.5616 5.57924 43.5616 5.73851V13.3705C43.5616 13.5297 43.4317 13.6597 43.2725 13.6597Z" fill="#485576"/>
<path d="M44.709 13.6597C44.5499 13.6597 44.4199 13.5297 44.4199 13.3704V5.73844C44.4199 5.57917 44.5499 5.44916 44.709 5.44916C44.8682 5.44916 44.9982 5.57917 44.9982 5.73844V13.3704C44.9982 13.5297 44.8682 13.6597 44.709 13.6597Z" fill="#485576"/>
<path d="M46.1426 13.6597C45.9835 13.6597 45.8535 13.5297 45.8535 13.3704V5.73844C45.8535 5.57917 45.9835 5.44916 46.1426 5.44916C46.3018 5.44916 46.4318 5.57917 46.4318 5.73844V13.3704C46.4318 13.5297 46.3018 13.6597 46.1426 13.6597Z" fill="#485576"/>
<path d="M47.5772 13.6597C47.418 13.6597 47.2881 13.5297 47.2881 13.3704V5.73844C47.2881 5.57917 47.418 5.44916 47.5772 5.44916C47.7364 5.44916 47.8663 5.57917 47.8663 5.73844V13.3704C47.8663 13.5297 47.7364 13.6597 47.5772 13.6597Z" fill="#485576"/>
<path d="M49.0118 13.6597C48.8526 13.6597 48.7227 13.5297 48.7227 13.3704V5.73844C48.7227 5.57917 48.8526 5.44916 49.0118 5.44916C49.171 5.44916 49.3009 5.57917 49.3009 5.73844V13.3704C49.3009 13.5297 49.171 13.6597 49.0118 13.6597Z" fill="#485576"/>
<path d="M50.4473 13.6597C50.2881 13.6597 50.1582 13.5297 50.1582 13.3704V5.73844C50.1582 5.57917 50.2881 5.44916 50.4473 5.44916C50.6065 5.44916 50.7365 5.57917 50.7365 5.73844V13.3704C50.7365 13.5297 50.6065 13.6597 50.4473 13.6597Z" fill="#485576"/>
<path d="M51.8819 13.6597C51.7227 13.6597 51.5928 13.5297 51.5928 13.3704V5.73844C51.5928 5.57917 51.7227 5.44916 51.8819 5.44916C52.0411 5.44916 52.171 5.57917 52.171 5.73844V13.3704C52.171 13.5297 52.0411 13.6597 51.8819 13.6597Z" fill="#485576"/>
<path d="M53.3165 13.6597C53.1573 13.6597 53.0273 13.5297 53.0273 13.3705V5.73851C53.0273 5.57924 53.1573 5.44922 53.3165 5.44922C53.4756 5.44922 53.6056 5.57924 53.6056 5.73851V13.3705C53.6056 13.5297 53.4756 13.6597 53.3165 13.6597Z" fill="#485576"/>
<path d="M54.752 13.6597C54.5928 13.6597 54.4629 13.5297 54.4629 13.3704V5.73844C54.4629 5.57917 54.5928 5.44916 54.752 5.44916C54.9112 5.44916 55.0411 5.57917 55.0411 5.73844V13.3704C55.0411 13.5297 54.9112 13.6597 54.752 13.6597Z" fill="#485576"/>
<path d="M56.1856 13.6597C56.0264 13.6597 55.8965 13.5297 55.8965 13.3704V5.73844C55.8965 5.57917 56.0264 5.44916 56.1856 5.44916C56.3448 5.44916 56.4747 5.57917 56.4747 5.73844V13.3704C56.4747 13.5297 56.3448 13.6597 56.1856 13.6597Z" fill="#485576"/>
<path d="M57.6202 13.6597C57.461 13.6597 57.3311 13.5297 57.3311 13.3704V5.73844C57.3311 5.57917 57.461 5.44916 57.6202 5.44916C57.7794 5.44916 57.9093 5.57917 57.9093 5.73844V13.3704C57.9093 13.5297 57.7794 13.6597 57.6202 13.6597Z" fill="#485576"/>
<path d="M59.0557 13.6597C58.8965 13.6597 58.7666 13.5297 58.7666 13.3704V5.73844C58.7666 5.57917 58.8965 5.44916 59.0557 5.44916C59.2149 5.44916 59.3449 5.57917 59.3449 5.73844V13.3704C59.3449 13.5297 59.2149 13.6597 59.0557 13.6597Z" fill="#485576"/>
<path d="M102.356 11.825C102.356 13.7791 100.758 15.3777 98.8049 15.3777H76.0303C74.0773 15.3777 72.479 13.7791 72.479 11.825V10.2362C72.479 8.28204 74.0766 6.68349 76.0303 6.68349H98.8049C100.758 6.68349 102.356 8.28204 102.356 10.2362V11.825ZM110.241 2.8272C109.783 1.1578 108.267 0 106.536 0H68.2571C66.382 0 64.7383 1.25401 64.2425 3.06383L61.4195 13.3663H41.4167C40.0237 13.3663 38.7866 14.2582 38.3461 15.5805L34.7031 26.5162V112.532C34.7031 116.104 37.597 118.999 41.1665 118.999H106.666C110.236 118.999 113.13 116.104 113.13 112.532V13.3663L110.242 2.82785L110.241 2.8272Z" fill="#9AADC4"/>
<path d="M110.242 2.82812C109.784 1.15871 108.267 0.000915527 106.537 0.000915527H86.7065C86.6246 2.22939 86.5051 4.45723 86.3524 6.68375H98.8055C100.759 6.68375 102.357 8.2823 102.357 10.2364V11.8252C102.357 13.7794 100.759 15.3779 98.8055 15.3779H85.6163C85.2537 18.9872 84.8347 22.5867 84.389 26.168C81.8226 46.784 79.2809 67.7661 71.659 87.2451C66.703 99.91 59.1058 112.173 47.9541 119H106.666C110.236 119 113.13 116.104 113.13 112.532V13.3666L110.242 2.82812Z" fill="#8A9DB0"/>
<path d="M110.24 2.82812C109.782 1.15871 108.265 0.000915527 106.534 0.000915527H102.237C104.52 11.7485 105.14 23.7809 104.48 35.7281C103.152 59.7889 97.2058 83.6176 88.1546 105.902C86.3237 110.411 84.2654 114.855 81.749 119H106.664C110.234 119 113.128 116.105 113.128 112.533V13.3666L110.24 2.82812Z" fill="#7A8C9B"/>
<path d="M104.756 115.443H43.0735C39.7119 115.443 36.9863 112.715 36.9863 109.352V28.3485H110.842V109.352C110.842 112.715 108.117 115.443 104.756 115.443Z" fill="#349AC0"/>
<path d="M107.987 85.245C98.4691 88.2321 90.4535 81.1495 82.5517 77.2159C76.775 74.3399 69.9329 74.518 63.8047 76.0646C58.3055 77.4525 53.6711 80.9727 48.3401 82.8482C44.601 84.1633 40.5728 84.3947 36.9863 82.9125V109.353C36.9863 112.716 39.7119 115.443 43.0735 115.443H104.756C108.117 115.443 110.843 112.716 110.843 109.353V83.9461C109.966 84.4734 109.022 84.92 107.987 85.245Z" fill="#52B4DE"/>
<path d="M84.4005 1.29351C84.4005 1.29351 68.1693 0.287182 67.1642 1.29351C66.1584 2.29918 65.8712 3.30551 67.1642 3.88018C68.4571 4.45485 83.2512 4.68693 84.4005 4.31119C85.5499 3.93609 86.8422 2.58652 84.4005 1.29286V1.29351Z" fill="#C9D5E0"/>
<path d="M61.9915 15.3784C61.9915 15.3784 44.11 15.2347 42.2778 15.3784C40.4456 15.522 39.7277 17.8935 41.7385 19.1865C43.7494 20.4802 62.5659 19.977 62.5659 19.977C62.5659 19.977 65.0484 20.0733 65.0471 17.6498C65.0471 16.4549 63.7867 15.2601 61.9909 15.3777L61.9915 15.3784Z" fill="#C9D5E0"/>
<path d="M98.4782 16.959H76.0441C76.0441 16.959 74.5621 17.1026 74.9214 18.3241C75.28 19.5456 76.7166 19.402 76.7166 19.402L98.4782 19.4072C98.4782 19.4072 100.633 19.335 100.489 18.1831C100.345 17.0305 99.0525 16.959 98.4782 16.959Z" fill="#C9D5E0"/>
<path d="M100.934 33.145C100.934 33.145 47.9793 33.4323 45.0107 35.4443C42.0422 37.4563 39.9358 57.2897 45.0107 61.17C50.0857 65.0503 84.8462 52.1157 93.4647 48.9543C102.083 45.7923 105.243 44.3556 105.817 39.469C106.392 34.5823 103.229 33.1287 100.934 33.1456V33.145Z" fill="#52A4C7"/>
<path d="M91.4499 48.4067C90.7507 48.4067 90.0694 48.5591 89.4061 48.8639C88.7427 49.1508 88.1511 49.6169 87.6312 50.2623C87.1292 50.9078 86.7168 51.7414 86.3941 52.7634C86.0893 53.7853 85.9369 55.0223 85.9369 56.4745C85.9369 57.9267 86.0893 59.1638 86.3941 60.1857C86.7168 61.2077 87.1292 62.0413 87.6312 62.6867C88.1511 63.3322 88.7427 63.8073 89.4061 64.1121C90.0694 64.3989 90.7507 64.5423 91.4499 64.5423C92.1491 64.5423 92.8304 64.3989 93.4938 64.1121C94.1571 63.8073 94.7398 63.3322 95.2418 62.6867C95.7617 62.0413 96.1741 61.2077 96.4788 60.1857C96.8015 59.1638 96.9629 57.9267 96.9629 56.4745C96.9629 55.0223 96.8015 53.7853 96.4788 52.7634C96.1741 51.7414 95.7617 50.9078 95.2418 50.2623C94.7398 49.6169 94.1571 49.1508 93.4938 48.8639C92.8304 48.5591 92.1491 48.4067 91.4499 48.4067ZM91.4499 46.5243C92.8663 46.5243 94.1661 46.7304 95.3493 47.1428C96.5326 47.5372 97.5545 48.1468 98.4151 48.9715C99.2757 49.7962 99.939 50.8361 100.405 52.091C100.889 53.3281 101.131 54.7893 101.131 56.4745C101.131 58.1598 100.889 59.6299 100.405 60.8849C99.939 62.122 99.2757 63.1529 98.4151 63.9776C97.5545 64.8023 96.5326 65.4208 95.3493 65.8332C94.1661 66.2276 92.8663 66.4248 91.4499 66.4248C90.0336 66.4248 88.7338 66.2276 87.5505 65.8332C86.3672 65.4208 85.3453 64.8023 84.4847 63.9776C83.6241 63.1529 82.9518 62.122 82.4678 60.8849C82.0016 59.6299 81.7686 58.1598 81.7686 56.4745C81.7686 54.7893 82.0016 53.3281 82.4678 52.091C82.9518 50.8361 83.6241 49.7962 84.4847 48.9715C85.3453 48.1468 86.3672 47.5372 87.5505 47.1428C88.7338 46.7304 90.0336 46.5243 91.4499 46.5243Z" fill="white"/>
<path d="M72.0753 56.3401C72.7566 55.874 73.3482 55.3092 73.8502 54.6459C74.3701 53.9646 74.6301 53.1847 74.6301 52.3062C74.6301 51.1588 74.2626 50.2444 73.5275 49.5632C72.7924 48.8819 71.6809 48.5412 70.1928 48.5412C68.8482 48.5412 67.6201 48.7295 66.5085 49.106C65.4149 49.4646 64.3571 50.0831 63.3352 50.9616L62.125 49.348C63.1469 48.4695 64.3481 47.7793 65.7286 47.2773C67.127 46.7753 68.7047 46.5243 70.4617 46.5243C71.8781 46.5243 73.1062 46.6588 74.146 46.9277C75.1859 47.1966 76.0464 47.5821 76.7277 48.0841C77.4269 48.5681 77.9468 49.1508 78.2875 49.8321C78.6281 50.4954 78.7984 51.2305 78.7984 52.0373C78.7984 52.8441 78.6819 53.5702 78.4488 54.2156C78.2158 54.8431 77.902 55.4168 77.5076 55.9367C77.1311 56.4566 76.6919 56.9317 76.1899 57.362C75.6879 57.7923 75.1679 58.2136 74.6301 58.626L67.7725 63.8701H79.0674V65.887H62.3939V63.7356L72.0753 56.3401Z" fill="white"/>
<path d="M61.5952 58.3575H49.2246V55.9371H61.5952V58.3575Z" fill="white"/>
<path d="M77.7227 106.877H78.2067C78.5294 106.877 78.8145 106.742 79.0619 106.474C79.3093 106.205 79.4545 105.747 79.4976 105.102L80.0623 96.5501H89.663V107.845H87.3233V97.7603H82.2406L81.7566 105.102C81.6813 106.156 81.3854 106.92 80.8691 107.393C80.3635 107.856 79.6643 108.087 78.7715 108.087C78.4918 108.087 78.2444 108.06 78.0292 108.006C77.9109 107.985 77.8087 107.958 77.7227 107.926V106.877Z" fill="white"/>
<path d="M70.5076 92.7842V107.844H67.388V95.3659H67.1729L64.5912 96.7644L63.623 95.3659L67.2804 92.7842H70.5076Z" fill="white"/>
</svg>
