<svg width="19" height="24" viewBox="0 0 19 24" fill="none" xmlns="http://www.w3.org/2000/svg">
<path d="M5.29059 10.8522C5.29059 11.0736 5.20273 11.2859 5.04634 11.4425C4.88995 11.599 4.67784 11.687 4.45667 11.687H1.12102C0.899855 11.687 0.687746 11.599 0.531357 11.4425C0.374968 11.2859 0.287109 11.0736 0.287109 10.8522C0.287109 10.6308 0.374968 10.4185 0.531357 10.2619C0.687746 10.1054 0.899855 10.0174 1.12102 10.0174H4.45667C4.67784 10.0174 4.88995 10.1054 5.04634 10.2619C5.20273 10.4185 5.29059 10.6308 5.29059 10.8522ZM4.45667 6.6783H1.12102C0.899855 6.6783 0.687746 6.76625 0.531357 6.9228C0.374968 7.07935 0.287109 7.29168 0.287109 7.51308C0.287109 7.73448 0.374968 7.94681 0.531357 8.10336C0.687746 8.25991 0.899855 8.34786 1.12102 8.34786H4.45667C4.67784 8.34786 4.88995 8.25991 5.04634 8.10336C5.20273 7.94681 5.29059 7.73448 5.29059 7.51308C5.29059 7.29168 5.20273 7.07935 5.04634 6.9228C4.88995 6.76625 4.67784 6.6783 4.45667 6.6783ZM1.12102 5.00874H4.45667C4.67784 5.00874 4.88995 4.92079 5.04634 4.76423C5.20273 4.60768 5.29059 4.39535 5.29059 4.17395C5.29059 3.95256 5.20273 3.74023 5.04634 3.58367C4.88995 3.42712 4.67784 3.33917 4.45667 3.33917H1.12102C0.899855 3.33917 0.687746 3.42712 0.531357 3.58367C0.374968 3.74023 0.287109 3.95256 0.287109 4.17395C0.287109 4.39535 0.374968 4.60768 0.531357 4.76423C0.687746 4.92079 0.899855 5.00874 1.12102 5.00874Z" fill="#FE3000"/>
<path d="M11.6079 14.0327L11.597 2.50434C11.597 1.12362 10.4746 0 9.09527 0C7.71598 0 6.59353 1.12362 6.59353 2.50434V14.0018C5.01577 14.8341 4.0918 16.4252 4.0918 18.3652C4.0918 21.1275 6.33586 23.3739 9.09527 23.3739C11.8547 23.3739 14.0987 21.1275 14.0987 18.3652C14.0984 17.488 13.8683 16.6263 13.4312 15.866C12.9941 15.1058 12.3654 14.4736 11.6079 14.0327ZM9.09527 21.7043C7.25566 21.7043 5.75962 20.2067 5.75962 18.3652C5.75962 17.5112 6.01563 15.9794 7.72766 15.3182C7.88491 15.2575 8.02008 15.1505 8.11536 15.0113C8.21063 14.8721 8.26154 14.7073 8.26136 14.5386V2.50434C8.26136 2.28295 8.34922 2.07062 8.50561 1.91406C8.662 1.75751 8.87411 1.66956 9.09527 1.66956C9.31644 1.66956 9.52855 1.75751 9.68494 1.91406C9.84133 2.07062 9.92919 2.28295 9.92919 2.50434V13.369L9.9467 14.5594C9.94906 14.7191 9.99714 14.8748 10.0852 15.008C10.1733 15.1411 10.2977 15.2462 10.4437 15.3107C11.0347 15.5728 11.537 16.0008 11.8897 16.543C12.2425 17.0852 12.4305 17.7182 12.4309 18.3652C12.4309 20.2067 10.9349 21.7043 9.09527 21.7043ZM15.7666 1.66956C14.3873 1.66956 13.2648 2.79318 13.2648 4.17391C13.2648 5.55464 14.3873 6.67825 15.7666 6.67825C17.1459 6.67825 18.2683 5.55464 18.2683 4.17391C18.2683 2.79318 17.1459 1.66956 15.7666 1.66956ZM15.7666 5.00869C15.5519 4.99907 15.3491 4.90692 15.2006 4.75142C15.052 4.59592 14.9691 4.38906 14.9691 4.17391C14.9691 3.95875 15.052 3.75189 15.2006 3.59639C15.3491 3.44089 15.5519 3.34874 15.7666 3.33913C15.9813 3.34874 16.184 3.44089 16.3326 3.59639C16.4811 3.75189 16.564 3.95875 16.564 4.17391C16.564 4.38906 16.4811 4.59592 16.3326 4.75142C16.184 4.90692 15.9813 4.99907 15.7666 5.00869Z" fill="#349AC0"/>
</svg>
