<svg width="197" height="170" viewBox="0 0 197 170" fill="none" xmlns="http://www.w3.org/2000/svg">
<path d="M51.6692 2V62.2M45.6554 2V62.2M1.55469 20.06L13.4609 31.9786C14.0246 32.5431 14.3413 33.3085 14.3413 34.1067C14.3413 34.9048 14.0246 35.6703 13.4609 36.2347L2.55698 47.15M24.6073 3.00333C24.6073 3.00333 25.7099 7.99391 27.8467 10.133C28.0869 10.4141 28.385 10.6398 28.7206 10.7945C29.0561 10.9492 29.4212 11.0294 29.7907 11.0294C30.1601 11.0294 30.5252 10.9492 30.8608 10.7945C31.1964 10.6398 31.4945 10.4141 31.7346 10.133C32.014 9.89208 32.2382 9.59365 32.3918 9.25808C32.5455 8.92251 32.6251 8.55771 32.6251 8.18856C32.6251 7.81941 32.5455 7.45461 32.3918 7.11904C32.2382 6.78347 32.014 6.48504 31.7346 6.2441C29.5967 4.107 24.6073 3.00333 24.6073 3.00333ZM14.5844 14.04C14.5844 14.04 15.687 19.0306 17.8238 21.1697C18.064 21.4508 18.3621 21.6764 18.6977 21.8312C19.0332 21.9859 19.3983 22.066 19.7678 22.066C20.1373 22.066 20.5023 21.9859 20.8379 21.8312C21.1735 21.6764 21.4716 21.4508 21.7117 21.1697C21.9911 20.9287 22.2153 20.6303 22.369 20.2947C22.5226 19.9592 22.6022 19.5944 22.6022 19.2252C22.6022 18.8561 22.5226 18.4913 22.369 18.1557C22.2153 17.8201 21.9911 17.5217 21.7117 17.2808C19.5738 15.1437 14.5844 14.04 14.5844 14.04ZM30.6211 19.0567C30.6211 19.0567 31.7236 24.0472 33.8605 26.1864C34.1006 26.4674 34.3987 26.6931 34.7343 26.8478C35.0699 27.0026 35.435 27.0827 35.8044 27.0827C36.1739 27.0827 36.539 27.0026 36.8745 26.8478C37.2101 26.6931 37.5082 26.4674 37.7484 26.1864C38.0277 25.9454 38.2519 25.647 38.4056 25.3114C38.5593 24.9758 38.6388 24.611 38.6388 24.2419C38.6388 23.8727 38.5593 23.5079 38.4056 23.1724C38.2519 22.8368 38.0277 22.5384 37.7484 22.2974C35.6105 20.1603 30.6211 19.0567 30.6211 19.0567ZM37.6371 39.1233C37.6371 39.1233 32.6507 40.227 30.5148 42.3661C30.0093 42.8839 29.7281 43.5803 29.7321 44.3043C29.7361 45.0282 30.0251 45.7214 30.5363 46.2336C31.0475 46.7457 31.7398 47.0355 32.463 47.0401C33.1862 47.0446 33.8821 46.7637 34.3997 46.258C36.5346 44.1179 37.6371 39.1233 37.6371 39.1233ZM37.6371 54.1733C37.6371 54.1733 32.6507 55.277 30.5148 57.4161C30.0093 57.9339 29.7281 58.6303 29.7321 59.3543C29.7361 60.0782 30.0251 60.7714 30.5363 61.2836C31.0475 61.7957 31.7398 62.0855 32.463 62.0901C33.1862 62.0946 33.8821 61.8137 34.3997 61.308C36.5346 59.1679 37.6371 54.1733 37.6371 54.1733ZM23.6051 50.16C23.6051 50.16 18.6187 51.2637 16.4828 53.4028C16.202 53.6431 15.9766 53.9416 15.822 54.2775C15.6674 54.6134 15.5874 54.9789 15.5874 55.3487C15.5874 55.7186 15.6674 56.0841 15.822 56.42C15.9766 56.7559 16.202 57.0543 16.4828 57.2947C16.7235 57.5744 17.0216 57.7988 17.3568 57.9526C17.692 58.1064 18.0565 58.1861 18.4252 58.1861C18.794 58.1861 19.1584 58.1064 19.4936 57.9526C19.8288 57.7988 20.127 57.5744 20.3677 57.2947C22.5025 55.1546 23.6051 50.16 23.6051 50.16Z" stroke="#349AC0" stroke-width="3" stroke-linecap="round" stroke-linejoin="round"/>
<path d="M2.55664 41.13V47.15H8.57038" stroke="#349AC0" stroke-width="3" stroke-linecap="round" stroke-linejoin="round"/>
<path d="M159.92 162.55C150.56 162.55 141.199 158.98 134.077 151.85L131.04 148.81L135.985 143.86L139.022 146.9C144.606 152.49 152.028 155.57 159.92 155.57C167.812 155.57 175.244 152.49 180.828 146.9C186.412 141.31 189.489 133.88 189.489 125.97C189.489 118.06 186.412 110.63 180.828 105.04L167.013 91.21C166.393 90.59 165.524 90.23 164.645 90.23H153.946V83.23H164.645C167.412 83.23 170.009 84.31 171.957 86.26L185.773 100.09C200.028 114.36 200.028 137.57 185.773 151.84C178.65 158.97 169.29 162.54 159.93 162.54L159.92 162.55Z" fill="#262626"/>
<path d="M154.646 79.7H163.077C164.495 79.7 165.644 80.85 165.644 82.27V91.59C165.644 93.01 164.495 94.16 163.077 94.16H154.646V79.71V79.7Z" fill="#349AC0"/>
<path d="M159.041 19.54V138.06C159.041 147.72 151.219 155.56 141.569 155.56H69.3243C59.6744 155.56 51.8525 147.73 51.8525 138.06V137.12V19.53C51.8525 9.85 59.6944 2 69.3543 2H141.529C151.199 2 159.041 9.85 159.041 19.53V19.54Z" fill="#349AC0"/>
<path style="mix-blend-mode:screen" opacity="0.25" d="M159.041 19.53C159.041 9.85 151.199 2 141.529 2H69.3643C59.6944 2 51.8525 9.85 51.8525 19.53V59.12C63.4305 70.31 79.0742 79.39 97.3252 84.51C119.472 90.71 141.359 89.91 159.041 83.62V19.53Z" fill="url(#paint0_linear_197_6)"/>
<path style="mix-blend-mode:screen" opacity="0.5" d="M141.529 2H69.3543C59.6844 2 51.8525 9.85 51.8525 19.53V22.27C51.8525 12.59 59.6844 4.75 69.3543 4.75H141.529C151.199 4.75 159.041 12.59 159.041 22.27V19.53C159.041 9.85 151.199 2 141.529 2Z" fill="url(#paint1_linear_197_6)"/>
<path d="M105.447 26.38C92.5101 26.38 80.7024 30.82 71.7018 38.14C70.6728 38.97 70.6129 40.52 71.5719 41.43L79.7933 49.19C80.5725 49.93 81.7813 49.99 82.6204 49.32C88.724 44.41 96.7057 41.42 105.447 41.42C114.188 41.42 122.169 44.4 128.273 49.32C129.112 49.99 130.321 49.93 131.1 49.19L139.321 41.43C140.28 40.52 140.22 38.98 139.191 38.14C130.201 30.82 118.393 26.38 105.447 26.38Z" fill="white"/>
<path d="M132.669 16.6801L127.824 31.1301L122.909 45.7701H122.899C119.912 44.1501 116.635 42.9401 113.159 42.2301H113.149L123.049 29.2601L132.659 16.6801H132.669Z" fill="#B2DAE9"/>
<path style="mix-blend-mode:screen" opacity="0.25" d="M132.668 16.6801L123.058 29.2601L113.159 42.2201H113.169C115.077 42.6201 116.905 43.1801 118.683 43.8501L132.678 16.6801H132.668Z" fill="url(#paint2_linear_197_6)"/>
<path style="mix-blend-mode:screen" opacity="0.35" d="M122.779 51.47C121.5 50.72 120.112 50.03 118.703 49.47C117.304 48.88 115.866 48.38 114.398 47.99C111.481 47.19 108.464 46.75 105.447 46.76C102.43 46.75 99.4231 47.19 96.4962 47.99C95.0277 48.37 93.5892 48.88 92.1907 49.47C90.7821 50.03 89.3936 50.72 88.1149 51.47L88.0749 51.49C87.8152 51.64 87.4756 51.56 87.3257 51.3C87.1859 51.06 87.2458 50.75 87.4656 50.58C90.0529 48.63 92.9399 47.27 95.9867 46.28C99.0235 45.29 102.24 44.83 105.447 44.77C108.654 44.83 111.86 45.29 114.907 46.28C117.954 47.27 120.841 48.62 123.428 50.58C123.668 50.76 123.718 51.11 123.538 51.35C123.368 51.57 123.059 51.63 122.819 51.49L122.779 51.47Z" fill="url(#paint3_linear_197_6)"/>
<path d="M133.859 83.4021C137.433 68.0514 127.899 52.7067 112.564 49.1288C97.2295 45.5509 81.9007 55.0947 78.3266 70.4455C74.7524 85.7962 84.2863 101.141 99.6211 104.719C114.956 108.297 130.285 98.7529 133.859 83.4021Z" fill="white"/>
<path d="M180.818 146.9C169.29 158.44 150.539 158.44 139.011 146.9L135.975 143.86L131.03 148.81L134.067 151.85C141.189 158.98 150.549 162.55 159.91 162.55C169.27 162.55 178.63 158.98 185.753 151.85L180.808 146.9H180.818Z" fill="#212121"/>
<path d="M140.12 143.154L144.026 147.626C145.078 148.83 144.955 150.664 143.752 151.718L139.391 155.536C138.188 156.589 136.355 156.466 135.303 155.262L131.397 150.791L140.112 143.161L140.12 143.154Z" fill="#B2DAE9"/>
<path d="M93.6786 118.19C93.6786 118.19 91.6108 131.32 91.6707 131.76C91.7306 132.2 113.158 156.28 113.158 156.28L114.847 155.44L95.8564 132L98.7034 121.71L93.6786 118.19Z" fill="#252525"/>
<path d="M141.479 143.55L92.2405 90.22C91.761 89.7 91.1317 89.36 90.4324 89.25L59.0551 84.16C57.247 83.87 55.5687 85.18 55.4189 87.02L54.6397 96.8C54.5198 98.29 55.4588 99.65 56.8973 100.07L70.0137 103.9C71.3223 104.28 72.2413 105.47 72.2713 106.84L72.7408 124.41C72.7608 125.18 73.0605 125.91 73.5899 126.47L112.999 168.73C114.158 169.97 116.086 170.07 117.364 168.95L141.239 148.05C142.568 146.88 142.678 144.85 141.479 143.55ZM127.933 152.91L116.285 163.43C115.736 163.93 114.887 163.88 114.397 163.33L81.9812 127.5C81.5417 127.02 81.5217 126.29 81.9213 125.77L88.6842 117.15C89.1637 116.54 90.0628 116.46 90.6422 116.99L127.943 150.92C128.533 151.45 128.523 152.38 127.943 152.91H127.933Z" fill="url(#paint4_linear_197_6)"/>
<path d="M62.3015 92.49C62.5612 90.24 60.9529 88.21 58.7053 87.95L33.7812 85.06C33.1319 84.98 32.4726 85.06 31.8532 85.3L18.5371 90.37L22.2333 97.73L33.8212 93.32L57.7463 96.1C59.9939 96.36 62.0218 94.75 62.2815 92.5L62.3015 92.49Z" fill="#969696"/>
<path d="M79.1242 121.02C82.8003 114.64 99.0734 108.98 109.073 108.45L92.2405 90.22C91.761 89.7 91.1317 89.36 90.4324 89.25L59.0551 84.16C57.247 83.87 55.5687 85.18 55.4189 87.02L54.6397 96.8C54.5198 98.29 55.4588 99.65 56.8973 100.07L70.0137 103.9C71.3223 104.28 72.2413 105.47 72.2713 106.84L72.7408 124.41C72.7608 125.18 73.0605 125.91 73.5899 126.47L77.1862 130.33C76.8366 128.06 76.9764 124.76 79.1242 121.03V121.02Z" fill="#B2DAE9"/>
<path d="M79.7635 100.82C79.0243 100.4 60.3737 98.12 58.4357 96.66C56.8174 95.44 56.3679 87.67 56.268 85.11C55.7985 85.61 55.4788 86.27 55.4189 87.01L54.6397 96.79C54.5198 98.28 55.4588 99.64 56.8973 100.06L70.0137 103.89C71.3223 104.27 72.2413 105.46 72.2713 106.83L72.7408 124.4C72.7608 125.17 73.0605 125.9 73.5899 126.46L77.1862 130.32C75.9874 126.86 77.5758 122.72 79.334 119.68C80.0732 118.402 87.1283 105.014 79.7635 100.83V100.82Z" fill="#494949"/>
<path fill-rule="evenodd" clip-rule="evenodd" d="M106.446 60C97.0731 60 89.4634 67.6176 89.4634 77C89.4594 81.475 91.224 85.7698 94.3721 88.9469C94.3923 88.9729 94.4133 88.9971 94.4368 89.0214C94.461 89.0449 94.4853 89.0659 94.5112 89.0862C97.685 92.2375 101.975 94.004 106.446 94C115.818 94 123.428 86.3824 123.428 77C123.432 72.525 121.667 68.2302 118.519 65.0531C118.499 65.0271 118.477 65.0022 118.455 64.9786C118.431 64.9557 118.406 64.9341 118.38 64.9138C115.206 61.7625 110.916 59.996 106.446 60ZM106.446 61.6191C110.395 61.6191 113.997 63.1151 116.72 65.5703L111.535 70.761C111.387 70.9137 111.306 71.1182 111.308 71.3304C111.31 71.5427 111.395 71.7457 111.545 71.8958C111.695 72.0459 111.897 72.131 112.109 72.1329C112.321 72.1347 112.526 72.0531 112.678 71.9057L117.863 66.715C120.408 69.5346 121.815 73.2002 121.811 77C121.811 85.4887 114.926 92.3809 106.446 92.3809C102.65 92.3852 98.988 90.9769 96.1714 88.4297L98.9306 85.6676C99.0779 85.5149 99.1594 85.3104 99.1576 85.0981C99.1557 84.8859 99.0707 84.6829 98.9208 84.5328C98.7708 84.3827 98.568 84.2975 98.356 84.2957C98.1439 84.2938 97.9397 84.3754 97.7871 84.5229L95.0279 87.285C92.4833 84.4655 91.0765 80.7998 91.0807 77C91.0807 68.5113 97.9659 61.6191 106.446 61.6191ZM106.446 67.2857C106.168 67.2857 105.908 67.429 105.76 67.6654C105.76 67.6654 102.95 72.1566 101.262 76.1986C100.5 78.0232 99.9762 79.7653 99.9762 81.0063C99.9762 84.1222 102.845 86.7143 106.446 86.7143C110.047 86.7143 112.915 84.1222 112.915 81.0063C112.915 79.7653 112.391 78.0232 111.629 76.1986C109.942 72.1566 107.131 67.6654 107.131 67.6654C107.059 67.5492 106.957 67.4534 106.838 67.3869C106.718 67.3205 106.583 67.2857 106.446 67.2857ZM106.446 69.6592C107.364 71.2127 109.008 74.1197 110.137 76.8211C110.801 78.4134 111.298 79.924 111.298 81.0063C111.298 83.2981 109.094 85.0952 106.446 85.0952C103.797 85.0952 101.594 83.2981 101.594 81.0063C101.594 79.924 102.09 78.4134 102.755 76.8211C103.883 74.1197 105.527 71.2127 106.446 69.6592Z" fill="#349AC0"/>
<defs>
<linearGradient id="paint0_linear_197_6" x1="100.072" y1="77.21" x2="108.03" y2="38.0332" gradientUnits="userSpaceOnUse">
<stop stop-color="white"/>
<stop offset="0.09" stop-color="white" stop-opacity="0.95"/>
<stop offset="0.27" stop-color="white" stop-opacity="0.8"/>
<stop offset="0.5" stop-color="white" stop-opacity="0.57"/>
<stop offset="0.79" stop-color="white" stop-opacity="0.25"/>
<stop offset="1" stop-color="white" stop-opacity="0"/>
</linearGradient>
<linearGradient id="paint1_linear_197_6" x1="105.457" y1="20.51" x2="102.904" y2="93.7498" gradientUnits="userSpaceOnUse">
<stop stop-color="white"/>
<stop offset="0.09" stop-color="white" stop-opacity="0.95"/>
<stop offset="0.27" stop-color="white" stop-opacity="0.8"/>
<stop offset="0.5" stop-color="white" stop-opacity="0.57"/>
<stop offset="0.79" stop-color="white" stop-opacity="0.25"/>
<stop offset="1" stop-color="white" stop-opacity="0"/>
</linearGradient>
<linearGradient id="paint2_linear_197_6" x1="123.448" y1="26.6301" x2="119.294" y2="48.6585" gradientUnits="userSpaceOnUse">
<stop stop-color="white"/>
<stop offset="0.09" stop-color="white" stop-opacity="0.95"/>
<stop offset="0.27" stop-color="white" stop-opacity="0.8"/>
<stop offset="0.5" stop-color="white" stop-opacity="0.57"/>
<stop offset="0.79" stop-color="white" stop-opacity="0.25"/>
<stop offset="1" stop-color="white" stop-opacity="0"/>
</linearGradient>
<linearGradient id="paint3_linear_197_6" x1="106.376" y1="67.77" x2="108.508" y2="106.09" gradientUnits="userSpaceOnUse">
<stop stop-color="white"/>
<stop offset="0.09" stop-color="white" stop-opacity="0.95"/>
<stop offset="0.27" stop-color="white" stop-opacity="0.8"/>
<stop offset="0.5" stop-color="white" stop-opacity="0.57"/>
<stop offset="0.79" stop-color="white" stop-opacity="0.25"/>
<stop offset="1" stop-color="white" stop-opacity="0"/>
</linearGradient>
<linearGradient id="paint4_linear_197_6" x1="109.261" y1="105.748" x2="76.2228" y2="139.774" gradientUnits="userSpaceOnUse">
<stop stop-color="#E4E8F4"/>
<stop offset="0.4" stop-color="#E3DBF3"/>
<stop offset="1" stop-color="#E3CEF3"/>
</linearGradient>
</defs>
</svg>
