<svg width="113" height="119" viewBox="0 0 113 119" fill="none" xmlns="http://www.w3.org/2000/svg">
<path d="M1.72317 58.8953C1.72317 46.9996 11.3668 37.356 23.2625 37.356C30.3085 37.356 36.5652 40.7385 40.4958 45.9717H35.7554C35.5269 45.9717 35.3077 46.0625 35.1461 46.2241C34.9846 46.3856 34.8938 46.6048 34.8938 46.8333C34.8938 47.0618 34.9846 47.2809 35.1461 47.4425C35.3077 47.6041 35.5269 47.6949 35.7554 47.6949H42.1418C42.3703 47.6949 42.5894 47.6041 42.751 47.4425C42.9126 47.2809 43.0034 47.0618 43.0034 46.8333V40.5869C43.0034 40.3584 42.9126 40.1392 42.751 39.9776C42.5894 39.8161 42.3703 39.7253 42.1418 39.7253C41.9133 39.7253 41.6941 39.8161 41.5326 39.9776C41.371 40.1392 41.2802 40.3584 41.2802 40.5869V44.1805C37.0154 38.9645 30.5282 35.6328 23.2625 35.6328C10.4152 35.6328 1.71672e-05 46.048 1.71672e-05 58.8953C-0.00371923 61.9665 0.602493 65.0078 1.78348 67.8428C1.82568 67.9491 1.88863 68.046 1.96868 68.1278C2.04872 68.2095 2.14424 68.2745 2.24968 68.3189C2.35511 68.3634 2.46834 68.3864 2.58275 68.3866C2.69717 68.3868 2.81048 68.3642 2.91607 68.3201C3.02166 68.2761 3.11742 68.2114 3.19776 68.13C3.2781 68.0485 3.34141 67.9519 3.38399 67.8457C3.42657 67.7395 3.44758 67.6259 3.44578 67.5115C3.44398 67.3971 3.41941 67.2842 3.37351 67.1794C2.28032 64.5545 1.71935 61.7387 1.72317 58.8953ZM44.8338 50.1719C44.7919 50.0663 44.7295 49.97 44.6502 49.8885C44.571 49.8071 44.4764 49.7422 44.3719 49.6975C44.2674 49.6528 44.1551 49.6292 44.0415 49.628C43.9279 49.6269 43.8152 49.6482 43.7098 49.6909C43.6045 49.7335 43.5086 49.7965 43.4277 49.8763C43.3468 49.9561 43.2825 50.0512 43.2385 50.1559C43.1945 50.2607 43.1717 50.3732 43.1713 50.4868C43.171 50.6004 43.1931 50.713 43.2364 50.8181C44.274 53.3844 44.8056 56.1272 44.8019 58.8953C44.8019 70.7911 35.1583 80.4347 23.2625 80.4347C16.1201 80.4347 9.78923 76.9591 5.86949 71.6035H10.9851C11.2136 71.6035 11.4327 71.5128 11.5943 71.3512C11.7559 71.1896 11.8467 70.9705 11.8467 70.742C11.8467 70.5135 11.7559 70.2943 11.5943 70.1327C11.4327 69.9712 11.2136 69.8804 10.9851 69.8804H4.24672C4.01822 69.8804 3.79907 69.9712 3.63749 70.1327C3.47592 70.2943 3.38514 70.5135 3.38514 70.742V76.9884C3.38514 77.2169 3.47592 77.436 3.63749 77.5976C3.79907 77.7592 4.01822 77.85 4.24672 77.85C4.47522 77.85 4.69437 77.7592 4.85594 77.5976C5.01752 77.436 5.10829 77.2169 5.10829 76.9884V73.4421C9.37093 78.7546 15.9189 82.1578 23.2625 82.1578C36.1099 82.1578 46.5251 71.7427 46.5251 58.8953C46.5285 55.9057 45.9543 52.9436 44.8338 50.1719Z" fill="#349AC0"/>
<path d="M24.1876 45.9714C24.1876 45.7429 24.0968 45.5237 23.9352 45.3622C23.7736 45.2006 23.5545 45.1098 23.326 45.1098C23.0975 45.1098 22.8783 45.2006 22.7168 45.3622C22.5552 45.5237 22.4644 45.7429 22.4644 45.9714V47.8319L21.5882 47.1569C21.4987 47.0858 21.396 47.0332 21.2861 47.0022C21.1761 46.9711 21.0611 46.9623 20.9476 46.9761C20.8342 46.99 20.7247 47.0262 20.6254 47.0828C20.5261 47.1394 20.4391 47.2152 20.3694 47.3057C20.2997 47.3963 20.2487 47.4998 20.2193 47.6102C20.19 47.7206 20.1829 47.8358 20.1985 47.949C20.2142 48.0622 20.2521 48.1712 20.3102 48.2695C20.3684 48.3679 20.4455 48.4538 20.5371 48.5221L22.4644 50.007V51.2192L19.8883 48.8271C19.7209 48.6716 19.4985 48.589 19.2702 48.5974C19.0418 48.6058 18.8262 48.7046 18.6707 48.8721C18.5152 49.0395 18.4326 49.2619 18.441 49.4902C18.4495 49.7186 18.5483 49.9342 18.7157 50.0897L22.4644 53.5705V57.7844L18.6881 55.6214L17.7585 50.9108C17.7143 50.6866 17.5828 50.4891 17.393 50.3618C17.2032 50.2345 16.9706 50.1879 16.7464 50.2321C16.5221 50.2763 16.3247 50.4078 16.1974 50.5976C16.0701 50.7874 16.0234 51.02 16.0676 51.2442L16.7078 54.4867L15.549 53.8229L15.1191 51.541C15.0726 51.3206 14.9416 51.1271 14.7543 51.0021C14.5669 50.877 14.338 50.8304 14.1166 50.8721C13.8952 50.9137 13.6989 51.0405 13.5699 51.2251C13.4408 51.4097 13.3892 51.6376 13.4261 51.8598L13.5833 52.6968L12.06 51.8245C11.8622 51.7165 11.6299 51.6904 11.413 51.7518C11.1961 51.8131 11.0119 51.957 10.8998 52.1525C10.7878 52.3481 10.7568 52.5798 10.8136 52.7979C10.8704 53.016 11.0104 53.2032 11.2036 53.3193L12.9104 54.2972L12.1458 54.6569C12.0412 54.7036 11.9471 54.7707 11.8687 54.8543C11.7904 54.9378 11.7296 55.0361 11.6897 55.1434C11.6498 55.2508 11.6317 55.365 11.6365 55.4794C11.6413 55.5938 11.6688 55.7061 11.7175 55.8097C11.7661 55.9134 11.835 56.0063 11.92 56.083C12.005 56.1597 12.1044 56.2187 12.2125 56.2566C12.3205 56.2945 12.435 56.3104 12.5493 56.3035C12.6636 56.2966 12.7754 56.267 12.8781 56.2164L14.7361 55.3432L15.7088 55.9006L12.7816 56.7243C12.5642 56.7884 12.3808 56.9356 12.2712 57.134C12.1616 57.3324 12.1346 57.566 12.196 57.7841C12.2574 58.0023 12.4024 58.1875 12.5994 58.2996C12.7964 58.4116 13.0297 58.4415 13.2486 58.3828L17.8046 57.1008L21.5296 59.2349L17.8149 61.363L13.2675 59.9681C13.1591 59.9338 13.0449 59.9214 12.9316 59.9315C12.8183 59.9416 12.7081 59.974 12.6074 60.0269C12.5067 60.0798 12.4175 60.1521 12.3449 60.2396C12.2723 60.3272 12.2177 60.4283 12.1844 60.537C12.151 60.6457 12.1395 60.76 12.1505 60.8732C12.1616 60.9864 12.1949 61.0963 12.2486 61.1966C12.3024 61.2968 12.3754 61.3855 12.4635 61.4574C12.5517 61.5292 12.6532 61.583 12.7622 61.6154L15.7657 62.5369L14.6702 63.1641L12.7631 62.5825C12.6548 62.5495 12.5411 62.5382 12.4285 62.5492C12.3159 62.5601 12.2065 62.5932 12.1066 62.6464C12.0068 62.6996 11.9184 62.772 11.8465 62.8594C11.7746 62.9467 11.7206 63.0474 11.6876 63.1557C11.6546 63.2639 11.6433 63.3776 11.6543 63.4903C11.6652 63.6029 11.6982 63.7123 11.7515 63.8121C11.8047 63.912 11.8771 64.0004 11.9644 64.0723C12.0518 64.1442 12.1525 64.1982 12.2608 64.2312L12.6179 64.3401L11.2036 65.15C11.1053 65.2062 11.0191 65.2812 10.9498 65.3707C10.8805 65.4602 10.8295 65.5626 10.7998 65.6718C10.77 65.781 10.7621 65.8951 10.7765 66.0074C10.7909 66.1197 10.8272 66.228 10.8835 66.3263C10.9397 66.4245 11.0148 66.5107 11.1044 66.5799C11.194 66.6491 11.2964 66.7 11.4056 66.7296C11.5149 66.7592 11.6289 66.767 11.7412 66.7526C11.8535 66.7381 11.9618 66.7016 12.06 66.6453L13.5187 65.8096L13.4308 66.2119C13.3861 66.4335 13.4303 66.6638 13.5538 66.8531C13.6774 67.0424 13.8704 67.1756 14.0912 67.2239C14.312 67.2722 14.543 67.2318 14.7343 67.1114C14.9256 66.991 15.0619 66.8002 15.1139 66.5802L15.5352 64.6546L16.5708 64.0614L15.8277 66.927C15.7703 67.1482 15.8032 67.3831 15.9191 67.5801C16.0349 67.777 16.2243 67.9199 16.4454 67.9773C16.6666 68.0346 16.9016 68.0018 17.0985 67.8859C17.2955 67.7701 17.4384 67.5807 17.4957 67.3595L18.6618 62.8638L22.4644 60.6853V64.9971L18.7497 68.1009C18.6629 68.1735 18.5912 68.2624 18.5387 68.3627C18.4863 68.4629 18.4541 68.5726 18.444 68.6853C18.4339 68.798 18.4461 68.9116 18.4799 69.0195C18.5137 69.1275 18.5684 69.2278 18.641 69.3147C18.7135 69.4015 18.8025 69.4732 18.9027 69.5257C19.003 69.5781 19.1126 69.6103 19.2253 69.6204C19.338 69.6305 19.4516 69.6183 19.5596 69.5845C19.6676 69.5507 19.7679 69.496 19.8547 69.4234L22.4644 67.2424V68.4339L21.1234 69.6087C20.9515 69.7593 20.8464 69.972 20.8314 70.2C20.8163 70.428 20.8924 70.6527 21.043 70.8246C21.1936 70.9965 21.4063 71.1015 21.6343 71.1166C21.8624 71.1316 22.087 71.0555 22.2589 70.9049L22.4644 70.7248V72.2494C22.4644 72.4779 22.5552 72.697 22.7168 72.8586C22.8783 73.0202 23.0975 73.111 23.326 73.111C23.5545 73.111 23.7736 73.0202 23.9352 72.8586C24.0968 72.697 24.1876 72.4779 24.1876 72.2494V70.6361L24.5425 70.9247C24.6301 70.9976 24.7313 71.0525 24.8402 71.086C24.9491 71.1195 25.0635 71.1312 25.1769 71.1202C25.2904 71.1092 25.4005 71.0758 25.5009 71.0219C25.6013 70.9681 25.6901 70.8949 25.762 70.8065C25.8339 70.7181 25.8876 70.6164 25.92 70.5071C25.9523 70.3978 25.9626 70.2833 25.9504 70.17C25.9381 70.0567 25.9035 69.9469 25.8486 69.8471C25.7936 69.7473 25.7194 69.6594 25.6303 69.5884L24.1871 68.415V67.366L26.3885 69.3959C26.5565 69.5508 26.7791 69.6326 27.0075 69.6234C27.1205 69.6188 27.2316 69.592 27.3343 69.5445C27.437 69.497 27.5294 69.4297 27.6061 69.3465C27.6828 69.2633 27.7424 69.1659 27.7814 69.0596C27.8204 68.9534 27.8382 68.8406 27.8336 68.7275C27.829 68.6144 27.8022 68.5034 27.7547 68.4007C27.7072 68.298 27.6399 68.2056 27.5567 68.1289L24.1876 65.0221V60.7573L27.8536 62.8574L28.8999 67.3393C28.9533 67.5603 29.0919 67.7513 29.2855 67.8706C29.4791 67.9899 29.712 68.0278 29.9335 67.9761C30.1549 67.9243 30.3469 67.7871 30.4676 67.5944C30.5883 67.4017 30.628 67.1691 30.5779 66.9473L29.8964 64.0274L30.9419 64.6266L31.1456 66.4898C31.1579 66.6023 31.1923 66.7112 31.2467 66.8105C31.3011 66.9097 31.3745 66.9972 31.4628 67.068C31.551 67.1389 31.6524 67.1917 31.761 67.2233C31.8696 67.255 31.9835 67.265 32.096 67.2527C32.2084 67.2404 32.3174 67.206 32.4166 67.1516C32.5159 67.0972 32.6034 67.0238 32.6742 66.9355C32.7451 66.8473 32.7978 66.746 32.8295 66.6373C32.8612 66.5287 32.8712 66.4149 32.8589 66.3024L32.7912 65.6864L34.4661 66.6453C34.5644 66.7043 34.6735 66.7432 34.787 66.7596C34.9005 66.7759 35.0161 66.7695 35.127 66.7406C35.238 66.7117 35.3421 66.6609 35.4331 66.5913C35.5242 66.5217 35.6005 66.4346 35.6575 66.3351C35.7145 66.2356 35.7511 66.1257 35.7651 66.0119C35.7791 65.8982 35.7702 65.7827 35.739 65.6724C35.7078 65.562 35.6549 65.4591 35.5834 65.3694C35.5119 65.2798 35.4232 65.2054 35.3226 65.1505L34.2736 64.5495L34.5333 64.506C34.645 64.4874 34.7518 64.4469 34.8478 64.387C34.9438 64.327 35.027 64.2488 35.0928 64.1567C35.1585 64.0646 35.2055 63.9604 35.231 63.8502C35.2565 63.7399 35.26 63.6257 35.2413 63.5141C35.2227 63.4025 35.1823 63.2956 35.1223 63.1997C35.0624 63.1037 34.9841 63.0204 34.892 62.9547C34.7999 62.8889 34.6958 62.842 34.5855 62.8165C34.4753 62.791 34.3611 62.7875 34.2495 62.8061L31.912 63.1964L30.7433 62.527L33.6442 61.6137C33.7521 61.5797 33.8523 61.5248 33.9391 61.4521C34.0258 61.3794 34.0973 61.2904 34.1496 61.19C34.2019 61.0897 34.234 60.98 34.2439 60.8673C34.2538 60.7546 34.2414 60.641 34.2075 60.5331C34.1735 60.4251 34.1186 60.3249 34.0459 60.2382C33.9732 60.1515 33.8841 60.0799 33.7838 60.0276C33.6835 59.9753 33.5738 59.9433 33.4611 59.9334C33.3483 59.9235 33.2348 59.9358 33.1268 59.9698L28.7082 61.3612L24.9966 59.2349L28.7186 57.1025L33.1462 58.3815C33.3657 58.4449 33.6015 58.4185 33.8016 58.3081C34.0016 58.1977 34.1497 58.0124 34.2131 57.7928C34.2765 57.5733 34.2501 57.3376 34.1397 57.1375C34.0293 56.9374 33.8439 56.7894 33.6244 56.726L30.8001 55.9101L31.8909 55.2854L33.5783 55.6555C33.7881 55.7017 34.0076 55.6679 34.1938 55.5607C34.38 55.4535 34.5194 55.2805 34.5847 55.0758C34.65 54.8711 34.6364 54.6494 34.5466 54.4542C34.4569 54.259 34.2974 54.1044 34.0995 54.0206L35.323 53.3197C35.4212 53.2635 35.5073 53.1884 35.5765 53.0988C35.6456 53.0092 35.6965 52.9069 35.7261 52.7977C35.7557 52.6885 35.7635 52.5745 35.7491 52.4622C35.7347 52.35 35.6983 52.2417 35.642 52.1435C35.5857 52.0453 35.5106 51.9592 35.421 51.89C35.3315 51.8208 35.2291 51.77 35.1199 51.7404C35.0107 51.7107 34.8967 51.7029 34.7845 51.7174C34.6722 51.7318 34.5639 51.7682 34.4657 51.8245L32.7912 52.7838L32.8589 52.1678C32.8838 51.9406 32.8174 51.7129 32.6744 51.5346C32.5314 51.3563 32.3234 51.2422 32.0962 51.2173C31.869 51.1924 31.6412 51.2587 31.4629 51.4018C31.2847 51.5448 31.1705 51.7528 31.1456 51.98L30.9419 53.8432L29.8597 54.4635L30.5809 51.1357C30.6049 51.0251 30.6068 50.9108 30.5867 50.7995C30.5665 50.6881 30.5246 50.5818 30.4634 50.4866C30.4021 50.3915 30.3227 50.3093 30.2297 50.2448C30.1367 50.1803 30.0319 50.1348 29.9213 50.1108C29.8107 50.0868 29.6965 50.0849 29.5851 50.105C29.4738 50.1252 29.3675 50.1671 29.2723 50.2283C29.1772 50.2896 29.095 50.369 29.0305 50.462C28.966 50.555 28.9205 50.6597 28.8965 50.7703L27.8467 55.6167L24.188 57.7125V53.5455L27.5895 50.0604C27.7458 49.8963 27.8311 49.6772 27.8269 49.4506C27.8228 49.224 27.7295 49.0081 27.5673 48.8498C27.4052 48.6915 27.1872 48.6035 26.9605 48.6048C26.7339 48.6061 26.5169 48.6966 26.3566 48.8568L24.188 51.0784V49.9923L26.0085 48.507C26.0962 48.4355 26.1689 48.3474 26.2226 48.2478C26.2762 48.1482 26.3097 48.039 26.3212 47.9264C26.3326 47.8138 26.3218 47.7001 26.2893 47.5917C26.2567 47.4834 26.2032 47.3824 26.1317 47.2948C26.0602 47.2071 25.9721 47.1343 25.8725 47.0807C25.7729 47.027 25.6637 46.9935 25.5511 46.9821C25.4385 46.9707 25.3248 46.9815 25.2164 47.014C25.1081 47.0465 25.0072 47.1 24.9195 47.1715L24.188 47.7686L24.1876 45.9714Z" fill="#349AC0"/>
<path d="M41.1924 13.6606H58.8361V5.68603C58.8361 5.13476 58.3891 4.6875 57.8381 4.6875H42.1903C41.6394 4.6875 41.1924 5.13476 41.1924 5.68603V13.6606Z" fill="#349AC0"/>
<path d="M42.1866 13.6596C42.0274 13.6596 41.8975 13.5295 41.8975 13.3703V5.73832C41.8975 5.57905 42.0274 5.44904 42.1866 5.44904C42.3458 5.44904 42.4757 5.57905 42.4757 5.73832V13.3703C42.4757 13.5295 42.3458 13.6596 42.1866 13.6596Z" fill="#485576"/>
<path d="M43.6202 13.6596C43.461 13.6596 43.3311 13.5295 43.3311 13.3703V5.73832C43.3311 5.57905 43.461 5.44904 43.6202 5.44904C43.7794 5.44904 43.9093 5.57905 43.9093 5.73832V13.3703C43.9093 13.5295 43.7794 13.6596 43.6202 13.6596Z" fill="#485576"/>
<path d="M45.0567 13.6596C44.8975 13.6596 44.7676 13.5295 44.7676 13.3703V5.73832C44.7676 5.57905 44.8975 5.44904 45.0567 5.44904C45.2159 5.44904 45.3458 5.57905 45.3458 5.73832V13.3703C45.3458 13.5295 45.2159 13.6596 45.0567 13.6596Z" fill="#485576"/>
<path d="M46.4913 13.6596C46.3321 13.6596 46.2021 13.5295 46.2021 13.3703V5.73832C46.2021 5.57905 46.3321 5.44904 46.4913 5.44904C46.6505 5.44904 46.7804 5.57905 46.7804 5.73832V13.3703C46.7804 13.5295 46.6505 13.6596 46.4913 13.6596Z" fill="#485576"/>
<path d="M47.9249 13.6596C47.7657 13.6596 47.6357 13.5295 47.6357 13.3703V5.73832C47.6357 5.57905 47.7657 5.44904 47.9249 5.44904C48.084 5.44904 48.214 5.57905 48.214 5.73832V13.3703C48.214 13.5295 48.084 13.6596 47.9249 13.6596Z" fill="#485576"/>
<path d="M49.3585 13.6596C49.1993 13.6596 49.0693 13.5295 49.0693 13.3703V5.73832C49.0693 5.57905 49.1993 5.44904 49.3585 5.44904C49.5176 5.44904 49.6476 5.57905 49.6476 5.73832V13.3703C49.6476 13.5295 49.5176 13.6596 49.3585 13.6596Z" fill="#485576"/>
<path d="M50.795 13.6596C50.6358 13.6596 50.5059 13.5295 50.5059 13.3703V5.73832C50.5059 5.57905 50.6358 5.44904 50.795 5.44904C50.9542 5.44904 51.0841 5.57905 51.0841 5.73832V13.3703C51.0841 13.5295 50.9542 13.6596 50.795 13.6596Z" fill="#485576"/>
<path d="M52.2296 13.6596C52.0704 13.6596 51.9404 13.5295 51.9404 13.3703V5.73832C51.9404 5.57905 52.0704 5.44904 52.2296 5.44904C52.3887 5.44904 52.5187 5.57905 52.5187 5.73832V13.3703C52.5187 13.5295 52.3887 13.6596 52.2296 13.6596Z" fill="#485576"/>
<path d="M53.6631 13.6596C53.504 13.6596 53.374 13.5295 53.374 13.3703V5.73832C53.374 5.57905 53.504 5.44904 53.6631 5.44904C53.8223 5.44904 53.9523 5.57905 53.9523 5.73832V13.3703C53.9523 13.5295 53.8223 13.6596 53.6631 13.6596Z" fill="#485576"/>
<path d="M55.0997 13.6596C54.9405 13.6596 54.8105 13.5295 54.8105 13.3703V5.73832C54.8105 5.57905 54.9405 5.44904 55.0997 5.44904C55.2589 5.44904 55.3888 5.57905 55.3888 5.73832V13.3703C55.3888 13.5295 55.2589 13.6596 55.0997 13.6596Z" fill="#485576"/>
<path d="M56.5342 13.6596C56.3751 13.6596 56.2451 13.5295 56.2451 13.3703V5.73832C56.2451 5.57905 56.3751 5.44904 56.5342 5.44904C56.6934 5.44904 56.8234 5.57905 56.8234 5.73832V13.3703C56.8234 13.5295 56.6934 13.6596 56.5342 13.6596Z" fill="#485576"/>
<path d="M57.9678 13.6596C57.8087 13.6596 57.6787 13.5295 57.6787 13.3703V5.73832C57.6787 5.57905 57.8087 5.44904 57.9678 5.44904C58.127 5.44904 58.257 5.57905 58.257 5.73832V13.3703C58.257 13.5295 58.127 13.6596 57.9678 13.6596Z" fill="#485576"/>
<path d="M101.267 11.825C101.267 13.7791 99.6691 15.3777 97.716 15.3777H74.9415C72.9884 15.3777 71.3901 13.7791 71.3901 11.825V10.2362C71.3901 8.28203 72.9878 6.68348 74.9415 6.68348H97.716C99.6691 6.68348 101.267 8.28203 101.267 10.2362V11.825ZM109.152 2.8272C108.694 1.15779 107.178 0 105.447 0H67.1683C65.2932 0 63.6494 1.25401 63.1537 3.06383L60.3306 13.3663H40.3278C38.9348 13.3663 37.6977 14.2582 37.2572 15.5805L33.6143 26.5162V112.532C33.6143 116.104 36.5081 118.999 40.0776 118.999H105.577C109.147 118.999 112.041 116.104 112.041 112.532V13.3663L109.153 2.82785L109.152 2.8272Z" fill="#9AADC4"/>
<path d="M109.152 2.82788C108.694 1.15847 107.178 0.000671387 105.447 0.000671387H85.6167C85.5348 2.22915 85.4152 4.45698 85.2626 6.68351H97.7157C99.6687 6.68351 101.267 8.28206 101.267 10.2362V11.825C101.267 13.7791 99.6687 15.3777 97.7157 15.3777H84.5264C84.1639 18.9869 83.7448 22.5864 83.2991 26.1677C80.7327 46.7838 78.191 67.7658 70.5692 87.2448C65.6132 99.9097 58.016 112.173 46.8643 118.999H105.576C109.146 118.999 112.04 116.104 112.04 112.532V13.3663L109.152 2.82788Z" fill="#8A9DB0"/>
<path d="M109.154 2.82788C108.696 1.15847 107.179 0.000671387 105.448 0.000671387H101.151C103.434 11.7483 104.054 23.7806 103.394 35.7278C102.066 59.7886 96.1199 83.6173 87.0686 105.902C85.2377 110.411 83.1794 114.854 80.6631 119H105.578C109.148 119 112.042 116.104 112.042 112.532V13.3663L109.154 2.82788Z" fill="#7A8C9B"/>
<path d="M103.669 115.442H41.9866C38.625 115.442 35.8994 112.715 35.8994 109.352V28.3485H109.755V109.352C109.755 112.715 107.03 115.442 103.669 115.442Z" fill="#349AC0"/>
<path d="M106.9 85.245C97.3822 88.2322 89.3666 81.1495 81.4647 77.2159C75.6881 74.3399 68.8459 74.518 62.7178 76.0646C57.2186 77.4525 52.5842 80.9727 47.2532 82.8482C43.5141 84.1633 39.4859 84.3947 35.8994 82.9125V109.353C35.8994 112.716 38.625 115.443 41.9866 115.443H103.669C107.03 115.443 109.756 112.716 109.756 109.353V83.9462C108.879 84.4734 107.935 84.92 106.9 85.245Z" fill="#52B4DE"/>
<path d="M83.3136 1.29387C83.3136 1.29387 67.0824 0.287549 66.0773 1.29387C65.0715 2.29955 64.7843 3.30588 66.0773 3.88055C67.3702 4.45522 82.1643 4.6873 83.3136 4.31155C84.463 3.93645 85.7552 2.58689 83.3136 1.29322V1.29387Z" fill="#C9D5E0"/>
<path d="M60.9056 15.3784C60.9056 15.3784 43.0241 15.2347 41.1919 15.3784C39.3597 15.522 38.6417 17.8935 40.6526 19.1865C42.6635 20.4802 61.4799 19.977 61.4799 19.977C61.4799 19.977 63.9625 20.0733 63.9612 17.6498C63.9612 16.4549 62.7008 15.2601 60.9049 15.3777L60.9056 15.3784Z" fill="#C9D5E0"/>
<path d="M97.3893 16.9589H74.9552C74.9552 16.9589 73.4732 17.1026 73.8325 18.3241C74.1912 19.5456 75.6277 19.4019 75.6277 19.4019L97.3893 19.4071C97.3893 19.4071 99.5438 19.335 99.4002 18.183C99.2566 17.0304 97.9637 16.9589 97.3893 16.9589Z" fill="#C9D5E0"/>
<path d="M99.8469 33.145C99.8469 33.145 46.8924 33.4323 43.9238 35.4443C40.9552 37.4563 38.8489 57.2896 43.9238 61.17C48.9987 65.0503 83.7593 52.1156 92.3778 48.9543C100.996 45.7923 104.156 44.3556 104.73 39.4689C105.305 34.5823 102.142 33.1287 99.8469 33.1456V33.145Z" fill="#52A4C7"/>
<path d="M91.572 48.4068C90.8728 48.4068 90.1915 48.5592 89.5281 48.864C88.8648 49.1508 88.2731 49.6169 87.7532 50.2624C87.2512 50.9078 86.8389 51.7415 86.5162 52.7634C86.2114 53.7853 86.059 55.0224 86.059 56.4746C86.059 57.9268 86.2114 59.1638 86.5162 60.1858C86.8389 61.2077 87.2512 62.0413 87.7532 62.6868C88.2731 63.3322 88.8648 63.8073 89.5281 64.1121C90.1915 64.3989 90.8728 64.5424 91.572 64.5424C92.2712 64.5424 92.9525 64.3989 93.6158 64.1121C94.2792 63.8073 94.8618 63.3322 95.3638 62.6868C95.8838 62.0413 96.2961 61.2077 96.6009 60.1858C96.9236 59.1638 97.085 57.9268 97.085 56.4746C97.085 55.0224 96.9236 53.7853 96.6009 52.7634C96.2961 51.7415 95.8838 50.9078 95.3638 50.2624C94.8618 49.6169 94.2792 49.1508 93.6158 48.864C92.9525 48.5592 92.2712 48.4068 91.572 48.4068ZM91.572 46.5243C92.9883 46.5243 94.2881 46.7305 95.4714 47.1428C96.6547 47.5372 97.6766 48.1468 98.5372 48.9715C99.3977 49.7962 100.061 50.8361 100.527 52.0911C101.011 53.3281 101.253 54.7893 101.253 56.4746C101.253 58.1598 101.011 59.63 100.527 60.885C100.061 62.122 99.3977 63.1529 98.5372 63.9776C97.6766 64.8023 96.6547 65.4209 95.4714 65.8332C94.2881 66.2276 92.9883 66.4248 91.572 66.4248C90.1556 66.4248 88.8558 66.2276 87.6725 65.8332C86.4893 65.4209 85.4673 64.8023 84.6068 63.9776C83.7462 63.1529 83.0739 62.122 82.5898 60.885C82.1237 59.63 81.8906 58.1598 81.8906 56.4746C81.8906 54.7893 82.1237 53.3281 82.5898 52.0911C83.0739 50.8361 83.7462 49.7962 84.6068 48.9715C85.4673 48.1468 86.4893 47.5372 87.6725 47.1428C88.8558 46.7305 90.1556 46.5243 91.572 46.5243Z" fill="white"/>
<path d="M69.2407 48.5412C67.8961 48.5412 66.668 48.7295 65.5564 49.106C64.4628 49.4646 63.405 50.0831 62.3831 50.9616L61.1729 49.348C62.1948 48.4695 63.396 47.7793 64.7765 47.2773C66.175 46.7753 67.7527 46.5243 69.5096 46.5243C70.8901 46.5243 72.1003 46.6498 73.1402 46.9008C74.18 47.1518 75.0495 47.5014 75.7487 47.9496C76.4479 48.3978 76.9679 48.9267 77.3085 49.5363C77.6671 50.1458 77.8464 50.8002 77.8464 51.4994C77.8464 52.6469 77.5685 53.5971 77.0127 54.3501C76.4569 55.0851 75.5695 55.6588 74.3503 56.0712C75.695 56.4118 76.7438 56.9855 77.4968 57.7923C78.2677 58.5812 78.6531 59.621 78.6531 60.9119C78.6531 61.6828 78.4739 62.4089 78.1153 63.0902C77.7567 63.7535 77.192 64.3362 76.4211 64.8382C75.6681 65.3223 74.7089 65.7077 73.5435 65.9946C72.3782 66.2814 70.9887 66.4248 69.3752 66.4248C67.6182 66.4248 65.9957 66.147 64.5076 65.5912C63.0375 65.0354 61.7915 64.2824 60.7695 63.3322L62.1142 61.7186C63.1361 62.6688 64.2208 63.3591 65.3682 63.7894C66.5156 64.2017 67.7616 64.4079 69.1063 64.4079C70.9887 64.4079 72.3513 64.0493 73.1939 63.3322C74.0545 62.6151 74.4848 61.7186 74.4848 60.6429C74.4848 59.5672 74.1441 58.7425 73.4629 58.1688C72.7816 57.5772 71.7328 57.2813 70.3164 57.2813H64.8034V55.2644H69.7786C72.3782 55.2644 73.678 54.0991 73.678 51.7684C73.678 50.8182 73.2925 50.0472 72.5216 49.4556C71.7507 48.846 70.6571 48.5412 69.2407 48.5412Z" fill="white"/>
<path d="M60.5083 58.3575H48.1377V55.9371H60.5083V58.3575Z" fill="white"/>
<path d="M76.6377 106.877H77.1218C77.4445 106.877 77.7295 106.743 77.9769 106.474C78.2244 106.205 78.3696 105.748 78.4126 105.102L78.9774 96.5504H88.578V107.845H86.2384V97.7605H81.1557L80.6716 105.102C80.5963 106.156 80.3005 106.92 79.7841 107.393C79.2786 107.856 78.5793 108.087 77.6865 108.087C77.4068 108.087 77.1594 108.06 76.9443 108.007C76.8259 107.985 76.7238 107.958 76.6377 107.926V106.877Z" fill="white"/>
<path d="M69.4226 92.7844V107.844H66.3031V95.3661H66.0879L63.5062 96.7645L62.5381 95.3661L66.1955 92.7844H69.4226Z" fill="white"/>
</svg>
