<svg width="11" height="11" viewBox="0 0 11 11" fill="none" xmlns="http://www.w3.org/2000/svg">
<path fill-rule="evenodd" clip-rule="evenodd" d="M10.9306 5.3828C10.9306 2.4098 8.48366 0 5.46506 0C2.44646 0 -0.000488281 2.40995 -0.000488281 5.3828C-0.000488281 8.35568 2.44653 10.766 5.46506 10.766C8.48359 10.766 10.9306 8.35587 10.9306 5.3828Z" fill="#FC3F1D"/>
<path fill-rule="evenodd" clip-rule="evenodd" d="M6.19399 3.0504H5.69297C4.75933 3.0504 4.28101 3.52136 4.28101 4.19444C4.28101 4.95706 4.6226 5.31585 5.30589 5.78673L5.87521 6.16818L4.23559 8.5905H3.00586L4.48602 6.43718C3.6433 5.8317 3.16521 5.24845 3.16521 4.28399C3.16521 3.0504 4.03058 2.22046 5.69297 2.22046H7.3326V8.61304H6.19399V3.0504Z" fill="white"/>
</svg>
