<svg width="30" height="10" viewBox="0 0 30 10" fill="none" xmlns="http://www.w3.org/2000/svg">
<path fill-rule="evenodd" clip-rule="evenodd" d="M25.6244 7.21797H24.9713V5.3401H25.658C26.2623 5.3401 26.6168 5.60844 26.6168 6.28463C26.6168 6.96079 26.2249 7.21797 25.6244 7.21797ZM28.5906 2.45181V8.31318H30.0009V2.45181H28.5906ZM23.5646 2.45181V8.31318H25.7064C27.0907 8.31318 28.0719 7.61498 28.0719 6.23685C28.0719 4.93213 27.1952 4.24513 25.7287 4.24513H24.9713V2.45162L23.5646 2.45181ZM22.7363 3.5469V2.45181H18.0164V3.5469H19.6732V8.31345H21.0798V3.5469H22.7363ZM15.1098 7.33225C14.3636 7.33225 13.9832 6.74054 13.9832 5.38807C13.9832 4.02476 14.386 3.43305 15.1808 3.43305C15.9493 3.43305 16.3263 4.02476 16.3263 5.37711C16.3263 6.74054 15.9233 7.33225 15.1098 7.33225ZM13.8787 2.45181H12.5764V10.0001H13.9832V7.62598C14.3414 8.14784 14.8598 8.42722 15.4644 8.42722C16.8338 8.42722 17.7814 7.34672 17.7814 5.37699C17.7814 3.41811 16.8598 2.33785 15.5351 2.33785C14.8712 2.33785 14.3263 2.6391 13.9496 3.2087L13.8787 2.45181ZM10.0355 6.91336C9.85638 7.17051 9.52433 7.38003 9.02807 7.38003C8.43851 7.38003 8.14005 7.05299 8.14005 6.55313C8.14005 5.88801 8.62518 5.64545 9.83404 5.64545H10.0355V6.91336ZM11.4421 4.3151C11.4421 2.8966 10.707 2.35996 9.21835 2.35996C8.28554 2.35996 7.55061 2.65038 7.12507 2.8966V4.0505C7.50202 3.76762 8.33032 3.4662 9.05413 3.4662C9.72582 3.4662 10.0355 3.69772 10.0355 4.3298V4.65318H9.80787C7.65491 4.65318 6.69977 5.35511 6.69977 6.54221C6.69977 7.72918 7.43105 8.39442 8.52068 8.39442C9.34887 8.39442 9.70336 8.1262 9.97569 7.84682H10.0355C10.0466 7.99737 10.0951 8.19585 10.14 8.31349H11.513C11.4645 7.83574 11.4421 7.35803 11.4421 6.88029V4.3151ZM4.97235 8.31368H6.64029L3.71874 4.06158L6.36788 0.217529H4.91263L2.36804 3.94395V0.217529H0.938965V8.31337H2.36804V4.51343L4.97235 8.31368Z" fill="black"/>
</svg>
