<svg width="10" height="11" viewBox="0 0 10 11" fill="none" xmlns="http://www.w3.org/2000/svg">
<path fill-rule="evenodd" clip-rule="evenodd" d="M5.27232 0.0100098C2.84874 0.0100098 0.884277 1.94487 0.884277 4.33193C0.884277 5.52491 1.3752 6.60521 2.16877 7.38738C2.96291 8.16982 4.8334 9.30211 4.94313 10.4907C4.95972 10.669 5.09075 10.815 5.27236 10.815C5.45396 10.815 5.58496 10.669 5.60155 10.4907C5.71128 9.30211 7.58177 8.16982 8.3759 7.38738C9.16952 6.60521 9.6604 5.52491 9.6604 4.33193C9.6604 1.94487 7.6959 0.0100098 5.27232 0.0100098Z" fill="#FF4433"/>
<path fill-rule="evenodd" clip-rule="evenodd" d="M5.27208 5.84508C6.12039 5.84508 6.80784 5.16771 6.80784 4.33247C6.80784 3.49694 6.12039 2.81958 5.27208 2.81958C4.42378 2.81958 3.73633 3.49694 3.73633 4.33247C3.73633 5.16771 4.42378 5.84508 5.27208 5.84508Z" fill="white"/>
</svg>
